# covered stalls: 16 stalls 16 x 30 ft, 8 a side, 12 ft corridor, roof 28 ft wide (8 ft over each stall front), butterfly: valley over the corridor 10.7 ft at the NE end falling 0.5 % to 10.0 ft at the SW end, outer eaves 1.25 ft higher; the valley pours down an open chute into a round trough 8 ft across, 2 ft tall, 7 ft from the SW end, 10 ft clear on its open sides, chute cantilevered 7 ft, no post; 8 waterers on a 6 ft level strip at the stall fronts
# geo 31.9997609 -116.7636188
# unit ft
# name covered stalls 16
v -46.587 -44.326 0.000
v 37.131 52.501 0.000
v 37.320 52.338 0.000
v -46.397 -44.489 0.000
v -46.587 -44.326 5.000
v 37.131 52.501 5.000
v 37.320 52.338 5.000
v -46.397 -44.489 5.000
v -69.091 -24.868 0.000
v 14.626 71.959 0.000
v 14.815 71.795 0.000
v -68.902 -25.031 0.000
v -69.091 -24.868 5.000
v 14.626 71.959 5.000
v 14.815 71.795 5.000
v -68.902 -25.031 5.000
v -69.170 -24.959 0.000
v -69.013 -24.777 0.000
v -46.319 -44.398 0.000
v -46.476 -44.580 0.000
v -69.170 -24.959 5.000
v -69.013 -24.777 5.000
v -46.319 -44.398 5.000
v -46.476 -44.580 5.000
v -58.705 -12.855 0.000
v -58.548 -12.674 0.000
v -35.854 -32.295 0.000
v -36.011 -32.477 0.000
v -58.705 -12.855 5.000
v -58.548 -12.674 5.000
v -35.854 -32.295 5.000
v -36.011 -32.477 5.000
v -48.240 -0.752 0.000
v -48.083 -0.570 0.000
v -25.390 -20.192 0.000
v -25.547 -20.373 0.000
v -48.240 -0.752 5.000
v -48.083 -0.570 5.000
v -25.390 -20.192 5.000
v -25.547 -20.373 5.000
v -37.776 11.351 0.000
v -37.619 11.533 0.000
v -14.925 -8.088 0.000
v -15.082 -8.270 0.000
v -37.776 11.351 5.000
v -37.619 11.533 5.000
v -14.925 -8.088 5.000
v -15.082 -8.270 5.000
v -27.311 23.455 0.000
v -27.154 23.636 0.000
v -4.460 4.015 0.000
v -4.617 3.833 0.000
v -27.311 23.455 5.000
v -27.154 23.636 5.000
v -4.460 4.015 5.000
v -4.617 3.833 5.000
v -16.846 35.558 0.000
v -16.689 35.740 0.000
v 6.004 16.118 0.000
v 5.847 15.937 0.000
v -16.846 35.558 5.000
v -16.689 35.740 5.000
v 6.004 16.118 5.000
v 5.847 15.937 5.000
v -6.382 47.661 0.000
v -6.225 47.843 0.000
v 16.469 28.222 0.000
v 16.312 28.040 0.000
v -6.382 47.661 5.000
v -6.225 47.843 5.000
v 16.469 28.222 5.000
v 16.312 28.040 5.000
v 4.083 59.765 0.000
v 4.240 59.946 0.000
v 26.934 40.325 0.000
v 26.777 40.143 0.000
v 4.083 59.765 5.000
v 4.240 59.946 5.000
v 26.934 40.325 5.000
v 26.777 40.143 5.000
v 14.548 71.868 0.000
v 14.705 72.050 0.000
v 37.398 52.428 0.000
v 37.241 52.247 0.000
v 14.548 71.868 5.000
v 14.705 72.050 5.000
v 37.398 52.428 5.000
v 37.241 52.247 5.000
v -46.587 -44.326 0.000
v -46.259 -43.947 0.000
v -45.881 -44.274 0.000
v -46.208 -44.653 0.000
v -46.587 -44.326 10.587
v -46.259 -43.947 10.587
v -45.881 -44.274 10.587
v -46.208 -44.653 10.587
v -52.638 -39.093 0.000
v -52.311 -38.715 0.000
v -51.933 -39.042 0.000
v -52.260 -39.420 0.000
v -52.638 -39.093 11.301
v -52.311 -38.715 11.301
v -51.933 -39.042 11.301
v -52.260 -39.420 11.301
v -36.285 -32.411 0.000
v -35.958 -32.033 0.000
v -35.580 -32.360 0.000
v -35.907 -32.738 0.000
v -36.285 -32.411 10.666
v -35.958 -32.033 10.666
v -35.580 -32.360 10.666
v -35.907 -32.738 10.666
v -42.337 -27.179 0.000
v -42.010 -26.801 0.000
v -41.632 -27.128 0.000
v -41.959 -27.506 0.000
v -42.337 -27.179 11.380
v -42.010 -26.801 11.380
v -41.632 -27.128 11.380
v -41.959 -27.506 11.380
v -25.821 -20.308 0.000
v -25.494 -19.930 0.000
v -25.115 -20.257 0.000
v -25.442 -20.635 0.000
v -25.821 -20.308 10.746
v -25.494 -19.930 10.746
v -25.115 -20.257 10.746
v -25.442 -20.635 10.746
v -31.872 -15.076 0.000
v -31.545 -14.697 0.000
v -31.167 -15.025 0.000
v -31.494 -15.403 0.000
v -31.872 -15.076 11.460
v -31.545 -14.697 11.460
v -31.167 -15.025 11.460
v -31.494 -15.403 11.460
v -15.356 -8.205 0.000
v -15.029 -7.826 0.000
v -14.651 -8.153 0.000
v -14.978 -8.532 0.000
v -15.356 -8.205 10.826
v -15.029 -7.826 10.826
v -14.651 -8.153 10.826
v -14.978 -8.532 10.826
v -21.408 -2.972 0.000
v -21.081 -2.594 0.000
v -20.702 -2.921 0.000
v -21.029 -3.299 0.000
v -21.408 -2.972 11.540
v -21.081 -2.594 11.540
v -20.702 -2.921 11.540
v -21.029 -3.299 11.540
v -4.891 3.899 0.000
v -4.564 4.277 0.000
v -4.186 3.950 0.000
v -4.513 3.572 0.000
v -4.891 3.899 10.906
v -4.564 4.277 10.906
v -4.186 3.950 10.906
v -4.513 3.572 10.906
v -10.943 9.131 0.000
v -10.616 9.509 0.000
v -10.238 9.182 0.000
v -10.565 8.804 0.000
v -10.943 9.131 11.620
v -10.616 9.509 11.620
v -10.238 9.182 11.620
v -10.565 8.804 11.620
v 5.573 16.002 0.000
v 5.900 16.380 0.000
v 6.279 16.053 0.000
v 5.952 15.675 0.000
v 5.573 16.002 10.986
v 5.900 16.380 10.986
v 6.279 16.053 10.986
v 5.952 15.675 10.986
v -0.478 21.234 0.000
v -0.151 21.613 0.000
v 0.227 21.286 0.000
v -0.100 20.907 0.000
v -0.478 21.234 11.700
v -0.151 21.613 11.700
v 0.227 21.286 11.700
v -0.100 20.907 11.700
v 16.038 28.105 0.000
v 16.365 28.484 0.000
v 16.743 28.157 0.000
v 16.416 27.778 0.000
v 16.038 28.105 11.066
v 16.365 28.484 11.066
v 16.743 28.157 11.066
v 16.416 27.778 11.066
v 9.986 33.338 0.000
v 10.313 33.716 0.000
v 10.692 33.389 0.000
v 10.364 33.011 0.000
v 9.986 33.338 11.780
v 10.313 33.716 11.780
v 10.692 33.389 11.780
v 10.364 33.011 11.780
v 26.503 40.209 0.000
v 26.830 40.587 0.000
v 27.208 40.260 0.000
v 26.881 39.882 0.000
v 26.503 40.209 11.146
v 26.830 40.587 11.146
v 27.208 40.260 11.146
v 26.881 39.882 11.146
v 20.451 45.441 0.000
v 20.778 45.819 0.000
v 21.156 45.492 0.000
v 20.829 45.114 0.000
v 20.451 45.441 11.860
v 20.778 45.819 11.860
v 21.156 45.492 11.860
v 20.829 45.114 11.860
v 36.804 52.123 0.000
v 37.131 52.501 0.000
v 37.509 52.174 0.000
v 37.182 51.796 0.000
v 36.804 52.123 11.224
v 37.131 52.501 11.224
v 37.509 52.174 11.224
v 37.182 51.796 11.224
v 30.752 57.355 0.000
v 31.079 57.733 0.000
v 31.457 57.406 0.000
v 31.130 57.028 0.000
v 30.752 57.355 11.939
v 31.079 57.733 11.939
v 31.457 57.406 11.939
v 31.130 57.028 11.939
v -37.320 -52.338 0.000
v 46.397 44.489 0.000
v 46.587 44.326 0.000
v -37.131 -52.501 0.000
v -37.320 -52.338 5.000
v 46.397 44.489 5.000
v 46.587 44.326 5.000
v -37.131 -52.501 5.000
v -14.815 -71.795 0.000
v 68.902 25.031 0.000
v 69.091 24.868 0.000
v -14.626 -71.959 0.000
v -14.815 -71.795 5.000
v 68.902 25.031 5.000
v 69.091 24.868 5.000
v -14.626 -71.959 5.000
v -37.398 -52.428 0.000
v -37.241 -52.247 0.000
v -14.548 -71.868 0.000
v -14.705 -72.050 0.000
v -37.398 -52.428 5.000
v -37.241 -52.247 5.000
v -14.548 -71.868 5.000
v -14.705 -72.050 5.000
v -26.934 -40.325 0.000
v -26.777 -40.143 0.000
v -4.083 -59.765 0.000
v -4.240 -59.946 0.000
v -26.934 -40.325 5.000
v -26.777 -40.143 5.000
v -4.083 -59.765 5.000
v -4.240 -59.946 5.000
v -16.469 -28.222 0.000
v -16.312 -28.040 0.000
v 6.382 -47.661 0.000
v 6.225 -47.843 0.000
v -16.469 -28.222 5.000
v -16.312 -28.040 5.000
v 6.382 -47.661 5.000
v 6.225 -47.843 5.000
v -6.004 -16.118 0.000
v -5.847 -15.937 0.000
v 16.846 -35.558 0.000
v 16.689 -35.740 0.000
v -6.004 -16.118 5.000
v -5.847 -15.937 5.000
v 16.846 -35.558 5.000
v 16.689 -35.740 5.000
v 4.460 -4.015 0.000
v 4.617 -3.833 0.000
v 27.311 -23.455 0.000
v 27.154 -23.636 0.000
v 4.460 -4.015 5.000
v 4.617 -3.833 5.000
v 27.311 -23.455 5.000
v 27.154 -23.636 5.000
v 14.925 8.088 0.000
v 15.082 8.270 0.000
v 37.776 -11.351 0.000
v 37.619 -11.533 0.000
v 14.925 8.088 5.000
v 15.082 8.270 5.000
v 37.776 -11.351 5.000
v 37.619 -11.533 5.000
v 25.390 20.192 0.000
v 25.547 20.373 0.000
v 48.240 0.752 0.000
v 48.083 0.570 0.000
v 25.390 20.192 5.000
v 25.547 20.373 5.000
v 48.240 0.752 5.000
v 48.083 0.570 5.000
v 35.854 32.295 0.000
v 36.011 32.477 0.000
v 58.705 12.855 0.000
v 58.548 12.674 0.000
v 35.854 32.295 5.000
v 36.011 32.477 5.000
v 58.705 12.855 5.000
v 58.548 12.674 5.000
v 46.319 44.398 0.000
v 46.476 44.580 0.000
v 69.170 24.959 0.000
v 69.013 24.777 0.000
v 46.319 44.398 5.000
v 46.476 44.580 5.000
v 69.170 24.959 5.000
v 69.013 24.777 5.000
v -37.509 -52.174 0.000
v -37.182 -51.796 0.000
v -36.804 -52.123 0.000
v -37.131 -52.501 0.000
v -37.509 -52.174 10.587
v -37.182 -51.796 10.587
v -36.804 -52.123 10.587
v -37.131 -52.501 10.587
v -31.457 -57.406 0.000
v -31.130 -57.028 0.000
v -30.752 -57.355 0.000
v -31.079 -57.733 0.000
v -31.457 -57.406 11.301
v -31.130 -57.028 11.301
v -30.752 -57.355 11.301
v -31.079 -57.733 11.301
v -27.208 -40.260 0.000
v -26.881 -39.882 0.000
v -26.503 -40.209 0.000
v -26.830 -40.587 0.000
v -27.208 -40.260 10.666
v -26.881 -39.882 10.666
v -26.503 -40.209 10.666
v -26.830 -40.587 10.666
v -21.156 -45.492 0.000
v -20.829 -45.114 0.000
v -20.451 -45.441 0.000
v -20.778 -45.819 0.000
v -21.156 -45.492 11.380
v -20.829 -45.114 11.380
v -20.451 -45.441 11.380
v -20.778 -45.819 11.380
v -16.743 -28.157 0.000
v -16.416 -27.778 0.000
v -16.038 -28.105 0.000
v -16.365 -28.484 0.000
v -16.743 -28.157 10.746
v -16.416 -27.778 10.746
v -16.038 -28.105 10.746
v -16.365 -28.484 10.746
v -10.692 -33.389 0.000
v -10.364 -33.011 0.000
v -9.986 -33.338 0.000
v -10.313 -33.716 0.000
v -10.692 -33.389 11.460
v -10.364 -33.011 11.460
v -9.986 -33.338 11.460
v -10.313 -33.716 11.460
v -6.279 -16.053 0.000
v -5.952 -15.675 0.000
v -5.573 -16.002 0.000
v -5.900 -16.380 0.000
v -6.279 -16.053 10.826
v -5.952 -15.675 10.826
v -5.573 -16.002 10.826
v -5.900 -16.380 10.826
v -0.227 -21.286 0.000
v 0.100 -20.907 0.000
v 0.478 -21.234 0.000
v 0.151 -21.613 0.000
v -0.227 -21.286 11.540
v 0.100 -20.907 11.540
v 0.478 -21.234 11.540
v 0.151 -21.613 11.540
v 4.186 -3.950 0.000
v 4.513 -3.572 0.000
v 4.891 -3.899 0.000
v 4.564 -4.277 0.000
v 4.186 -3.950 10.906
v 4.513 -3.572 10.906
v 4.891 -3.899 10.906
v 4.564 -4.277 10.906
v 10.238 -9.182 0.000
v 10.565 -8.804 0.000
v 10.943 -9.131 0.000
v 10.616 -9.509 0.000
v 10.238 -9.182 11.620
v 10.565 -8.804 11.620
v 10.943 -9.131 11.620
v 10.616 -9.509 11.620
v 14.651 8.153 0.000
v 14.978 8.532 0.000
v 15.356 8.205 0.000
v 15.029 7.826 0.000
v 14.651 8.153 10.986
v 14.978 8.532 10.986
v 15.356 8.205 10.986
v 15.029 7.826 10.986
v 20.702 2.921 0.000
v 21.029 3.299 0.000
v 21.408 2.972 0.000
v 21.081 2.594 0.000
v 20.702 2.921 11.700
v 21.029 3.299 11.700
v 21.408 2.972 11.700
v 21.081 2.594 11.700
v 25.115 20.257 0.000
v 25.442 20.635 0.000
v 25.821 20.308 0.000
v 25.494 19.930 0.000
v 25.115 20.257 11.066
v 25.442 20.635 11.066
v 25.821 20.308 11.066
v 25.494 19.930 11.066
v 31.167 15.025 0.000
v 31.494 15.403 0.000
v 31.872 15.076 0.000
v 31.545 14.697 0.000
v 31.167 15.025 11.780
v 31.494 15.403 11.780
v 31.872 15.076 11.780
v 31.545 14.697 11.780
v 35.580 32.360 0.000
v 35.907 32.738 0.000
v 36.285 32.411 0.000
v 35.958 32.033 0.000
v 35.580 32.360 11.146
v 35.907 32.738 11.146
v 36.285 32.411 11.146
v 35.958 32.033 11.146
v 41.632 27.128 0.000
v 41.959 27.506 0.000
v 42.337 27.179 0.000
v 42.010 26.801 0.000
v 41.632 27.128 11.860
v 41.959 27.506 11.860
v 42.337 27.179 11.860
v 42.010 26.801 11.860
v 45.881 44.274 0.000
v 46.208 44.653 0.000
v 46.587 44.326 0.000
v 46.259 43.947 0.000
v 45.881 44.274 11.224
v 46.208 44.653 11.224
v 46.587 44.326 11.224
v 46.259 43.947 11.224
v 51.933 39.042 0.000
v 52.260 39.420 0.000
v 52.638 39.093 0.000
v 52.311 38.715 0.000
v 51.933 39.042 11.939
v 52.260 39.420 11.939
v 52.638 39.093 11.939
v 52.311 38.715 11.939
v -37.785 -31.776 0.000
v -36.804 -30.641 0.000
v -35.669 -31.622 0.000
v -36.650 -32.757 0.000
v -37.785 -31.776 3.000
v -36.804 -30.641 3.000
v -35.669 -31.622 3.000
v -36.650 -32.757 3.000
v -27.119 -40.998 0.000
v -26.138 -39.863 0.000
v -25.003 -40.844 0.000
v -25.984 -41.979 0.000
v -27.119 -40.998 3.000
v -26.138 -39.863 3.000
v -25.003 -40.844 3.000
v -25.984 -41.979 3.000
v -16.856 -7.569 0.000
v -15.875 -6.434 0.000
v -14.740 -7.416 0.000
v -15.721 -8.550 0.000
v -16.856 -7.569 3.000
v -15.875 -6.434 3.000
v -14.740 -7.416 3.000
v -15.721 -8.550 3.000
v -6.189 -16.791 0.000
v -5.208 -15.656 0.000
v -4.074 -16.638 0.000
v -5.055 -17.772 0.000
v -6.189 -16.791 3.000
v -5.208 -15.656 3.000
v -4.074 -16.638 3.000
v -5.055 -17.772 3.000
v 4.074 16.638 0.000
v 5.055 17.772 0.000
v 6.189 16.791 0.000
v 5.208 15.656 0.000
v 4.074 16.638 3.000
v 5.055 17.772 3.000
v 6.189 16.791 3.000
v 5.208 15.656 3.000
v 14.740 7.416 0.000
v 15.721 8.550 0.000
v 16.856 7.569 0.000
v 15.875 6.434 0.000
v 14.740 7.416 3.000
v 15.721 8.550 3.000
v 16.856 7.569 3.000
v 15.875 6.434 3.000
v 25.003 40.844 0.000
v 25.984 41.979 0.000
v 27.119 40.998 0.000
v 26.138 39.863 0.000
v 25.003 40.844 3.000
v 25.984 41.979 3.000
v 27.119 40.998 3.000
v 26.138 39.863 3.000
v 35.669 31.622 0.000
v 36.650 32.757 0.000
v 37.785 31.776 0.000
v 36.804 30.641 0.000
v 35.669 31.622 3.000
v 36.650 32.757 3.000
v 37.785 31.776 3.000
v 36.804 30.641 3.000
v -53.757 -40.770 11.290
v 32.576 59.083 11.950
v 43.167 49.926 10.700
v -43.167 -49.926 10.040
v -43.167 -49.926 10.040
v 43.167 49.926 10.700
v 53.757 40.770 11.950
v -32.576 -59.083 11.290
v -53.757 -40.770 11.540
v 32.576 59.083 12.200
v 43.167 49.926 10.950
v -43.167 -49.926 10.290
v -43.167 -49.926 10.290
v 43.167 49.926 10.950
v 53.757 40.770 12.200
v -32.576 -59.083 11.540
v -43.621 -49.534 9.440
v 42.713 50.319 9.440
v 43.621 49.534 9.440
v -42.713 -50.319 9.440
v -43.621 -49.534 10.040
v 42.713 50.319 10.040
v 43.621 49.534 10.040
v -42.713 -50.319 10.040
v -46.437 -53.709 0.000
v -45.743 -54.489 0.000
v -45.743 -54.489 2.000
v -46.437 -53.709 2.000
v -45.950 -54.629 0.000
v -46.600 -53.898 0.000
v -46.600 -53.898 2.000
v -45.950 -54.629 2.000
v -46.600 -53.898 2.000
v -46.437 -53.709 2.000
v -45.743 -54.489 2.000
v -45.950 -54.629 2.000
v -45.743 -54.489 0.000
v -45.275 -55.422 0.000
v -45.275 -55.422 2.000
v -45.743 -54.489 2.000
v -45.511 -55.504 0.000
v -45.950 -54.629 0.000
v -45.950 -54.629 2.000
v -45.511 -55.504 2.000
v -45.950 -54.629 2.000
v -45.743 -54.489 2.000
v -45.275 -55.422 2.000
v -45.511 -55.504 2.000
v -45.275 -55.422 0.000
v -45.064 -56.445 0.000
v -45.064 -56.445 2.000
v -45.275 -55.422 2.000
v -45.313 -56.463 0.000
v -45.511 -55.504 0.000
v -45.511 -55.504 2.000
v -45.313 -56.463 2.000
v -45.511 -55.504 2.000
v -45.275 -55.422 2.000
v -45.064 -56.445 2.000
v -45.313 -56.463 2.000
v -45.064 -56.445 0.000
v -45.125 -57.487 0.000
v -45.125 -57.487 2.000
v -45.064 -56.445 2.000
v -45.370 -57.440 0.000
v -45.313 -56.463 0.000
v -45.313 -56.463 2.000
v -45.370 -57.440 2.000
v -45.313 -56.463 2.000
v -45.064 -56.445 2.000
v -45.125 -57.487 2.000
v -45.370 -57.440 2.000
v -45.125 -57.487 0.000
v -45.453 -58.478 0.000
v -45.453 -58.478 2.000
v -45.125 -57.487 2.000
v -45.678 -58.369 0.000
v -45.370 -57.440 0.000
v -45.370 -57.440 2.000
v -45.678 -58.369 2.000
v -45.370 -57.440 2.000
v -45.125 -57.487 2.000
v -45.453 -58.478 2.000
v -45.678 -58.369 2.000
v -45.453 -58.478 0.000
v -46.027 -59.351 0.000
v -46.027 -59.351 2.000
v -45.453 -58.478 2.000
v -46.216 -59.187 0.000
v -45.678 -58.369 0.000
v -45.678 -58.369 2.000
v -46.216 -59.187 2.000
v -45.678 -58.369 2.000
v -45.453 -58.478 2.000
v -46.027 -59.351 2.000
v -46.216 -59.187 2.000
v -46.027 -59.351 0.000
v -46.807 -60.045 0.000
v -46.807 -60.045 2.000
v -46.027 -59.351 2.000
v -46.948 -59.838 0.000
v -46.216 -59.187 0.000
v -46.216 -59.187 2.000
v -46.948 -59.838 2.000
v -46.216 -59.187 2.000
v -46.027 -59.351 2.000
v -46.807 -60.045 2.000
v -46.948 -59.838 2.000
v -46.807 -60.045 0.000
v -47.741 -60.513 0.000
v -47.741 -60.513 2.000
v -46.807 -60.045 2.000
v -47.823 -60.277 0.000
v -46.948 -59.838 0.000
v -46.948 -59.838 2.000
v -47.823 -60.277 2.000
v -46.948 -59.838 2.000
v -46.807 -60.045 2.000
v -47.741 -60.513 2.000
v -47.823 -60.277 2.000
v -47.741 -60.513 0.000
v -48.763 -60.724 0.000
v -48.763 -60.724 2.000
v -47.741 -60.513 2.000
v -48.782 -60.475 0.000
v -47.823 -60.277 0.000
v -47.823 -60.277 2.000
v -48.782 -60.475 2.000
v -47.823 -60.277 2.000
v -47.741 -60.513 2.000
v -48.763 -60.724 2.000
v -48.782 -60.475 2.000
v -48.763 -60.724 0.000
v -49.806 -60.663 0.000
v -49.806 -60.663 2.000
v -48.763 -60.724 2.000
v -49.759 -60.417 0.000
v -48.782 -60.475 0.000
v -48.782 -60.475 2.000
v -49.759 -60.417 2.000
v -48.782 -60.475 2.000
v -48.763 -60.724 2.000
v -49.806 -60.663 2.000
v -49.759 -60.417 2.000
v -49.806 -60.663 0.000
v -50.797 -60.334 0.000
v -50.797 -60.334 2.000
v -49.806 -60.663 2.000
v -50.688 -60.109 0.000
v -49.759 -60.417 0.000
v -49.759 -60.417 2.000
v -50.688 -60.109 2.000
v -49.759 -60.417 2.000
v -49.806 -60.663 2.000
v -50.797 -60.334 2.000
v -50.688 -60.109 2.000
v -50.797 -60.334 0.000
v -51.669 -59.760 0.000
v -51.669 -59.760 2.000
v -50.797 -60.334 2.000
v -51.506 -59.571 0.000
v -50.688 -60.109 0.000
v -50.688 -60.109 2.000
v -51.506 -59.571 2.000
v -50.688 -60.109 2.000
v -50.797 -60.334 2.000
v -51.669 -59.760 2.000
v -51.506 -59.571 2.000
v -51.669 -59.760 0.000
v -52.363 -58.980 0.000
v -52.363 -58.980 2.000
v -51.669 -59.760 2.000
v -52.156 -58.840 0.000
v -51.506 -59.571 0.000
v -51.506 -59.571 2.000
v -52.156 -58.840 2.000
v -51.506 -59.571 2.000
v -51.669 -59.760 2.000
v -52.363 -58.980 2.000
v -52.156 -58.840 2.000
v -52.363 -58.980 0.000
v -52.832 -58.047 0.000
v -52.832 -58.047 2.000
v -52.363 -58.980 2.000
v -52.596 -57.965 0.000
v -52.156 -58.840 0.000
v -52.156 -58.840 2.000
v -52.596 -57.965 2.000
v -52.156 -58.840 2.000
v -52.363 -58.980 2.000
v -52.832 -58.047 2.000
v -52.596 -57.965 2.000
v -52.832 -58.047 0.000
v -53.043 -57.024 0.000
v -53.043 -57.024 2.000
v -52.832 -58.047 2.000
v -52.793 -57.006 0.000
v -52.596 -57.965 0.000
v -52.596 -57.965 2.000
v -52.793 -57.006 2.000
v -52.596 -57.965 2.000
v -52.832 -58.047 2.000
v -53.043 -57.024 2.000
v -52.793 -57.006 2.000
v -53.043 -57.024 0.000
v -52.982 -55.982 0.000
v -52.982 -55.982 2.000
v -53.043 -57.024 2.000
v -52.736 -56.029 0.000
v -52.793 -57.006 0.000
v -52.793 -57.006 2.000
v -52.736 -56.029 2.000
v -52.793 -57.006 2.000
v -53.043 -57.024 2.000
v -52.982 -55.982 2.000
v -52.736 -56.029 2.000
v -52.982 -55.982 0.000
v -52.653 -54.991 0.000
v -52.653 -54.991 2.000
v -52.982 -55.982 2.000
v -52.428 -55.100 0.000
v -52.736 -56.029 0.000
v -52.736 -56.029 2.000
v -52.428 -55.100 2.000
v -52.736 -56.029 2.000
v -52.982 -55.982 2.000
v -52.653 -54.991 2.000
v -52.428 -55.100 2.000
v -52.653 -54.991 0.000
v -52.079 -54.118 0.000
v -52.079 -54.118 2.000
v -52.653 -54.991 2.000
v -51.890 -54.282 0.000
v -52.428 -55.100 0.000
v -52.428 -55.100 2.000
v -51.890 -54.282 2.000
v -52.428 -55.100 2.000
v -52.653 -54.991 2.000
v -52.079 -54.118 2.000
v -51.890 -54.282 2.000
v -52.079 -54.118 0.000
v -51.299 -53.424 0.000
v -51.299 -53.424 2.000
v -52.079 -54.118 2.000
v -51.158 -53.631 0.000
v -51.890 -54.282 0.000
v -51.890 -54.282 2.000
v -51.158 -53.631 2.000
v -51.890 -54.282 2.000
v -52.079 -54.118 2.000
v -51.299 -53.424 2.000
v -51.158 -53.631 2.000
v -51.299 -53.424 0.000
v -50.365 -52.956 0.000
v -50.365 -52.956 2.000
v -51.299 -53.424 2.000
v -50.283 -53.192 0.000
v -51.158 -53.631 0.000
v -51.158 -53.631 2.000
v -50.283 -53.192 2.000
v -51.158 -53.631 2.000
v -51.299 -53.424 2.000
v -50.365 -52.956 2.000
v -50.283 -53.192 2.000
v -50.365 -52.956 0.000
v -49.343 -52.745 0.000
v -49.343 -52.745 2.000
v -50.365 -52.956 2.000
v -49.325 -52.994 0.000
v -50.283 -53.192 0.000
v -50.283 -53.192 2.000
v -49.325 -52.994 2.000
v -50.283 -53.192 2.000
v -50.365 -52.956 2.000
v -49.343 -52.745 2.000
v -49.325 -52.994 2.000
v -49.343 -52.745 0.000
v -48.300 -52.806 0.000
v -48.300 -52.806 2.000
v -49.343 -52.745 2.000
v -48.347 -53.051 0.000
v -49.325 -52.994 0.000
v -49.325 -52.994 2.000
v -48.347 -53.051 2.000
v -49.325 -52.994 2.000
v -49.343 -52.745 2.000
v -48.300 -52.806 2.000
v -48.347 -53.051 2.000
v -48.300 -52.806 0.000
v -47.309 -53.135 0.000
v -47.309 -53.135 2.000
v -48.300 -52.806 2.000
v -47.418 -53.360 0.000
v -48.347 -53.051 0.000
v -48.347 -53.051 2.000
v -47.418 -53.360 2.000
v -48.347 -53.051 2.000
v -48.300 -52.806 2.000
v -47.309 -53.135 2.000
v -47.418 -53.360 2.000
v -47.309 -53.135 0.000
v -46.437 -53.709 0.000
v -46.437 -53.709 2.000
v -47.309 -53.135 2.000
v -46.600 -53.898 0.000
v -47.418 -53.360 0.000
v -47.418 -53.360 2.000
v -46.600 -53.898 2.000
v -47.418 -53.360 2.000
v -47.309 -53.135 2.000
v -46.437 -53.709 2.000
v -46.600 -53.898 2.000
v -46.600 -53.898 1.500
v -45.950 -54.629 1.500
v -45.511 -55.504 1.500
v -45.313 -56.463 1.500
v -45.370 -57.440 1.500
v -45.678 -58.369 1.500
v -46.216 -59.187 1.500
v -46.948 -59.838 1.500
v -47.823 -60.277 1.500
v -48.782 -60.475 1.500
v -49.759 -60.417 1.500
v -50.688 -60.109 1.500
v -51.506 -59.571 1.500
v -52.156 -58.840 1.500
v -52.596 -57.965 1.500
v -52.793 -57.006 1.500
v -52.736 -56.029 1.500
v -52.428 -55.100 1.500
v -51.890 -54.282 1.500
v -51.158 -53.631 1.500
v -50.283 -53.192 1.500
v -49.325 -52.994 1.500
v -48.347 -53.051 1.500
v -47.418 -53.360 1.500
v -48.199 -54.829 9.400
v -43.621 -49.534 9.400
v -42.713 -50.319 9.400
v -47.291 -55.614 9.400
v -48.199 -54.829 9.940
v -43.621 -49.534 9.940
v -42.713 -50.319 9.940
v -47.291 -55.614 9.940
f 1 4 3 2
f 5 6 7 8
f 1 2 6 5
f 2 3 7 6
f 3 4 8 7
f 4 1 5 8
f 9 12 11 10
f 13 14 15 16
f 9 10 14 13
f 10 11 15 14
f 11 12 16 15
f 12 9 13 16
f 17 20 19 18
f 21 22 23 24
f 17 18 22 21
f 18 19 23 22
f 19 20 24 23
f 20 17 21 24
f 25 28 27 26
f 29 30 31 32
f 25 26 30 29
f 26 27 31 30
f 27 28 32 31
f 28 25 29 32
f 33 36 35 34
f 37 38 39 40
f 33 34 38 37
f 34 35 39 38
f 35 36 40 39
f 36 33 37 40
f 41 44 43 42
f 45 46 47 48
f 41 42 46 45
f 42 43 47 46
f 43 44 48 47
f 44 41 45 48
f 49 52 51 50
f 53 54 55 56
f 49 50 54 53
f 50 51 55 54
f 51 52 56 55
f 52 49 53 56
f 57 60 59 58
f 61 62 63 64
f 57 58 62 61
f 58 59 63 62
f 59 60 64 63
f 60 57 61 64
f 65 68 67 66
f 69 70 71 72
f 65 66 70 69
f 66 67 71 70
f 67 68 72 71
f 68 65 69 72
f 73 76 75 74
f 77 78 79 80
f 73 74 78 77
f 74 75 79 78
f 75 76 80 79
f 76 73 77 80
f 81 84 83 82
f 85 86 87 88
f 81 82 86 85
f 82 83 87 86
f 83 84 88 87
f 84 81 85 88
f 89 92 91 90
f 93 94 95 96
f 89 90 94 93
f 90 91 95 94
f 91 92 96 95
f 92 89 93 96
f 97 100 99 98
f 101 102 103 104
f 97 98 102 101
f 98 99 103 102
f 99 100 104 103
f 100 97 101 104
f 105 108 107 106
f 109 110 111 112
f 105 106 110 109
f 106 107 111 110
f 107 108 112 111
f 108 105 109 112
f 113 116 115 114
f 117 118 119 120
f 113 114 118 117
f 114 115 119 118
f 115 116 120 119
f 116 113 117 120
f 121 124 123 122
f 125 126 127 128
f 121 122 126 125
f 122 123 127 126
f 123 124 128 127
f 124 121 125 128
f 129 132 131 130
f 133 134 135 136
f 129 130 134 133
f 130 131 135 134
f 131 132 136 135
f 132 129 133 136
f 137 140 139 138
f 141 142 143 144
f 137 138 142 141
f 138 139 143 142
f 139 140 144 143
f 140 137 141 144
f 145 148 147 146
f 149 150 151 152
f 145 146 150 149
f 146 147 151 150
f 147 148 152 151
f 148 145 149 152
f 153 156 155 154
f 157 158 159 160
f 153 154 158 157
f 154 155 159 158
f 155 156 160 159
f 156 153 157 160
f 161 164 163 162
f 165 166 167 168
f 161 162 166 165
f 162 163 167 166
f 163 164 168 167
f 164 161 165 168
f 169 172 171 170
f 173 174 175 176
f 169 170 174 173
f 170 171 175 174
f 171 172 176 175
f 172 169 173 176
f 177 180 179 178
f 181 182 183 184
f 177 178 182 181
f 178 179 183 182
f 179 180 184 183
f 180 177 181 184
f 185 188 187 186
f 189 190 191 192
f 185 186 190 189
f 186 187 191 190
f 187 188 192 191
f 188 185 189 192
f 193 196 195 194
f 197 198 199 200
f 193 194 198 197
f 194 195 199 198
f 195 196 200 199
f 196 193 197 200
f 201 204 203 202
f 205 206 207 208
f 201 202 206 205
f 202 203 207 206
f 203 204 208 207
f 204 201 205 208
f 209 212 211 210
f 213 214 215 216
f 209 210 214 213
f 210 211 215 214
f 211 212 216 215
f 212 209 213 216
f 217 220 219 218
f 221 222 223 224
f 217 218 222 221
f 218 219 223 222
f 219 220 224 223
f 220 217 221 224
f 225 228 227 226
f 229 230 231 232
f 225 226 230 229
f 226 227 231 230
f 227 228 232 231
f 228 225 229 232
f 233 236 235 234
f 237 238 239 240
f 233 234 238 237
f 234 235 239 238
f 235 236 240 239
f 236 233 237 240
f 241 244 243 242
f 245 246 247 248
f 241 242 246 245
f 242 243 247 246
f 243 244 248 247
f 244 241 245 248
f 249 252 251 250
f 253 254 255 256
f 249 250 254 253
f 250 251 255 254
f 251 252 256 255
f 252 249 253 256
f 257 260 259 258
f 261 262 263 264
f 257 258 262 261
f 258 259 263 262
f 259 260 264 263
f 260 257 261 264
f 265 268 267 266
f 269 270 271 272
f 265 266 270 269
f 266 267 271 270
f 267 268 272 271
f 268 265 269 272
f 273 276 275 274
f 277 278 279 280
f 273 274 278 277
f 274 275 279 278
f 275 276 280 279
f 276 273 277 280
f 281 284 283 282
f 285 286 287 288
f 281 282 286 285
f 282 283 287 286
f 283 284 288 287
f 284 281 285 288
f 289 292 291 290
f 293 294 295 296
f 289 290 294 293
f 290 291 295 294
f 291 292 296 295
f 292 289 293 296
f 297 300 299 298
f 301 302 303 304
f 297 298 302 301
f 298 299 303 302
f 299 300 304 303
f 300 297 301 304
f 305 308 307 306
f 309 310 311 312
f 305 306 310 309
f 306 307 311 310
f 307 308 312 311
f 308 305 309 312
f 313 316 315 314
f 317 318 319 320
f 313 314 318 317
f 314 315 319 318
f 315 316 320 319
f 316 313 317 320
f 321 324 323 322
f 325 326 327 328
f 321 322 326 325
f 322 323 327 326
f 323 324 328 327
f 324 321 325 328
f 329 332 331 330
f 333 334 335 336
f 329 330 334 333
f 330 331 335 334
f 331 332 336 335
f 332 329 333 336
f 337 340 339 338
f 341 342 343 344
f 337 338 342 341
f 338 339 343 342
f 339 340 344 343
f 340 337 341 344
f 345 348 347 346
f 349 350 351 352
f 345 346 350 349
f 346 347 351 350
f 347 348 352 351
f 348 345 349 352
f 353 356 355 354
f 357 358 359 360
f 353 354 358 357
f 354 355 359 358
f 355 356 360 359
f 356 353 357 360
f 361 364 363 362
f 365 366 367 368
f 361 362 366 365
f 362 363 367 366
f 363 364 368 367
f 364 361 365 368
f 369 372 371 370
f 373 374 375 376
f 369 370 374 373
f 370 371 375 374
f 371 372 376 375
f 372 369 373 376
f 377 380 379 378
f 381 382 383 384
f 377 378 382 381
f 378 379 383 382
f 379 380 384 383
f 380 377 381 384
f 385 388 387 386
f 389 390 391 392
f 385 386 390 389
f 386 387 391 390
f 387 388 392 391
f 388 385 389 392
f 393 396 395 394
f 397 398 399 400
f 393 394 398 397
f 394 395 399 398
f 395 396 400 399
f 396 393 397 400
f 401 404 403 402
f 405 406 407 408
f 401 402 406 405
f 402 403 407 406
f 403 404 408 407
f 404 401 405 408
f 409 412 411 410
f 413 414 415 416
f 409 410 414 413
f 410 411 415 414
f 411 412 416 415
f 412 409 413 416
f 417 420 419 418
f 421 422 423 424
f 417 418 422 421
f 418 419 423 422
f 419 420 424 423
f 420 417 421 424
f 425 428 427 426
f 429 430 431 432
f 425 426 430 429
f 426 427 431 430
f 427 428 432 431
f 428 425 429 432
f 433 436 435 434
f 437 438 439 440
f 433 434 438 437
f 434 435 439 438
f 435 436 440 439
f 436 433 437 440
f 441 444 443 442
f 445 446 447 448
f 441 442 446 445
f 442 443 447 446
f 443 444 448 447
f 444 441 445 448
f 449 452 451 450
f 453 454 455 456
f 449 450 454 453
f 450 451 455 454
f 451 452 456 455
f 452 449 453 456
f 457 460 459 458
f 461 462 463 464
f 457 458 462 461
f 458 459 463 462
f 459 460 464 463
f 460 457 461 464
f 465 468 467 466
f 469 470 471 472
f 465 466 470 469
f 466 467 471 470
f 467 468 472 471
f 468 465 469 472
f 473 476 475 474
f 477 478 479 480
f 473 474 478 477
f 474 475 479 478
f 475 476 480 479
f 476 473 477 480
f 481 484 483 482
f 485 486 487 488
f 481 482 486 485
f 482 483 487 486
f 483 484 488 487
f 484 481 485 488
f 489 492 491 490
f 493 494 495 496
f 489 490 494 493
f 490 491 495 494
f 491 492 496 495
f 492 489 493 496
f 497 500 499 498
f 501 502 503 504
f 497 498 502 501
f 498 499 503 502
f 499 500 504 503
f 500 497 501 504
f 505 508 507 506
f 509 510 511 512
f 505 506 510 509
f 506 507 511 510
f 507 508 512 511
f 508 505 509 512
f 513 516 515 514
f 517 518 519 520
f 513 514 518 517
f 514 515 519 518
f 515 516 520 519
f 516 513 517 520
f 521 524 523 522
f 525 526 527 528
f 521 522 526 525
f 522 523 527 526
f 523 524 528 527
f 524 521 525 528
f 529 530 531 532
f 533 534 535 536
f 537 538 539 540
f 541 542 543 544
f 545 548 547 546
f 549 550 551 552
f 545 546 550 549
f 546 547 551 550
f 547 548 552 551
f 548 545 549 552
f 553 554 555 556
f 557 558 559 560
f 561 562 563 564
f 565 566 567 568
f 569 570 571 572
f 573 574 575 576
f 577 578 579 580
f 581 582 583 584
f 585 586 587 588
f 589 590 591 592
f 593 594 595 596
f 597 598 599 600
f 601 602 603 604
f 605 606 607 608
f 609 610 611 612
f 613 614 615 616
f 617 618 619 620
f 621 622 623 624
f 625 626 627 628
f 629 630 631 632
f 633 634 635 636
f 637 638 639 640
f 641 642 643 644
f 645 646 647 648
f 649 650 651 652
f 653 654 655 656
f 657 658 659 660
f 661 662 663 664
f 665 666 667 668
f 669 670 671 672
f 673 674 675 676
f 677 678 679 680
f 681 682 683 684
f 685 686 687 688
f 689 690 691 692
f 693 694 695 696
f 697 698 699 700
f 701 702 703 704
f 705 706 707 708
f 709 710 711 712
f 713 714 715 716
f 717 718 719 720
f 721 722 723 724
f 725 726 727 728
f 729 730 731 732
f 733 734 735 736
f 737 738 739 740
f 741 742 743 744
f 745 746 747 748
f 749 750 751 752
f 753 754 755 756
f 757 758 759 760
f 761 762 763 764
f 765 766 767 768
f 769 770 771 772
f 773 774 775 776
f 777 778 779 780
f 781 782 783 784
f 785 786 787 788
f 789 790 791 792
f 793 794 795 796
f 797 798 799 800
f 801 802 803 804
f 805 806 807 808
f 809 810 811 812
f 813 814 815 816
f 817 818 819 820
f 821 822 823 824
f 825 826 827 828
f 829 830 831 832
f 833 834 835 836
f 837 838 839 840
f 841 842 843 844 845 846 847 848 849 850 851 852 853 854 855 856 857 858 859 860 861 862 863 864
f 865 868 867 866
f 869 870 871 872
f 865 866 870 869
f 866 867 871 870
f 867 868 872 871
f 868 865 869 872
