# covered stalls: 8 stalls + alfalfa bay, 16 x 20 ft, 4 a side, 12 ft corridor, roof 36 ft wide (12 ft over each stall front), butterfly: valley over the corridor 10.7 ft at the NE end falling 0.5 % to 10.2 ft at the SW end, outer eaves 1.5 ft higher; the valley pours down an open chute into a low round rock trough 8 ft across, 1.75 ft tall, 1.1 ft stone wall with 5 iron tie rings, 6 ft from the SW end, 10 ft clear on its open sides, chute cantilevered 8 ft, no post; 4 waterers (one per pair) on a 6 ft level strip at the stall fronts; alfalfa bay 24 ft long at the NE end, the corridor running through it, hay stored either side
# geo 31.9998023 -116.7635765
# unit ft
# name covered stalls
v -33.538 -29.287 0.000
v -33.420 -29.151 0.000
v -33.284 -29.269 0.000
v -33.402 -29.405 0.000
v -33.538 -29.287 5.000
v -33.420 -29.151 5.000
v -33.284 -29.269 5.000
v -33.402 -29.405 5.000
v -28.306 -23.236 0.000
v -28.188 -23.100 0.000
v -28.052 -23.217 0.000
v -28.170 -23.353 0.000
v -28.306 -23.236 5.000
v -28.188 -23.100 5.000
v -28.052 -23.217 5.000
v -28.170 -23.353 5.000
v -23.073 -17.184 0.000
v -22.956 -17.048 0.000
v -22.820 -17.166 0.000
v -22.937 -17.302 0.000
v -23.073 -17.184 5.000
v -22.956 -17.048 5.000
v -22.820 -17.166 5.000
v -22.937 -17.302 5.000
v -17.841 -11.132 0.000
v -17.723 -10.996 0.000
v -17.587 -11.114 0.000
v -17.705 -11.250 0.000
v -17.841 -11.132 5.000
v -17.723 -10.996 5.000
v -17.587 -11.114 5.000
v -17.705 -11.250 5.000
v -12.609 -5.081 0.000
v -12.491 -4.945 0.000
v -12.355 -5.062 0.000
v -12.473 -5.198 0.000
v -12.609 -5.081 5.000
v -12.491 -4.945 5.000
v -12.355 -5.062 5.000
v -12.473 -5.198 5.000
v -7.376 0.971 0.000
v -7.259 1.107 0.000
v -7.123 0.989 0.000
v -7.240 0.853 0.000
v -7.376 0.971 5.000
v -7.259 1.107 5.000
v -7.123 0.989 5.000
v -7.240 0.853 5.000
v -2.144 7.023 0.000
v -2.026 7.159 0.000
v -1.890 7.041 0.000
v -2.008 6.905 0.000
v -2.144 7.023 5.000
v -2.026 7.159 5.000
v -1.890 7.041 5.000
v -2.008 6.905 5.000
v 3.088 13.074 0.000
v 3.206 13.210 0.000
v 3.342 13.093 0.000
v 3.224 12.957 0.000
v 3.088 13.074 5.000
v 3.206 13.210 5.000
v 3.342 13.093 5.000
v 3.224 12.957 5.000
v 8.321 19.126 0.000
v 8.438 19.262 0.000
v 8.574 19.144 0.000
v 8.457 19.008 0.000
v 8.321 19.126 5.000
v 8.438 19.262 5.000
v 8.574 19.144 5.000
v 8.457 19.008 5.000
v -33.464 -29.232 1.200
v 8.395 19.181 1.200
v 8.500 19.089 1.200
v -33.358 -29.324 1.200
v -33.464 -29.232 1.340
v 8.395 19.181 1.340
v 8.500 19.089 1.340
v -33.358 -29.324 1.340
v -33.464 -29.232 2.400
v 8.395 19.181 2.400
v 8.500 19.089 2.400
v -33.358 -29.324 2.400
v -33.464 -29.232 2.540
v 8.395 19.181 2.540
v 8.500 19.089 2.540
v -33.358 -29.324 2.540
v -33.464 -29.232 3.600
v 8.395 19.181 3.600
v 8.500 19.089 3.600
v -33.358 -29.324 3.600
v -33.464 -29.232 3.740
v 8.395 19.181 3.740
v 8.500 19.089 3.740
v -33.358 -29.324 3.740
v -33.464 -29.232 4.850
v 8.395 19.181 4.850
v 8.500 19.089 4.850
v -33.358 -29.324 4.850
v -33.464 -29.232 4.990
v 8.395 19.181 4.990
v 8.500 19.089 4.990
v -33.358 -29.324 4.990
v -48.478 -16.370 0.000
v -48.360 -16.234 0.000
v -48.224 -16.352 0.000
v -48.342 -16.488 0.000
v -48.478 -16.370 5.000
v -48.360 -16.234 5.000
v -48.224 -16.352 5.000
v -48.342 -16.488 5.000
v -43.246 -10.318 0.000
v -43.128 -10.182 0.000
v -42.992 -10.300 0.000
v -43.110 -10.436 0.000
v -43.246 -10.318 5.000
v -43.128 -10.182 5.000
v -42.992 -10.300 5.000
v -43.110 -10.436 5.000
v -38.013 -4.267 0.000
v -37.896 -4.131 0.000
v -37.760 -4.248 0.000
v -37.877 -4.384 0.000
v -38.013 -4.267 5.000
v -37.896 -4.131 5.000
v -37.760 -4.248 5.000
v -37.877 -4.384 5.000
v -32.781 1.785 0.000
v -32.663 1.921 0.000
v -32.527 1.803 0.000
v -32.645 1.667 0.000
v -32.781 1.785 5.000
v -32.663 1.921 5.000
v -32.527 1.803 5.000
v -32.645 1.667 5.000
v -27.549 7.837 0.000
v -27.431 7.973 0.000
v -27.295 7.855 0.000
v -27.413 7.719 0.000
v -27.549 7.837 5.000
v -27.431 7.973 5.000
v -27.295 7.855 5.000
v -27.413 7.719 5.000
v -22.316 13.888 0.000
v -22.199 14.024 0.000
v -22.063 13.907 0.000
v -22.180 13.771 0.000
v -22.316 13.888 5.000
v -22.199 14.024 5.000
v -22.063 13.907 5.000
v -22.180 13.771 5.000
v -17.084 19.940 0.000
v -16.966 20.076 0.000
v -16.830 19.958 0.000
v -16.948 19.822 0.000
v -17.084 19.940 5.000
v -16.966 20.076 5.000
v -16.830 19.958 5.000
v -16.948 19.822 5.000
v -11.852 25.992 0.000
v -11.734 26.128 0.000
v -11.598 26.010 0.000
v -11.716 25.874 0.000
v -11.852 25.992 5.000
v -11.734 26.128 5.000
v -11.598 26.010 5.000
v -11.716 25.874 5.000
v -6.619 32.043 0.000
v -6.502 32.179 0.000
v -6.366 32.062 0.000
v -6.483 31.926 0.000
v -6.619 32.043 5.000
v -6.502 32.179 5.000
v -6.366 32.062 5.000
v -6.483 31.926 5.000
v -48.404 -16.315 1.200
v -6.546 32.098 1.200
v -6.440 32.007 1.200
v -48.298 -16.407 1.200
v -48.404 -16.315 1.340
v -6.546 32.098 1.340
v -6.440 32.007 1.340
v -48.298 -16.407 1.340
v -48.404 -16.315 2.400
v -6.546 32.098 2.400
v -6.440 32.007 2.400
v -48.298 -16.407 2.400
v -48.404 -16.315 2.540
v -6.546 32.098 2.540
v -6.440 32.007 2.540
v -48.298 -16.407 2.540
v -48.404 -16.315 3.600
v -6.546 32.098 3.600
v -6.440 32.007 3.600
v -48.298 -16.407 3.600
v -48.404 -16.315 3.740
v -6.546 32.098 3.740
v -6.440 32.007 3.740
v -48.298 -16.407 3.740
v -48.404 -16.315 4.850
v -6.546 32.098 4.850
v -6.440 32.007 4.850
v -48.298 -16.407 4.850
v -48.404 -16.315 4.990
v -6.546 32.098 4.990
v -6.440 32.007 4.990
v -48.298 -16.407 4.990
v -48.573 -16.288 0.000
v -48.455 -16.152 0.000
v -48.319 -16.270 0.000
v -48.437 -16.406 0.000
v -48.573 -16.288 5.000
v -48.455 -16.152 5.000
v -48.319 -16.270 5.000
v -48.437 -16.406 5.000
v -41.008 -22.829 0.000
v -40.890 -22.693 0.000
v -40.754 -22.810 0.000
v -40.872 -22.946 0.000
v -41.008 -22.829 5.000
v -40.890 -22.693 5.000
v -40.754 -22.810 5.000
v -40.872 -22.946 5.000
v -33.444 -29.369 0.000
v -33.326 -29.233 0.000
v -33.190 -29.351 0.000
v -33.307 -29.487 0.000
v -33.444 -29.369 5.000
v -33.326 -29.233 5.000
v -33.190 -29.351 5.000
v -33.307 -29.487 5.000
v -48.492 -16.332 1.200
v -48.400 -16.226 1.200
v -33.271 -29.307 1.200
v -33.362 -29.413 1.200
v -48.492 -16.332 1.340
v -48.400 -16.226 1.340
v -33.271 -29.307 1.340
v -33.362 -29.413 1.340
v -48.492 -16.332 2.400
v -48.400 -16.226 2.400
v -33.271 -29.307 2.400
v -33.362 -29.413 2.400
v -48.492 -16.332 2.540
v -48.400 -16.226 2.540
v -33.271 -29.307 2.540
v -33.362 -29.413 2.540
v -48.492 -16.332 3.600
v -48.400 -16.226 3.600
v -33.271 -29.307 3.600
v -33.362 -29.413 3.600
v -48.492 -16.332 3.740
v -48.400 -16.226 3.740
v -33.271 -29.307 3.740
v -33.362 -29.413 3.740
v -48.492 -16.332 4.850
v -48.400 -16.226 4.850
v -33.271 -29.307 4.850
v -33.362 -29.413 4.850
v -48.492 -16.332 4.990
v -48.400 -16.226 4.990
v -33.271 -29.307 4.990
v -33.362 -29.413 4.990
v -38.108 -4.185 0.000
v -37.990 -4.049 0.000
v -37.854 -4.167 0.000
v -37.972 -4.303 0.000
v -38.108 -4.185 5.000
v -37.990 -4.049 5.000
v -37.854 -4.167 5.000
v -37.972 -4.303 5.000
v -30.543 -10.725 0.000
v -30.426 -10.589 0.000
v -30.290 -10.707 0.000
v -30.407 -10.843 0.000
v -30.543 -10.725 5.000
v -30.426 -10.589 5.000
v -30.290 -10.707 5.000
v -30.407 -10.843 5.000
v -22.979 -17.266 0.000
v -22.861 -17.130 0.000
v -22.725 -17.247 0.000
v -22.843 -17.384 0.000
v -22.979 -17.266 5.000
v -22.861 -17.130 5.000
v -22.725 -17.247 5.000
v -22.843 -17.384 5.000
v -38.027 -4.229 1.200
v -37.935 -4.123 1.200
v -22.806 -17.204 1.200
v -22.898 -17.310 1.200
v -38.027 -4.229 1.340
v -37.935 -4.123 1.340
v -22.806 -17.204 1.340
v -22.898 -17.310 1.340
v -38.027 -4.229 2.400
v -37.935 -4.123 2.400
v -22.806 -17.204 2.400
v -22.898 -17.310 2.400
v -38.027 -4.229 2.540
v -37.935 -4.123 2.540
v -22.806 -17.204 2.540
v -22.898 -17.310 2.540
v -38.027 -4.229 3.600
v -37.935 -4.123 3.600
v -22.806 -17.204 3.600
v -22.898 -17.310 3.600
v -38.027 -4.229 3.740
v -37.935 -4.123 3.740
v -22.806 -17.204 3.740
v -22.898 -17.310 3.740
v -38.027 -4.229 4.850
v -37.935 -4.123 4.850
v -22.806 -17.204 4.850
v -22.898 -17.310 4.850
v -38.027 -4.229 4.990
v -37.935 -4.123 4.990
v -22.806 -17.204 4.990
v -22.898 -17.310 4.990
v -27.643 7.918 0.000
v -27.526 8.055 0.000
v -27.389 7.937 0.000
v -27.507 7.801 0.000
v -27.643 7.918 5.000
v -27.526 8.055 5.000
v -27.389 7.937 5.000
v -27.507 7.801 5.000
v -20.079 1.378 0.000
v -19.961 1.514 0.000
v -19.825 1.396 0.000
v -19.943 1.260 0.000
v -20.079 1.378 5.000
v -19.961 1.514 5.000
v -19.825 1.396 5.000
v -19.943 1.260 5.000
v -12.514 -5.162 0.000
v -12.396 -5.026 0.000
v -12.260 -5.144 0.000
v -12.378 -5.280 0.000
v -12.514 -5.162 5.000
v -12.396 -5.026 5.000
v -12.260 -5.144 5.000
v -12.378 -5.280 5.000
v -27.562 7.875 1.200
v -27.471 7.981 1.200
v -12.341 -5.100 1.200
v -12.433 -5.206 1.200
v -27.562 7.875 1.340
v -27.471 7.981 1.340
v -12.341 -5.100 1.340
v -12.433 -5.206 1.340
v -27.562 7.875 2.400
v -27.471 7.981 2.400
v -12.341 -5.100 2.400
v -12.433 -5.206 2.400
v -27.562 7.875 2.540
v -27.471 7.981 2.540
v -12.341 -5.100 2.540
v -12.433 -5.206 2.540
v -27.562 7.875 3.600
v -27.471 7.981 3.600
v -12.341 -5.100 3.600
v -12.433 -5.206 3.600
v -27.562 7.875 3.740
v -27.471 7.981 3.740
v -12.341 -5.100 3.740
v -12.433 -5.206 3.740
v -27.562 7.875 4.850
v -27.471 7.981 4.850
v -12.341 -5.100 4.850
v -12.433 -5.206 4.850
v -27.562 7.875 4.990
v -27.471 7.981 4.990
v -12.341 -5.100 4.990
v -12.433 -5.206 4.990
v -17.179 20.022 0.000
v -17.061 20.158 0.000
v -16.925 20.040 0.000
v -17.043 19.904 0.000
v -17.179 20.022 5.000
v -17.061 20.158 5.000
v -16.925 20.040 5.000
v -17.043 19.904 5.000
v -9.614 13.481 0.000
v -9.496 13.617 0.000
v -9.360 13.500 0.000
v -9.478 13.364 0.000
v -9.614 13.481 5.000
v -9.496 13.617 5.000
v -9.360 13.500 5.000
v -9.478 13.364 5.000
v -2.050 6.941 0.000
v -1.932 7.077 0.000
v -1.796 6.959 0.000
v -1.913 6.823 0.000
v -2.050 6.941 5.000
v -1.932 7.077 5.000
v -1.796 6.959 5.000
v -1.913 6.823 5.000
v -17.098 19.978 1.200
v -17.006 20.084 1.200
v -1.877 7.003 1.200
v -1.968 6.897 1.200
v -17.098 19.978 1.340
v -17.006 20.084 1.340
v -1.877 7.003 1.340
v -1.968 6.897 1.340
v -17.098 19.978 2.400
v -17.006 20.084 2.400
v -1.877 7.003 2.400
v -1.968 6.897 2.400
v -17.098 19.978 2.540
v -17.006 20.084 2.540
v -1.877 7.003 2.540
v -1.968 6.897 2.540
v -17.098 19.978 3.600
v -17.006 20.084 3.600
v -1.877 7.003 3.600
v -1.968 6.897 3.600
v -17.098 19.978 3.740
v -17.006 20.084 3.740
v -1.877 7.003 3.740
v -1.968 6.897 3.740
v -17.098 19.978 4.850
v -17.006 20.084 4.850
v -1.877 7.003 4.850
v -1.968 6.897 4.850
v -17.098 19.978 4.990
v -17.006 20.084 4.990
v -1.877 7.003 4.990
v -1.968 6.897 4.990
v -6.714 32.125 0.000
v -6.596 32.261 0.000
v -6.460 32.143 0.000
v -6.578 32.007 0.000
v -6.714 32.125 5.000
v -6.596 32.261 5.000
v -6.460 32.143 5.000
v -6.578 32.007 5.000
v 0.851 25.585 0.000
v 0.968 25.721 0.000
v 1.104 25.603 0.000
v 0.987 25.467 0.000
v 0.851 25.585 5.000
v 0.968 25.721 5.000
v 1.104 25.603 5.000
v 0.987 25.467 5.000
v 8.415 19.044 0.000
v 8.533 19.180 0.000
v 8.669 19.063 0.000
v 8.551 18.926 0.000
v 8.415 19.044 5.000
v 8.533 19.180 5.000
v 8.669 19.063 5.000
v 8.551 18.926 5.000
v -6.633 32.081 1.200
v -6.541 32.187 1.200
v 8.588 19.106 1.200
v 8.496 19.000 1.200
v -6.633 32.081 1.340
v -6.541 32.187 1.340
v 8.588 19.106 1.340
v 8.496 19.000 1.340
v -6.633 32.081 2.400
v -6.541 32.187 2.400
v 8.588 19.106 2.400
v 8.496 19.000 2.400
v -6.633 32.081 2.540
v -6.541 32.187 2.540
v 8.588 19.106 2.540
v 8.496 19.000 2.540
v -6.633 32.081 3.600
v -6.541 32.187 3.600
v 8.588 19.106 3.600
v 8.496 19.000 3.600
v -6.633 32.081 3.740
v -6.541 32.187 3.740
v 8.588 19.106 3.740
v 8.496 19.000 3.740
v -6.633 32.081 4.850
v -6.541 32.187 4.850
v 8.588 19.106 4.850
v 8.496 19.000 4.850
v -6.633 32.081 4.990
v -6.541 32.187 4.990
v 8.588 19.106 4.990
v 8.496 19.000 4.990
v -33.506 -29.196 0.000
v -33.179 -28.818 0.000
v -32.800 -29.145 0.000
v -33.127 -29.523 0.000
v -33.506 -29.196 10.751
v -33.179 -28.818 10.751
v -32.800 -29.145 10.751
v -33.127 -29.523 10.751
v -42.583 -21.348 0.000
v -42.256 -20.970 0.000
v -41.878 -21.297 0.000
v -42.205 -21.675 0.000
v -42.583 -21.348 11.751
v -42.256 -20.970 11.751
v -41.878 -21.297 11.751
v -42.205 -21.675 11.751
v -23.205 -17.282 0.000
v -22.878 -16.904 0.000
v -22.499 -17.231 0.000
v -22.826 -17.609 0.000
v -23.205 -17.282 10.830
v -22.878 -16.904 10.830
v -22.499 -17.231 10.830
v -22.826 -17.609 10.830
v -32.282 -9.434 0.000
v -31.955 -9.055 0.000
v -31.577 -9.383 0.000
v -31.904 -9.761 0.000
v -32.282 -9.434 11.830
v -31.955 -9.055 11.830
v -31.577 -9.383 11.830
v -31.904 -9.761 11.830
v -12.740 -5.179 0.000
v -12.413 -4.801 0.000
v -12.035 -5.128 0.000
v -12.362 -5.506 0.000
v -12.740 -5.179 10.910
v -12.413 -4.801 10.910
v -12.035 -5.128 10.910
v -12.362 -5.506 10.910
v -21.817 2.670 0.000
v -21.490 3.048 0.000
v -21.112 2.721 0.000
v -21.439 2.343 0.000
v -21.817 2.670 11.910
v -21.490 3.048 11.910
v -21.112 2.721 11.910
v -21.439 2.343 11.910
v -2.275 6.924 0.000
v -1.948 7.303 0.000
v -1.570 6.976 0.000
v -1.897 6.597 0.000
v -2.275 6.924 10.990
v -1.948 7.303 10.990
v -1.570 6.976 10.990
v -1.897 6.597 10.990
v -11.353 14.773 0.000
v -11.026 15.151 0.000
v -10.647 14.824 0.000
v -10.974 14.446 0.000
v -11.353 14.773 11.990
v -11.026 15.151 11.990
v -10.647 14.824 11.990
v -10.974 14.446 11.990
v 8.189 19.028 0.000
v 8.516 19.406 0.000
v 8.895 19.079 0.000
v 8.568 18.701 0.000
v 8.189 19.028 11.070
v 8.516 19.406 11.070
v 8.895 19.079 11.070
v 8.568 18.701 11.070
v -0.888 26.876 0.000
v -0.561 27.255 0.000
v -0.183 26.928 0.000
v -0.510 26.549 0.000
v -0.888 26.876 12.070
v -0.561 27.255 12.070
v -0.183 26.928 12.070
v -0.510 26.549 12.070
v 16.038 28.105 0.000
v 16.365 28.484 0.000
v 16.743 28.157 0.000
v 16.416 27.778 0.000
v 16.038 28.105 11.130
v 16.365 28.484 11.130
v 16.743 28.157 11.130
v 16.416 27.778 11.130
v 6.960 35.954 0.000
v 7.287 36.332 0.000
v 7.666 36.005 0.000
v 7.339 35.627 0.000
v 6.960 35.954 12.130
v 7.287 36.332 12.130
v 7.666 36.005 12.130
v 7.339 35.627 12.130
v 23.723 36.994 0.000
v 24.050 37.372 0.000
v 24.428 37.045 0.000
v 24.101 36.667 0.000
v 23.723 36.994 11.189
v 24.050 37.372 11.189
v 24.428 37.045 11.189
v 24.101 36.667 11.189
v 14.645 44.842 0.000
v 14.972 45.220 0.000
v 15.351 44.893 0.000
v 15.024 44.515 0.000
v 14.645 44.842 12.189
v 14.972 45.220 12.189
v 15.351 44.893 12.189
v 15.024 44.515 12.189
v -24.271 -37.299 0.000
v -24.154 -37.163 0.000
v -24.018 -37.281 0.000
v -24.135 -37.417 0.000
v -24.271 -37.299 5.000
v -24.154 -37.163 5.000
v -24.018 -37.281 5.000
v -24.135 -37.417 5.000
v -19.039 -31.248 0.000
v -18.921 -31.112 0.000
v -18.785 -31.229 0.000
v -18.903 -31.365 0.000
v -19.039 -31.248 5.000
v -18.921 -31.112 5.000
v -18.785 -31.229 5.000
v -18.903 -31.365 5.000
v -13.807 -25.196 0.000
v -13.689 -25.060 0.000
v -13.553 -25.178 0.000
v -13.671 -25.314 0.000
v -13.807 -25.196 5.000
v -13.689 -25.060 5.000
v -13.553 -25.178 5.000
v -13.671 -25.314 5.000
v -8.574 -19.144 0.000
v -8.457 -19.008 0.000
v -8.321 -19.126 0.000
v -8.438 -19.262 0.000
v -8.574 -19.144 5.000
v -8.457 -19.008 5.000
v -8.321 -19.126 5.000
v -8.438 -19.262 5.000
v -3.342 -13.093 0.000
v -3.224 -12.957 0.000
v -3.088 -13.074 0.000
v -3.206 -13.210 0.000
v -3.342 -13.093 5.000
v -3.224 -12.957 5.000
v -3.088 -13.074 5.000
v -3.206 -13.210 5.000
v 1.890 -7.041 0.000
v 2.008 -6.905 0.000
v 2.144 -7.023 0.000
v 2.026 -7.159 0.000
v 1.890 -7.041 5.000
v 2.008 -6.905 5.000
v 2.144 -7.023 5.000
v 2.026 -7.159 5.000
v 7.123 -0.989 0.000
v 7.240 -0.853 0.000
v 7.376 -0.971 0.000
v 7.259 -1.107 0.000
v 7.123 -0.989 5.000
v 7.240 -0.853 5.000
v 7.376 -0.971 5.000
v 7.259 -1.107 5.000
v 12.355 5.062 0.000
v 12.473 5.198 0.000
v 12.609 5.081 0.000
v 12.491 4.945 0.000
v 12.355 5.062 5.000
v 12.473 5.198 5.000
v 12.609 5.081 5.000
v 12.491 4.945 5.000
v 17.587 11.114 0.000
v 17.705 11.250 0.000
v 17.841 11.132 0.000
v 17.723 10.996 0.000
v 17.587 11.114 5.000
v 17.705 11.250 5.000
v 17.841 11.132 5.000
v 17.723 10.996 5.000
v -24.197 -37.244 1.200
v 17.661 11.169 1.200
v 17.767 11.077 1.200
v -24.092 -37.336 1.200
v -24.197 -37.244 1.340
v 17.661 11.169 1.340
v 17.767 11.077 1.340
v -24.092 -37.336 1.340
v -24.197 -37.244 2.400
v 17.661 11.169 2.400
v 17.767 11.077 2.400
v -24.092 -37.336 2.400
v -24.197 -37.244 2.540
v 17.661 11.169 2.540
v 17.767 11.077 2.540
v -24.092 -37.336 2.540
v -24.197 -37.244 3.600
v 17.661 11.169 3.600
v 17.767 11.077 3.600
v -24.092 -37.336 3.600
v -24.197 -37.244 3.740
v 17.661 11.169 3.740
v 17.767 11.077 3.740
v -24.092 -37.336 3.740
v -24.197 -37.244 4.850
v 17.661 11.169 4.850
v 17.767 11.077 4.850
v -24.092 -37.336 4.850
v -24.197 -37.244 4.990
v 17.661 11.169 4.990
v 17.767 11.077 4.990
v -24.092 -37.336 4.990
v -9.331 -50.217 0.000
v -9.214 -50.081 0.000
v -9.077 -50.198 0.000
v -9.195 -50.334 0.000
v -9.331 -50.217 5.000
v -9.214 -50.081 5.000
v -9.077 -50.198 5.000
v -9.195 -50.334 5.000
v -4.099 -44.165 0.000
v -3.981 -44.029 0.000
v -3.845 -44.147 0.000
v -3.963 -44.283 0.000
v -4.099 -44.165 5.000
v -3.981 -44.029 5.000
v -3.845 -44.147 5.000
v -3.963 -44.283 5.000
v 1.133 -38.113 0.000
v 1.251 -37.977 0.000
v 1.387 -38.095 0.000
v 1.269 -38.231 0.000
v 1.133 -38.113 5.000
v 1.251 -37.977 5.000
v 1.387 -38.095 5.000
v 1.269 -38.231 5.000
v 6.366 -32.062 0.000
v 6.483 -31.926 0.000
v 6.619 -32.043 0.000
v 6.502 -32.179 0.000
v 6.366 -32.062 5.000
v 6.483 -31.926 5.000
v 6.619 -32.043 5.000
v 6.502 -32.179 5.000
v 11.598 -26.010 0.000
v 11.716 -25.874 0.000
v 11.852 -25.992 0.000
v 11.734 -26.128 0.000
v 11.598 -26.010 5.000
v 11.716 -25.874 5.000
v 11.852 -25.992 5.000
v 11.734 -26.128 5.000
v 16.830 -19.958 0.000
v 16.948 -19.822 0.000
v 17.084 -19.940 0.000
v 16.966 -20.076 0.000
v 16.830 -19.958 5.000
v 16.948 -19.822 5.000
v 17.084 -19.940 5.000
v 16.966 -20.076 5.000
v 22.063 -13.907 0.000
v 22.180 -13.771 0.000
v 22.316 -13.888 0.000
v 22.199 -14.024 0.000
v 22.063 -13.907 5.000
v 22.180 -13.771 5.000
v 22.316 -13.888 5.000
v 22.199 -14.024 5.000
v 27.295 -7.855 0.000
v 27.413 -7.719 0.000
v 27.549 -7.837 0.000
v 27.431 -7.973 0.000
v 27.295 -7.855 5.000
v 27.413 -7.719 5.000
v 27.549 -7.837 5.000
v 27.431 -7.973 5.000
v 32.527 -1.803 0.000
v 32.645 -1.667 0.000
v 32.781 -1.785 0.000
v 32.663 -1.921 0.000
v 32.527 -1.803 5.000
v 32.645 -1.667 5.000
v 32.781 -1.785 5.000
v 32.663 -1.921 5.000
v -9.257 -50.162 1.200
v 32.601 -1.748 1.200
v 32.707 -1.840 1.200
v -9.151 -50.253 1.200
v -9.257 -50.162 1.340
v 32.601 -1.748 1.340
v 32.707 -1.840 1.340
v -9.151 -50.253 1.340
v -9.257 -50.162 2.400
v 32.601 -1.748 2.400
v 32.707 -1.840 2.400
v -9.151 -50.253 2.400
v -9.257 -50.162 2.540
v 32.601 -1.748 2.540
v 32.707 -1.840 2.540
v -9.151 -50.253 2.540
v -9.257 -50.162 3.600
v 32.601 -1.748 3.600
v 32.707 -1.840 3.600
v -9.151 -50.253 3.600
v -9.257 -50.162 3.740
v 32.601 -1.748 3.740
v 32.707 -1.840 3.740
v -9.151 -50.253 3.740
v -9.257 -50.162 4.850
v 32.601 -1.748 4.850
v 32.707 -1.840 4.850
v -9.151 -50.253 4.850
v -9.257 -50.162 4.990
v 32.601 -1.748 4.990
v 32.707 -1.840 4.990
v -9.151 -50.253 4.990
v -24.366 -37.218 0.000
v -24.248 -37.081 0.000
v -24.112 -37.199 0.000
v -24.230 -37.335 0.000
v -24.366 -37.218 5.000
v -24.248 -37.081 5.000
v -24.112 -37.199 5.000
v -24.230 -37.335 5.000
v -16.801 -43.758 0.000
v -16.684 -43.622 0.000
v -16.548 -43.740 0.000
v -16.665 -43.876 0.000
v -16.801 -43.758 5.000
v -16.684 -43.622 5.000
v -16.548 -43.740 5.000
v -16.665 -43.876 5.000
v -9.237 -50.298 0.000
v -9.119 -50.162 0.000
v -8.983 -50.280 0.000
v -9.101 -50.416 0.000
v -9.237 -50.298 5.000
v -9.119 -50.162 5.000
v -8.983 -50.280 5.000
v -9.101 -50.416 5.000
v -24.285 -37.261 1.200
v -24.193 -37.155 1.200
v -9.064 -50.236 1.200
v -9.156 -50.342 1.200
v -24.285 -37.261 1.340
v -24.193 -37.155 1.340
v -9.064 -50.236 1.340
v -9.156 -50.342 1.340
v -24.285 -37.261 2.400
v -24.193 -37.155 2.400
v -9.064 -50.236 2.400
v -9.156 -50.342 2.400
v -24.285 -37.261 2.540
v -24.193 -37.155 2.540
v -9.064 -50.236 2.540
v -9.156 -50.342 2.540
v -24.285 -37.261 3.600
v -24.193 -37.155 3.600
v -9.064 -50.236 3.600
v -9.156 -50.342 3.600
v -24.285 -37.261 3.740
v -24.193 -37.155 3.740
v -9.064 -50.236 3.740
v -9.156 -50.342 3.740
v -24.285 -37.261 4.850
v -24.193 -37.155 4.850
v -9.064 -50.236 4.850
v -9.156 -50.342 4.850
v -24.285 -37.261 4.990
v -24.193 -37.155 4.990
v -9.064 -50.236 4.990
v -9.156 -50.342 4.990
v -13.901 -25.114 0.000
v -13.784 -24.978 0.000
v -13.647 -25.096 0.000
v -13.765 -25.232 0.000
v -13.901 -25.114 5.000
v -13.784 -24.978 5.000
v -13.647 -25.096 5.000
v -13.765 -25.232 5.000
v -6.337 -31.655 0.000
v -6.219 -31.519 0.000
v -6.083 -31.636 0.000
v -6.201 -31.772 0.000
v -6.337 -31.655 5.000
v -6.219 -31.519 5.000
v -6.083 -31.636 5.000
v -6.201 -31.772 5.000
v 1.228 -38.195 0.000
v 1.346 -38.059 0.000
v 1.482 -38.177 0.000
v 1.364 -38.313 0.000
v 1.228 -38.195 5.000
v 1.346 -38.059 5.000
v 1.482 -38.177 5.000
v 1.364 -38.313 5.000
v -13.820 -25.158 1.200
v -13.729 -25.052 1.200
v 1.401 -38.133 1.200
v 1.309 -38.239 1.200
v -13.820 -25.158 1.340
v -13.729 -25.052 1.340
v 1.401 -38.133 1.340
v 1.309 -38.239 1.340
v -13.820 -25.158 2.400
v -13.729 -25.052 2.400
v 1.401 -38.133 2.400
v 1.309 -38.239 2.400
v -13.820 -25.158 2.540
v -13.729 -25.052 2.540
v 1.401 -38.133 2.540
v 1.309 -38.239 2.540
v -13.820 -25.158 3.600
v -13.729 -25.052 3.600
v 1.401 -38.133 3.600
v 1.309 -38.239 3.600
v -13.820 -25.158 3.740
v -13.729 -25.052 3.740
v 1.401 -38.133 3.740
v 1.309 -38.239 3.740
v -13.820 -25.158 4.850
v -13.729 -25.052 4.850
v 1.401 -38.133 4.850
v 1.309 -38.239 4.850
v -13.820 -25.158 4.990
v -13.729 -25.052 4.990
v 1.401 -38.133 4.990
v 1.309 -38.239 4.990
v -3.437 -13.011 0.000
v -3.319 -12.875 0.000
v -3.183 -12.993 0.000
v -3.301 -13.129 0.000
v -3.437 -13.011 5.000
v -3.319 -12.875 5.000
v -3.183 -12.993 5.000
v -3.301 -13.129 5.000
v 4.128 -19.551 0.000
v 4.246 -19.415 0.000
v 4.382 -19.533 0.000
v 4.264 -19.669 0.000
v 4.128 -19.551 5.000
v 4.246 -19.415 5.000
v 4.382 -19.533 5.000
v 4.264 -19.669 5.000
v 11.692 -26.092 0.000
v 11.810 -25.956 0.000
v 11.946 -26.073 0.000
v 11.829 -26.210 0.000
v 11.692 -26.092 5.000
v 11.810 -25.956 5.000
v 11.946 -26.073 5.000
v 11.829 -26.210 5.000
v -3.356 -13.055 1.200
v -3.264 -12.949 1.200
v 11.865 -26.030 1.200
v 11.774 -26.136 1.200
v -3.356 -13.055 1.340
v -3.264 -12.949 1.340
v 11.865 -26.030 1.340
v 11.774 -26.136 1.340
v -3.356 -13.055 2.400
v -3.264 -12.949 2.400
v 11.865 -26.030 2.400
v 11.774 -26.136 2.400
v -3.356 -13.055 2.540
v -3.264 -12.949 2.540
v 11.865 -26.030 2.540
v 11.774 -26.136 2.540
v -3.356 -13.055 3.600
v -3.264 -12.949 3.600
v 11.865 -26.030 3.600
v 11.774 -26.136 3.600
v -3.356 -13.055 3.740
v -3.264 -12.949 3.740
v 11.865 -26.030 3.740
v 11.774 -26.136 3.740
v -3.356 -13.055 4.850
v -3.264 -12.949 4.850
v 11.865 -26.030 4.850
v 11.774 -26.136 4.850
v -3.356 -13.055 4.990
v -3.264 -12.949 4.990
v 11.865 -26.030 4.990
v 11.774 -26.136 4.990
v 7.028 -0.908 0.000
v 7.146 -0.771 0.000
v 7.282 -0.889 0.000
v 7.164 -1.025 0.000
v 7.028 -0.908 5.000
v 7.146 -0.771 5.000
v 7.282 -0.889 5.000
v 7.164 -1.025 5.000
v 14.593 -7.448 0.000
v 14.710 -7.312 0.000
v 14.846 -7.430 0.000
v 14.729 -7.566 0.000
v 14.593 -7.448 5.000
v 14.710 -7.312 5.000
v 14.846 -7.430 5.000
v 14.729 -7.566 5.000
v 22.157 -13.988 0.000
v 22.275 -13.852 0.000
v 22.411 -13.970 0.000
v 22.293 -14.106 0.000
v 22.157 -13.988 5.000
v 22.275 -13.852 5.000
v 22.411 -13.970 5.000
v 22.293 -14.106 5.000
v 7.109 -0.951 1.200
v 7.201 -0.845 1.200
v 22.330 -13.926 1.200
v 22.238 -14.032 1.200
v 7.109 -0.951 1.340
v 7.201 -0.845 1.340
v 22.330 -13.926 1.340
v 22.238 -14.032 1.340
v 7.109 -0.951 2.400
v 7.201 -0.845 2.400
v 22.330 -13.926 2.400
v 22.238 -14.032 2.400
v 7.109 -0.951 2.540
v 7.201 -0.845 2.540
v 22.330 -13.926 2.540
v 22.238 -14.032 2.540
v 7.109 -0.951 3.600
v 7.201 -0.845 3.600
v 22.330 -13.926 3.600
v 22.238 -14.032 3.600
v 7.109 -0.951 3.740
v 7.201 -0.845 3.740
v 22.330 -13.926 3.740
v 22.238 -14.032 3.740
v 7.109 -0.951 4.850
v 7.201 -0.845 4.850
v 22.330 -13.926 4.850
v 22.238 -14.032 4.850
v 7.109 -0.951 4.990
v 7.201 -0.845 4.990
v 22.330 -13.926 4.990
v 22.238 -14.032 4.990
v 17.493 11.196 0.000
v 17.610 11.332 0.000
v 17.747 11.214 0.000
v 17.629 11.078 0.000
v 17.493 11.196 5.000
v 17.610 11.332 5.000
v 17.747 11.214 5.000
v 17.629 11.078 5.000
v 25.057 4.655 0.000
v 25.175 4.791 0.000
v 25.311 4.674 0.000
v 25.193 4.538 0.000
v 25.057 4.655 5.000
v 25.175 4.791 5.000
v 25.311 4.674 5.000
v 25.193 4.538 5.000
v 32.622 -1.885 0.000
v 32.740 -1.749 0.000
v 32.876 -1.867 0.000
v 32.758 -2.003 0.000
v 32.622 -1.885 5.000
v 32.740 -1.749 5.000
v 32.876 -1.867 5.000
v 32.758 -2.003 5.000
v 17.574 11.152 1.200
v 17.665 11.258 1.200
v 32.795 -1.823 1.200
v 32.703 -1.929 1.200
v 17.574 11.152 1.340
v 17.665 11.258 1.340
v 32.795 -1.823 1.340
v 32.703 -1.929 1.340
v 17.574 11.152 2.400
v 17.665 11.258 2.400
v 32.795 -1.823 2.400
v 32.703 -1.929 2.400
v 17.574 11.152 2.540
v 17.665 11.258 2.540
v 32.795 -1.823 2.540
v 32.703 -1.929 2.540
v 17.574 11.152 3.600
v 17.665 11.258 3.600
v 32.795 -1.823 3.600
v 32.703 -1.929 3.600
v 17.574 11.152 3.740
v 17.665 11.258 3.740
v 32.795 -1.823 3.740
v 32.703 -1.929 3.740
v 17.574 11.152 4.850
v 17.665 11.258 4.850
v 32.795 -1.823 4.850
v 32.703 -1.929 4.850
v 17.574 11.152 4.990
v 17.665 11.258 4.990
v 32.795 -1.823 4.990
v 32.703 -1.929 4.990
v -24.428 -37.045 0.000
v -24.101 -36.667 0.000
v -23.723 -36.994 0.000
v -24.050 -37.372 0.000
v -24.428 -37.045 10.751
v -24.101 -36.667 10.751
v -23.723 -36.994 10.751
v -24.050 -37.372 10.751
v -15.351 -44.893 0.000
v -15.024 -44.515 0.000
v -14.645 -44.842 0.000
v -14.972 -45.220 0.000
v -15.351 -44.893 11.751
v -15.024 -44.515 11.751
v -14.645 -44.842 11.751
v -14.972 -45.220 11.751
v -14.127 -25.131 0.000
v -13.800 -24.752 0.000
v -13.422 -25.079 0.000
v -13.749 -25.458 0.000
v -14.127 -25.131 10.830
v -13.800 -24.752 10.830
v -13.422 -25.079 10.830
v -13.749 -25.458 10.830
v -5.050 -32.979 0.000
v -4.722 -32.601 0.000
v -4.344 -32.928 0.000
v -4.671 -33.306 0.000
v -5.050 -32.979 11.830
v -4.722 -32.601 11.830
v -4.344 -32.928 11.830
v -4.671 -33.306 11.830
v -3.662 -13.027 0.000
v -3.335 -12.649 0.000
v -2.957 -12.976 0.000
v -3.284 -13.354 0.000
v -3.662 -13.027 10.910
v -3.335 -12.649 10.910
v -2.957 -12.976 10.910
v -3.284 -13.354 10.910
v 5.415 -20.876 0.000
v 5.742 -20.498 0.000
v 6.120 -20.825 0.000
v 5.793 -21.203 0.000
v 5.415 -20.876 11.910
v 5.742 -20.498 11.910
v 6.120 -20.825 11.910
v 5.793 -21.203 11.910
v 6.802 -0.924 0.000
v 7.129 -0.546 0.000
v 7.508 -0.873 0.000
v 7.181 -1.251 0.000
v 6.802 -0.924 10.990
v 7.129 -0.546 10.990
v 7.508 -0.873 10.990
v 7.181 -1.251 10.990
v 15.880 -8.773 0.000
v 16.207 -8.394 0.000
v 16.585 -8.721 0.000
v 16.258 -9.100 0.000
v 15.880 -8.773 11.990
v 16.207 -8.394 11.990
v 16.585 -8.721 11.990
v 16.258 -9.100 11.990
v 17.267 11.179 0.000
v 17.594 11.558 0.000
v 17.972 11.231 0.000
v 17.645 10.852 0.000
v 17.267 11.179 11.070
v 17.594 11.558 11.070
v 17.972 11.231 11.070
v 17.645 10.852 11.070
v 26.344 3.331 0.000
v 26.671 3.709 0.000
v 27.050 3.382 0.000
v 26.723 3.004 0.000
v 26.344 3.331 12.070
v 26.671 3.709 12.070
v 27.050 3.382 12.070
v 26.723 3.004 12.070
v 25.115 20.257 0.000
v 25.442 20.635 0.000
v 25.821 20.308 0.000
v 25.494 19.930 0.000
v 25.115 20.257 11.130
v 25.442 20.635 11.130
v 25.821 20.308 11.130
v 25.494 19.930 11.130
v 34.193 12.408 0.000
v 34.520 12.787 0.000
v 34.898 12.460 0.000
v 34.571 12.081 0.000
v 34.193 12.408 12.130
v 34.520 12.787 12.130
v 34.898 12.460 12.130
v 34.571 12.081 12.130
v 32.800 29.145 0.000
v 33.127 29.523 0.000
v 33.506 29.196 0.000
v 33.179 28.818 0.000
v 32.800 29.145 11.189
v 33.127 29.523 11.189
v 33.506 29.196 11.189
v 33.179 28.818 11.189
v 41.878 21.297 0.000
v 42.205 21.675 0.000
v 42.583 21.348 0.000
v 42.256 20.970 0.000
v 41.878 21.297 12.189
v 42.205 21.675 12.189
v 42.583 21.348 12.189
v 42.256 20.970 12.189
v -24.704 -16.647 0.000
v -23.723 -15.512 0.000
v -22.588 -16.493 0.000
v -23.569 -17.628 0.000
v -24.704 -16.647 3.000
v -23.723 -15.512 3.000
v -22.588 -16.493 3.000
v -23.569 -17.628 3.000
v -14.038 -25.869 0.000
v -13.057 -24.734 0.000
v -11.922 -25.715 0.000
v -12.903 -26.850 0.000
v -14.038 -25.869 3.000
v -13.057 -24.734 3.000
v -11.922 -25.715 3.000
v -12.903 -26.850 3.000
v -3.775 7.560 0.000
v -2.794 8.695 0.000
v -1.659 7.714 0.000
v -2.640 6.579 0.000
v -3.775 7.560 3.000
v -2.794 8.695 3.000
v -1.659 7.714 3.000
v -2.640 6.579 3.000
v 6.891 -1.662 0.000
v 7.872 -0.527 0.000
v 9.007 -1.508 0.000
v 8.026 -2.643 0.000
v 6.891 -1.662 3.000
v 7.872 -0.527 3.000
v 9.007 -1.508 3.000
v 8.026 -2.643 3.000
v -43.702 -23.024 11.740
v 16.470 46.570 12.200
v 30.086 34.797 10.700
v -30.086 -34.797 10.240
v -30.086 -34.797 10.240
v 30.086 34.797 10.700
v 43.702 23.024 12.200
v -16.470 -46.570 11.740
v -43.702 -23.024 11.990
v 16.470 46.570 12.450
v 30.086 34.797 10.950
v -30.086 -34.797 10.490
v -30.086 -34.797 10.490
v 30.086 34.797 10.950
v 43.702 23.024 12.450
v -16.470 -46.570 11.990
v -0.662 26.893 0.000
v -0.545 27.029 0.000
v -0.408 26.911 0.000
v -0.526 26.775 0.000
v -0.662 26.893 5.000
v -0.545 27.029 5.000
v -0.408 26.911 5.000
v -0.526 26.775 5.000
v 3.876 22.968 0.000
v 3.994 23.105 0.000
v 4.130 22.987 0.000
v 4.013 22.851 0.000
v 3.876 22.968 5.000
v 3.994 23.105 5.000
v 4.130 22.987 5.000
v 4.013 22.851 5.000
v 8.415 19.044 0.000
v 8.533 19.180 0.000
v 8.669 19.063 0.000
v 8.551 18.926 0.000
v 8.415 19.044 5.000
v 8.533 19.180 5.000
v 8.669 19.063 5.000
v 8.551 18.926 5.000
v -0.581 26.849 1.200
v -0.490 26.955 1.200
v 8.588 19.106 1.200
v 8.496 19.000 1.200
v -0.581 26.849 1.340
v -0.490 26.955 1.340
v 8.588 19.106 1.340
v 8.496 19.000 1.340
v -0.581 26.849 2.400
v -0.490 26.955 2.400
v 8.588 19.106 2.400
v 8.496 19.000 2.400
v -0.581 26.849 2.540
v -0.490 26.955 2.540
v 8.588 19.106 2.540
v 8.496 19.000 2.540
v -0.581 26.849 3.600
v -0.490 26.955 3.600
v 8.588 19.106 3.600
v 8.496 19.000 3.600
v -0.581 26.849 3.740
v -0.490 26.955 3.740
v 8.588 19.106 3.740
v 8.496 19.000 3.740
v -0.581 26.849 4.850
v -0.490 26.955 4.850
v 8.588 19.106 4.850
v 8.496 19.000 4.850
v -0.581 26.849 4.990
v -0.490 26.955 4.990
v 8.588 19.106 4.990
v 8.496 19.000 4.990
v 8.321 19.126 0.000
v 8.438 19.262 0.000
v 8.574 19.144 0.000
v 8.457 19.008 0.000
v 8.321 19.126 5.000
v 8.438 19.262 5.000
v 8.574 19.144 5.000
v 8.457 19.008 5.000
v 13.553 25.178 0.000
v 13.671 25.314 0.000
v 13.807 25.196 0.000
v 13.689 25.060 0.000
v 13.553 25.178 5.000
v 13.671 25.314 5.000
v 13.807 25.196 5.000
v 13.689 25.060 5.000
v 18.785 31.229 0.000
v 18.903 31.365 0.000
v 19.039 31.248 0.000
v 18.921 31.112 0.000
v 18.785 31.229 5.000
v 18.903 31.365 5.000
v 19.039 31.248 5.000
v 18.921 31.112 5.000
v 24.018 37.281 0.000
v 24.135 37.417 0.000
v 24.271 37.299 0.000
v 24.154 37.163 0.000
v 24.018 37.281 5.000
v 24.135 37.417 5.000
v 24.271 37.299 5.000
v 24.154 37.163 5.000
v 8.395 19.181 1.200
v 24.092 37.336 1.200
v 24.197 37.244 1.200
v 8.500 19.089 1.200
v 8.395 19.181 1.340
v 24.092 37.336 1.340
v 24.197 37.244 1.340
v 8.500 19.089 1.340
v 8.395 19.181 2.400
v 24.092 37.336 2.400
v 24.197 37.244 2.400
v 8.500 19.089 2.400
v 8.395 19.181 2.540
v 24.092 37.336 2.540
v 24.197 37.244 2.540
v 8.500 19.089 2.540
v 8.395 19.181 3.600
v 24.092 37.336 3.600
v 24.197 37.244 3.600
v 8.500 19.089 3.600
v 8.395 19.181 3.740
v 24.092 37.336 3.740
v 24.197 37.244 3.740
v 8.500 19.089 3.740
v 8.395 19.181 4.850
v 24.092 37.336 4.850
v 24.197 37.244 4.850
v 8.500 19.089 4.850
v 8.395 19.181 4.990
v 24.092 37.336 4.990
v 24.197 37.244 4.990
v 8.500 19.089 4.990
v -0.568 26.811 0.000
v -0.450 26.947 0.000
v -0.314 26.829 0.000
v -0.432 26.693 0.000
v -0.568 26.811 5.000
v -0.450 26.947 5.000
v -0.314 26.829 5.000
v -0.432 26.693 5.000
v 4.665 32.863 0.000
v 4.782 32.999 0.000
v 4.918 32.881 0.000
v 4.801 32.745 0.000
v 4.665 32.863 5.000
v 4.782 32.999 5.000
v 4.918 32.881 5.000
v 4.801 32.745 5.000
v 9.897 38.914 0.000
v 10.015 39.050 0.000
v 10.151 38.933 0.000
v 10.033 38.797 0.000
v 9.897 38.914 5.000
v 10.015 39.050 5.000
v 10.151 38.933 5.000
v 10.033 38.797 5.000
v 15.129 44.966 0.000
v 15.247 45.102 0.000
v 15.383 44.984 0.000
v 15.265 44.848 0.000
v 15.129 44.966 5.000
v 15.247 45.102 5.000
v 15.383 44.984 5.000
v 15.265 44.848 5.000
v -0.494 26.866 1.200
v 15.203 45.021 1.200
v 15.309 44.929 1.200
v -0.388 26.774 1.200
v -0.494 26.866 1.340
v 15.203 45.021 1.340
v 15.309 44.929 1.340
v -0.388 26.774 1.340
v -0.494 26.866 2.400
v 15.203 45.021 2.400
v 15.309 44.929 2.400
v -0.388 26.774 2.400
v -0.494 26.866 2.540
v 15.203 45.021 2.540
v 15.309 44.929 2.540
v -0.388 26.774 2.540
v -0.494 26.866 3.600
v 15.203 45.021 3.600
v 15.309 44.929 3.600
v -0.388 26.774 3.600
v -0.494 26.866 3.740
v 15.203 45.021 3.740
v 15.309 44.929 3.740
v -0.388 26.774 3.740
v -0.494 26.866 4.850
v 15.203 45.021 4.850
v 15.309 44.929 4.850
v -0.388 26.774 4.850
v -0.494 26.866 4.990
v 15.203 45.021 4.990
v 15.309 44.929 4.990
v -0.388 26.774 4.990
v 14.953 44.953 0.000
v 15.071 45.089 0.000
v 15.207 44.972 0.000
v 15.089 44.835 0.000
v 14.953 44.953 5.000
v 15.071 45.089 5.000
v 15.207 44.972 5.000
v 15.089 44.835 5.000
v 21.005 39.721 0.000
v 21.122 39.857 0.000
v 21.258 39.739 0.000
v 21.141 39.603 0.000
v 21.005 39.721 5.000
v 21.122 39.857 5.000
v 21.258 39.739 5.000
v 21.141 39.603 5.000
v 15.034 44.909 1.200
v 15.126 45.015 1.200
v 21.177 39.783 1.200
v 21.086 39.677 1.200
v 15.034 44.909 1.340
v 15.126 45.015 1.340
v 21.177 39.783 1.340
v 21.086 39.677 1.340
v 15.034 44.909 2.400
v 15.126 45.015 2.400
v 21.177 39.783 2.400
v 21.086 39.677 2.400
v 15.034 44.909 2.540
v 15.126 45.015 2.540
v 21.177 39.783 2.540
v 21.086 39.677 2.540
v 15.034 44.909 3.600
v 15.126 45.015 3.600
v 21.177 39.783 3.600
v 21.086 39.677 3.600
v 15.034 44.909 3.740
v 15.126 45.015 3.740
v 21.177 39.783 3.740
v 21.086 39.677 3.740
v 15.034 44.909 4.850
v 15.126 45.015 4.850
v 21.177 39.783 4.850
v 21.086 39.677 4.850
v 15.034 44.909 4.990
v 15.126 45.015 4.990
v 21.177 39.783 4.990
v 21.086 39.677 4.990
v 1.253 26.677 0.400
v 15.642 43.319 0.400
v 22.829 37.106 0.400
v 8.440 20.464 0.400
v 1.253 26.677 7.500
v 15.642 43.319 7.500
v 22.829 37.106 7.500
v 8.440 20.464 7.500
v 17.493 11.196 0.000
v 17.610 11.332 0.000
v 17.747 11.214 0.000
v 17.629 11.078 0.000
v 17.493 11.196 5.000
v 17.610 11.332 5.000
v 17.747 11.214 5.000
v 17.629 11.078 5.000
v 22.031 7.271 0.000
v 22.149 7.408 0.000
v 22.285 7.290 0.000
v 22.168 7.154 0.000
v 22.031 7.271 5.000
v 22.149 7.408 5.000
v 22.285 7.290 5.000
v 22.168 7.154 5.000
v 26.570 3.347 0.000
v 26.688 3.483 0.000
v 26.824 3.366 0.000
v 26.706 3.229 0.000
v 26.570 3.347 5.000
v 26.688 3.483 5.000
v 26.824 3.366 5.000
v 26.706 3.229 5.000
v 17.574 11.152 1.200
v 17.665 11.258 1.200
v 26.743 3.409 1.200
v 26.651 3.303 1.200
v 17.574 11.152 1.340
v 17.665 11.258 1.340
v 26.743 3.409 1.340
v 26.651 3.303 1.340
v 17.574 11.152 2.400
v 17.665 11.258 2.400
v 26.743 3.409 2.400
v 26.651 3.303 2.400
v 17.574 11.152 2.540
v 17.665 11.258 2.540
v 26.743 3.409 2.540
v 26.651 3.303 2.540
v 17.574 11.152 3.600
v 17.665 11.258 3.600
v 26.743 3.409 3.600
v 26.651 3.303 3.600
v 17.574 11.152 3.740
v 17.665 11.258 3.740
v 26.743 3.409 3.740
v 26.651 3.303 3.740
v 17.574 11.152 4.850
v 17.665 11.258 4.850
v 26.743 3.409 4.850
v 26.651 3.303 4.850
v 17.574 11.152 4.990
v 17.665 11.258 4.990
v 26.743 3.409 4.990
v 26.651 3.303 4.990
v 17.587 11.114 0.000
v 17.705 11.250 0.000
v 17.841 11.132 0.000
v 17.723 10.996 0.000
v 17.587 11.114 5.000
v 17.705 11.250 5.000
v 17.841 11.132 5.000
v 17.723 10.996 5.000
v 22.820 17.166 0.000
v 22.937 17.302 0.000
v 23.073 17.184 0.000
v 22.956 17.048 0.000
v 22.820 17.166 5.000
v 22.937 17.302 5.000
v 23.073 17.184 5.000
v 22.956 17.048 5.000
v 28.052 23.217 0.000
v 28.170 23.353 0.000
v 28.306 23.236 0.000
v 28.188 23.100 0.000
v 28.052 23.217 5.000
v 28.170 23.353 5.000
v 28.306 23.236 5.000
v 28.188 23.100 5.000
v 33.284 29.269 0.000
v 33.402 29.405 0.000
v 33.538 29.287 0.000
v 33.420 29.151 0.000
v 33.284 29.269 5.000
v 33.402 29.405 5.000
v 33.538 29.287 5.000
v 33.420 29.151 5.000
v 17.661 11.169 1.200
v 33.358 29.324 1.200
v 33.464 29.232 1.200
v 17.767 11.077 1.200
v 17.661 11.169 1.340
v 33.358 29.324 1.340
v 33.464 29.232 1.340
v 17.767 11.077 1.340
v 17.661 11.169 2.400
v 33.358 29.324 2.400
v 33.464 29.232 2.400
v 17.767 11.077 2.400
v 17.661 11.169 2.540
v 33.358 29.324 2.540
v 33.464 29.232 2.540
v 17.767 11.077 2.540
v 17.661 11.169 3.600
v 33.358 29.324 3.600
v 33.464 29.232 3.600
v 17.767 11.077 3.600
v 17.661 11.169 3.740
v 33.358 29.324 3.740
v 33.464 29.232 3.740
v 17.767 11.077 3.740
v 17.661 11.169 4.850
v 33.358 29.324 4.850
v 33.464 29.232 4.850
v 17.767 11.077 4.850
v 17.661 11.169 4.990
v 33.358 29.324 4.990
v 33.464 29.232 4.990
v 17.767 11.077 4.990
v 26.476 3.429 0.000
v 26.593 3.565 0.000
v 26.729 3.447 0.000
v 26.612 3.311 0.000
v 26.476 3.429 5.000
v 26.593 3.565 5.000
v 26.729 3.447 5.000
v 26.612 3.311 5.000
v 31.708 9.481 0.000
v 31.826 9.617 0.000
v 31.962 9.499 0.000
v 31.844 9.363 0.000
v 31.708 9.481 5.000
v 31.826 9.617 5.000
v 31.962 9.499 5.000
v 31.844 9.363 5.000
v 36.940 15.532 0.000
v 37.058 15.668 0.000
v 37.194 15.551 0.000
v 37.076 15.415 0.000
v 36.940 15.532 5.000
v 37.058 15.668 5.000
v 37.194 15.551 5.000
v 37.076 15.415 5.000
v 42.173 21.584 0.000
v 42.290 21.720 0.000
v 42.426 21.602 0.000
v 42.309 21.466 0.000
v 42.173 21.584 5.000
v 42.290 21.720 5.000
v 42.426 21.602 5.000
v 42.309 21.466 5.000
v 26.550 3.484 1.200
v 42.247 21.639 1.200
v 42.352 21.547 1.200
v 26.655 3.392 1.200
v 26.550 3.484 1.340
v 42.247 21.639 1.340
v 42.352 21.547 1.340
v 26.655 3.392 1.340
v 26.550 3.484 2.400
v 42.247 21.639 2.400
v 42.352 21.547 2.400
v 26.655 3.392 2.400
v 26.550 3.484 2.540
v 42.247 21.639 2.540
v 42.352 21.547 2.540
v 26.655 3.392 2.540
v 26.550 3.484 3.600
v 42.247 21.639 3.600
v 42.352 21.547 3.600
v 26.655 3.392 3.600
v 26.550 3.484 3.740
v 42.247 21.639 3.740
v 42.352 21.547 3.740
v 26.655 3.392 3.740
v 26.550 3.484 4.850
v 42.247 21.639 4.850
v 42.352 21.547 4.850
v 26.655 3.392 4.850
v 26.550 3.484 4.990
v 42.247 21.639 4.990
v 42.352 21.547 4.990
v 26.655 3.392 4.990
v 36.134 26.640 0.000
v 36.251 26.776 0.000
v 36.388 26.658 0.000
v 36.270 26.522 0.000
v 36.134 26.640 5.000
v 36.251 26.776 5.000
v 36.388 26.658 5.000
v 36.270 26.522 5.000
v 42.185 21.408 0.000
v 42.303 21.544 0.000
v 42.439 21.426 0.000
v 42.322 21.290 0.000
v 42.185 21.408 5.000
v 42.303 21.544 5.000
v 42.439 21.426 5.000
v 42.322 21.290 5.000
v 36.215 26.596 1.200
v 36.306 26.702 1.200
v 42.358 21.470 1.200
v 42.267 21.364 1.200
v 36.215 26.596 1.340
v 36.306 26.702 1.340
v 42.358 21.470 1.340
v 42.267 21.364 1.340
v 36.215 26.596 2.400
v 36.306 26.702 2.400
v 42.358 21.470 2.400
v 42.267 21.364 2.400
v 36.215 26.596 2.540
v 36.306 26.702 2.540
v 42.358 21.470 2.540
v 42.267 21.364 2.540
v 36.215 26.596 3.600
v 36.306 26.702 3.600
v 42.358 21.470 3.600
v 42.267 21.364 3.600
v 36.215 26.596 3.740
v 36.306 26.702 3.740
v 42.358 21.470 3.740
v 42.267 21.364 3.740
v 36.215 26.596 4.850
v 36.306 26.702 4.850
v 42.358 21.470 4.850
v 42.267 21.364 4.850
v 36.215 26.596 4.990
v 36.306 26.702 4.990
v 42.358 21.470 4.990
v 42.267 21.364 4.990
v 19.030 11.307 0.400
v 33.419 27.949 0.400
v 40.605 21.736 0.400
v 26.216 5.094 0.400
v 19.030 11.307 7.500
v 33.419 27.949 7.500
v 40.605 21.736 7.500
v 26.216 5.094 7.500
v -30.540 -34.405 9.640
v 29.632 35.190 9.640
v 30.540 34.405 9.640
v -29.632 -35.190 9.640
v -30.540 -34.405 10.240
v 29.632 35.190 10.240
v 30.540 34.405 10.240
v -29.632 -35.190 10.240
v -32.702 -37.823 0.000
v -32.008 -38.603 0.000
v -32.008 -38.603 1.750
v -32.702 -37.823 1.750
v -32.918 -39.221 0.000
v -33.422 -38.655 0.000
v -33.422 -38.655 1.750
v -32.918 -39.221 1.750
v -33.422 -38.655 1.750
v -32.702 -37.823 1.750
v -32.008 -38.603 1.750
v -32.918 -39.221 1.750
v -32.008 -38.603 0.000
v -31.540 -39.536 0.000
v -31.540 -39.536 1.750
v -32.008 -38.603 1.750
v -32.579 -39.897 0.000
v -32.918 -39.221 0.000
v -32.918 -39.221 1.750
v -32.579 -39.897 1.750
v -32.918 -39.221 1.750
v -32.008 -38.603 1.750
v -31.540 -39.536 1.750
v -32.579 -39.897 1.750
v -31.540 -39.536 0.000
v -31.329 -40.559 0.000
v -31.329 -40.559 1.750
v -31.540 -39.536 1.750
v -32.426 -40.639 0.000
v -32.579 -39.897 0.000
v -32.579 -39.897 1.750
v -32.426 -40.639 1.750
v -32.579 -39.897 1.750
v -31.540 -39.536 1.750
v -31.329 -40.559 1.750
v -32.426 -40.639 1.750
v -31.329 -40.559 0.000
v -31.390 -41.602 0.000
v -31.390 -41.602 1.750
v -31.329 -40.559 1.750
v -32.470 -41.395 0.000
v -32.426 -40.639 0.000
v -32.426 -40.639 1.750
v -32.470 -41.395 1.750
v -32.426 -40.639 1.750
v -31.329 -40.559 1.750
v -31.390 -41.602 1.750
v -32.470 -41.395 1.750
v -31.390 -41.602 0.000
v -31.718 -42.593 0.000
v -31.718 -42.593 1.750
v -31.390 -41.602 1.750
v -32.708 -42.113 0.000
v -32.470 -41.395 0.000
v -32.470 -41.395 1.750
v -32.708 -42.113 1.750
v -32.470 -41.395 1.750
v -31.390 -41.602 1.750
v -31.718 -42.593 1.750
v -32.708 -42.113 1.750
v -31.718 -42.593 0.000
v -32.292 -43.465 0.000
v -32.292 -43.465 1.750
v -31.718 -42.593 1.750
v -33.124 -42.746 0.000
v -32.708 -42.113 0.000
v -32.708 -42.113 1.750
v -33.124 -42.746 1.750
v -32.708 -42.113 1.750
v -31.718 -42.593 1.750
v -32.292 -43.465 1.750
v -33.124 -42.746 1.750
v -32.292 -43.465 0.000
v -33.073 -44.159 0.000
v -33.073 -44.159 1.750
v -32.292 -43.465 1.750
v -33.690 -43.249 0.000
v -33.124 -42.746 0.000
v -33.124 -42.746 1.750
v -33.690 -43.249 1.750
v -33.124 -42.746 1.750
v -32.292 -43.465 1.750
v -33.073 -44.159 1.750
v -33.690 -43.249 1.750
v -33.073 -44.159 0.000
v -34.006 -44.627 0.000
v -34.006 -44.627 1.750
v -33.073 -44.159 1.750
v -34.367 -43.588 0.000
v -33.690 -43.249 0.000
v -33.690 -43.249 1.750
v -34.367 -43.588 1.750
v -33.690 -43.249 1.750
v -33.073 -44.159 1.750
v -34.006 -44.627 1.750
v -34.367 -43.588 1.750
v -34.006 -44.627 0.000
v -35.029 -44.838 0.000
v -35.029 -44.838 1.750
v -34.006 -44.627 1.750
v -35.108 -43.741 0.000
v -34.367 -43.588 0.000
v -34.367 -43.588 1.750
v -35.108 -43.741 1.750
v -34.367 -43.588 1.750
v -34.006 -44.627 1.750
v -35.029 -44.838 1.750
v -35.108 -43.741 1.750
v -35.029 -44.838 0.000
v -36.071 -44.777 0.000
v -36.071 -44.777 1.750
v -35.029 -44.838 1.750
v -35.864 -43.697 0.000
v -35.108 -43.741 0.000
v -35.108 -43.741 1.750
v -35.864 -43.697 1.750
v -35.108 -43.741 1.750
v -35.029 -44.838 1.750
v -36.071 -44.777 1.750
v -35.864 -43.697 1.750
v -36.071 -44.777 0.000
v -37.062 -44.449 0.000
v -37.062 -44.449 1.750
v -36.071 -44.777 1.750
v -36.583 -43.459 0.000
v -35.864 -43.697 0.000
v -35.864 -43.697 1.750
v -36.583 -43.459 1.750
v -35.864 -43.697 1.750
v -36.071 -44.777 1.750
v -37.062 -44.449 1.750
v -36.583 -43.459 1.750
v -37.062 -44.449 0.000
v -37.934 -43.875 0.000
v -37.934 -43.875 1.750
v -37.062 -44.449 1.750
v -37.215 -43.043 0.000
v -36.583 -43.459 0.000
v -36.583 -43.459 1.750
v -37.215 -43.043 1.750
v -36.583 -43.459 1.750
v -37.062 -44.449 1.750
v -37.934 -43.875 1.750
v -37.215 -43.043 1.750
v -37.934 -43.875 0.000
v -38.628 -43.094 0.000
v -38.628 -43.094 1.750
v -37.934 -43.875 1.750
v -37.718 -42.477 0.000
v -37.215 -43.043 0.000
v -37.215 -43.043 1.750
v -37.718 -42.477 1.750
v -37.215 -43.043 1.750
v -37.934 -43.875 1.750
v -38.628 -43.094 1.750
v -37.718 -42.477 1.750
v -38.628 -43.094 0.000
v -39.097 -42.161 0.000
v -39.097 -42.161 1.750
v -38.628 -43.094 1.750
v -38.058 -41.800 0.000
v -37.718 -42.477 0.000
v -37.718 -42.477 1.750
v -38.058 -41.800 1.750
v -37.718 -42.477 1.750
v -38.628 -43.094 1.750
v -39.097 -42.161 1.750
v -38.058 -41.800 1.750
v -39.097 -42.161 0.000
v -39.308 -41.138 0.000
v -39.308 -41.138 1.750
v -39.097 -42.161 1.750
v -38.211 -41.059 0.000
v -38.058 -41.800 0.000
v -38.058 -41.800 1.750
v -38.211 -41.059 1.750
v -38.058 -41.800 1.750
v -39.097 -42.161 1.750
v -39.308 -41.138 1.750
v -38.211 -41.059 1.750
v -39.308 -41.138 0.000
v -39.247 -40.096 0.000
v -39.247 -40.096 1.750
v -39.308 -41.138 1.750
v -38.166 -40.303 0.000
v -38.211 -41.059 0.000
v -38.211 -41.059 1.750
v -38.166 -40.303 1.750
v -38.211 -41.059 1.750
v -39.308 -41.138 1.750
v -39.247 -40.096 1.750
v -38.166 -40.303 1.750
v -39.247 -40.096 0.000
v -38.918 -39.105 0.000
v -38.918 -39.105 1.750
v -39.247 -40.096 1.750
v -37.928 -39.584 0.000
v -38.166 -40.303 0.000
v -38.166 -40.303 1.750
v -37.928 -39.584 1.750
v -38.166 -40.303 1.750
v -39.247 -40.096 1.750
v -38.918 -39.105 1.750
v -37.928 -39.584 1.750
v -38.918 -39.105 0.000
v -38.344 -38.233 0.000
v -38.344 -38.233 1.750
v -38.918 -39.105 1.750
v -37.512 -38.952 0.000
v -37.928 -39.584 0.000
v -37.928 -39.584 1.750
v -37.512 -38.952 1.750
v -37.928 -39.584 1.750
v -38.918 -39.105 1.750
v -38.344 -38.233 1.750
v -37.512 -38.952 1.750
v -38.344 -38.233 0.000
v -37.564 -37.539 0.000
v -37.564 -37.539 1.750
v -38.344 -38.233 1.750
v -36.946 -38.449 0.000
v -37.512 -38.952 0.000
v -37.512 -38.952 1.750
v -36.946 -38.449 1.750
v -37.512 -38.952 1.750
v -38.344 -38.233 1.750
v -37.564 -37.539 1.750
v -36.946 -38.449 1.750
v -37.564 -37.539 0.000
v -36.631 -37.070 0.000
v -36.631 -37.070 1.750
v -37.564 -37.539 1.750
v -36.270 -38.109 0.000
v -36.946 -38.449 0.000
v -36.946 -38.449 1.750
v -36.270 -38.109 1.750
v -36.946 -38.449 1.750
v -37.564 -37.539 1.750
v -36.631 -37.070 1.750
v -36.270 -38.109 1.750
v -36.631 -37.070 0.000
v -35.608 -36.859 0.000
v -35.608 -36.859 1.750
v -36.631 -37.070 1.750
v -35.528 -37.956 0.000
v -36.270 -38.109 0.000
v -36.270 -38.109 1.750
v -35.528 -37.956 1.750
v -36.270 -38.109 1.750
v -36.631 -37.070 1.750
v -35.608 -36.859 1.750
v -35.528 -37.956 1.750
v -35.608 -36.859 0.000
v -34.565 -36.920 0.000
v -34.565 -36.920 1.750
v -35.608 -36.859 1.750
v -34.772 -38.001 0.000
v -35.528 -37.956 0.000
v -35.528 -37.956 1.750
v -34.772 -38.001 1.750
v -35.528 -37.956 1.750
v -35.608 -36.859 1.750
v -34.565 -36.920 1.750
v -34.772 -38.001 1.750
v -34.565 -36.920 0.000
v -33.574 -37.249 0.000
v -33.574 -37.249 1.750
v -34.565 -36.920 1.750
v -34.054 -38.239 0.000
v -34.772 -38.001 0.000
v -34.772 -38.001 1.750
v -34.054 -38.239 1.750
v -34.772 -38.001 1.750
v -34.565 -36.920 1.750
v -33.574 -37.249 1.750
v -34.054 -38.239 1.750
v -33.574 -37.249 0.000
v -32.702 -37.823 0.000
v -32.702 -37.823 1.750
v -33.574 -37.249 1.750
v -33.422 -38.655 0.000
v -34.054 -38.239 0.000
v -34.054 -38.239 1.750
v -33.422 -38.655 1.750
v -34.054 -38.239 1.750
v -33.574 -37.249 1.750
v -32.702 -37.823 1.750
v -33.422 -38.655 1.750
v -33.422 -38.655 1.312
v -32.918 -39.221 1.312
v -32.579 -39.897 1.312
v -32.426 -40.639 1.312
v -32.470 -41.395 1.312
v -32.708 -42.113 1.312
v -33.124 -42.746 1.312
v -33.690 -43.249 1.312
v -34.367 -43.588 1.312
v -35.108 -43.741 1.312
v -35.864 -43.697 1.312
v -36.583 -43.459 1.312
v -37.215 -43.043 1.312
v -37.718 -42.477 1.312
v -38.058 -41.800 1.312
v -38.211 -41.059 1.312
v -38.166 -40.303 1.312
v -37.928 -39.584 1.312
v -37.512 -38.952 1.312
v -36.946 -38.449 1.312
v -36.270 -38.109 1.312
v -35.528 -37.956 1.312
v -34.772 -38.001 1.312
v -34.054 -38.239 1.312
v -31.382 -41.827 1.300
v -31.370 -41.764 1.456
v -31.362 -41.722 1.413
v -31.371 -41.768 1.300
v -31.370 -41.764 1.456
v -31.341 -41.611 1.520
v -31.341 -41.611 1.460
v -31.362 -41.722 1.413
v -31.341 -41.611 1.520
v -31.311 -41.458 1.456
v -31.319 -41.500 1.413
v -31.341 -41.611 1.460
v -31.311 -41.458 1.456
v -31.299 -41.395 1.300
v -31.310 -41.454 1.300
v -31.319 -41.500 1.413
v -31.299 -41.395 1.300
v -31.311 -41.458 1.144
v -31.319 -41.500 1.187
v -31.310 -41.454 1.300
v -31.311 -41.458 1.144
v -31.341 -41.611 1.080
v -31.341 -41.611 1.140
v -31.319 -41.500 1.187
v -31.341 -41.611 1.080
v -31.370 -41.764 1.144
v -31.362 -41.722 1.187
v -31.341 -41.611 1.140
v -31.370 -41.764 1.144
v -31.382 -41.827 1.300
v -31.371 -41.768 1.300
v -31.362 -41.722 1.187
v -34.197 -44.747 1.300
v -34.136 -44.726 1.456
v -34.096 -44.712 1.413
v -34.141 -44.727 1.300
v -34.136 -44.726 1.456
v -33.989 -44.675 1.520
v -33.989 -44.675 1.460
v -34.096 -44.712 1.413
v -33.989 -44.675 1.520
v -33.843 -44.624 1.456
v -33.883 -44.637 1.413
v -33.989 -44.675 1.460
v -33.843 -44.624 1.456
v -33.782 -44.602 1.300
v -33.838 -44.622 1.300
v -33.883 -44.637 1.413
v -33.782 -44.602 1.300
v -33.843 -44.624 1.144
v -33.883 -44.637 1.187
v -33.838 -44.622 1.300
v -33.843 -44.624 1.144
v -33.989 -44.675 1.080
v -33.989 -44.675 1.140
v -33.883 -44.637 1.187
v -33.989 -44.675 1.080
v -34.136 -44.726 1.144
v -34.096 -44.712 1.187
v -33.989 -44.675 1.140
v -34.136 -44.726 1.144
v -34.197 -44.747 1.300
v -34.141 -44.727 1.300
v -34.096 -44.712 1.187
v -38.134 -43.769 1.300
v -38.085 -43.811 1.456
v -38.053 -43.838 1.413
v -38.088 -43.808 1.300
v -38.085 -43.811 1.456
v -37.967 -43.912 1.520
v -37.967 -43.912 1.460
v -38.053 -43.838 1.413
v -37.967 -43.912 1.520
v -37.849 -44.014 1.456
v -37.882 -43.986 1.413
v -37.967 -43.912 1.460
v -37.849 -44.014 1.456
v -37.801 -44.056 1.300
v -37.846 -44.017 1.300
v -37.882 -43.986 1.413
v -37.801 -44.056 1.300
v -37.849 -44.014 1.144
v -37.882 -43.986 1.187
v -37.846 -44.017 1.300
v -37.849 -44.014 1.144
v -37.967 -43.912 1.080
v -37.967 -43.912 1.140
v -37.882 -43.986 1.187
v -37.967 -43.912 1.080
v -38.085 -43.811 1.144
v -38.053 -43.838 1.187
v -37.967 -43.912 1.140
v -38.085 -43.811 1.144
v -38.134 -43.769 1.300
v -38.088 -43.808 1.300
v -38.053 -43.838 1.187
v -39.254 -39.871 1.300
v -39.267 -39.934 1.456
v -39.275 -39.976 1.413
v -39.266 -39.929 1.300
v -39.267 -39.934 1.456
v -39.296 -40.087 1.520
v -39.296 -40.087 1.460
v -39.275 -39.976 1.413
v -39.296 -40.087 1.520
v -39.325 -40.239 1.456
v -39.317 -40.198 1.413
v -39.296 -40.087 1.460
v -39.325 -40.239 1.456
v -39.337 -40.303 1.300
v -39.326 -40.244 1.300
v -39.317 -40.198 1.413
v -39.337 -40.303 1.300
v -39.325 -40.239 1.144
v -39.317 -40.198 1.187
v -39.326 -40.244 1.300
v -39.325 -40.239 1.144
v -39.296 -40.087 1.080
v -39.296 -40.087 1.140
v -39.317 -40.198 1.187
v -39.296 -40.087 1.080
v -39.267 -39.934 1.144
v -39.275 -39.976 1.187
v -39.296 -40.087 1.140
v -39.267 -39.934 1.144
v -39.254 -39.871 1.300
v -39.266 -39.929 1.300
v -39.275 -39.976 1.187
v -36.439 -36.951 1.300
v -36.500 -36.972 1.456
v -36.540 -36.986 1.413
v -36.496 -36.970 1.300
v -36.500 -36.972 1.456
v -36.647 -37.023 1.520
v -36.647 -37.023 1.460
v -36.540 -36.986 1.413
v -36.647 -37.023 1.520
v -36.794 -37.074 1.456
v -36.754 -37.060 1.413
v -36.647 -37.023 1.460
v -36.794 -37.074 1.456
v -36.855 -37.095 1.300
v -36.798 -37.075 1.300
v -36.754 -37.060 1.413
v -36.855 -37.095 1.300
v -36.794 -37.074 1.144
v -36.754 -37.060 1.187
v -36.798 -37.075 1.300
v -36.794 -37.074 1.144
v -36.647 -37.023 1.080
v -36.647 -37.023 1.140
v -36.754 -37.060 1.187
v -36.647 -37.023 1.080
v -36.500 -36.972 1.144
v -36.540 -36.986 1.187
v -36.647 -37.023 1.140
v -36.500 -36.972 1.144
v -36.439 -36.951 1.300
v -36.496 -36.970 1.300
v -36.540 -36.986 1.187
v -35.772 -40.456 9.580
v -30.540 -34.405 9.580
v -29.632 -35.190 9.580
v -34.864 -41.241 9.580
v -35.772 -40.456 10.140
v -30.540 -34.405 10.140
v -29.632 -35.190 10.140
v -34.864 -41.241 10.140
usemtl panel
f 1 4 3 2
f 5 6 7 8
f 1 2 6 5
f 2 3 7 6
f 3 4 8 7
f 4 1 5 8
f 9 12 11 10
f 13 14 15 16
f 9 10 14 13
f 10 11 15 14
f 11 12 16 15
f 12 9 13 16
f 17 20 19 18
f 21 22 23 24
f 17 18 22 21
f 18 19 23 22
f 19 20 24 23
f 20 17 21 24
f 25 28 27 26
f 29 30 31 32
f 25 26 30 29
f 26 27 31 30
f 27 28 32 31
f 28 25 29 32
f 33 36 35 34
f 37 38 39 40
f 33 34 38 37
f 34 35 39 38
f 35 36 40 39
f 36 33 37 40
f 41 44 43 42
f 45 46 47 48
f 41 42 46 45
f 42 43 47 46
f 43 44 48 47
f 44 41 45 48
f 49 52 51 50
f 53 54 55 56
f 49 50 54 53
f 50 51 55 54
f 51 52 56 55
f 52 49 53 56
f 57 60 59 58
f 61 62 63 64
f 57 58 62 61
f 58 59 63 62
f 59 60 64 63
f 60 57 61 64
f 65 68 67 66
f 69 70 71 72
f 65 66 70 69
f 66 67 71 70
f 67 68 72 71
f 68 65 69 72
f 73 76 75 74
f 77 78 79 80
f 73 74 78 77
f 74 75 79 78
f 75 76 80 79
f 76 73 77 80
f 81 84 83 82
f 85 86 87 88
f 81 82 86 85
f 82 83 87 86
f 83 84 88 87
f 84 81 85 88
f 89 92 91 90
f 93 94 95 96
f 89 90 94 93
f 90 91 95 94
f 91 92 96 95
f 92 89 93 96
f 97 100 99 98
f 101 102 103 104
f 97 98 102 101
f 98 99 103 102
f 99 100 104 103
f 100 97 101 104
f 105 108 107 106
f 109 110 111 112
f 105 106 110 109
f 106 107 111 110
f 107 108 112 111
f 108 105 109 112
f 113 116 115 114
f 117 118 119 120
f 113 114 118 117
f 114 115 119 118
f 115 116 120 119
f 116 113 117 120
f 121 124 123 122
f 125 126 127 128
f 121 122 126 125
f 122 123 127 126
f 123 124 128 127
f 124 121 125 128
f 129 132 131 130
f 133 134 135 136
f 129 130 134 133
f 130 131 135 134
f 131 132 136 135
f 132 129 133 136
f 137 140 139 138
f 141 142 143 144
f 137 138 142 141
f 138 139 143 142
f 139 140 144 143
f 140 137 141 144
f 145 148 147 146
f 149 150 151 152
f 145 146 150 149
f 146 147 151 150
f 147 148 152 151
f 148 145 149 152
f 153 156 155 154
f 157 158 159 160
f 153 154 158 157
f 154 155 159 158
f 155 156 160 159
f 156 153 157 160
f 161 164 163 162
f 165 166 167 168
f 161 162 166 165
f 162 163 167 166
f 163 164 168 167
f 164 161 165 168
f 169 172 171 170
f 173 174 175 176
f 169 170 174 173
f 170 171 175 174
f 171 172 176 175
f 172 169 173 176
f 177 180 179 178
f 181 182 183 184
f 177 178 182 181
f 178 179 183 182
f 179 180 184 183
f 180 177 181 184
f 185 188 187 186
f 189 190 191 192
f 185 186 190 189
f 186 187 191 190
f 187 188 192 191
f 188 185 189 192
f 193 196 195 194
f 197 198 199 200
f 193 194 198 197
f 194 195 199 198
f 195 196 200 199
f 196 193 197 200
f 201 204 203 202
f 205 206 207 208
f 201 202 206 205
f 202 203 207 206
f 203 204 208 207
f 204 201 205 208
f 209 212 211 210
f 213 214 215 216
f 209 210 214 213
f 210 211 215 214
f 211 212 216 215
f 212 209 213 216
f 217 220 219 218
f 221 222 223 224
f 217 218 222 221
f 218 219 223 222
f 219 220 224 223
f 220 217 221 224
f 225 228 227 226
f 229 230 231 232
f 225 226 230 229
f 226 227 231 230
f 227 228 232 231
f 228 225 229 232
f 233 236 235 234
f 237 238 239 240
f 233 234 238 237
f 234 235 239 238
f 235 236 240 239
f 236 233 237 240
f 241 244 243 242
f 245 246 247 248
f 241 242 246 245
f 242 243 247 246
f 243 244 248 247
f 244 241 245 248
f 249 252 251 250
f 253 254 255 256
f 249 250 254 253
f 250 251 255 254
f 251 252 256 255
f 252 249 253 256
f 257 260 259 258
f 261 262 263 264
f 257 258 262 261
f 258 259 263 262
f 259 260 264 263
f 260 257 261 264
f 265 268 267 266
f 269 270 271 272
f 265 266 270 269
f 266 267 271 270
f 267 268 272 271
f 268 265 269 272
f 273 276 275 274
f 277 278 279 280
f 273 274 278 277
f 274 275 279 278
f 275 276 280 279
f 276 273 277 280
f 281 284 283 282
f 285 286 287 288
f 281 282 286 285
f 282 283 287 286
f 283 284 288 287
f 284 281 285 288
f 289 292 291 290
f 293 294 295 296
f 289 290 294 293
f 290 291 295 294
f 291 292 296 295
f 292 289 293 296
f 297 300 299 298
f 301 302 303 304
f 297 298 302 301
f 298 299 303 302
f 299 300 304 303
f 300 297 301 304
f 305 308 307 306
f 309 310 311 312
f 305 306 310 309
f 306 307 311 310
f 307 308 312 311
f 308 305 309 312
f 313 316 315 314
f 317 318 319 320
f 313 314 318 317
f 314 315 319 318
f 315 316 320 319
f 316 313 317 320
f 321 324 323 322
f 325 326 327 328
f 321 322 326 325
f 322 323 327 326
f 323 324 328 327
f 324 321 325 328
f 329 332 331 330
f 333 334 335 336
f 329 330 334 333
f 330 331 335 334
f 331 332 336 335
f 332 329 333 336
f 337 340 339 338
f 341 342 343 344
f 337 338 342 341
f 338 339 343 342
f 339 340 344 343
f 340 337 341 344
f 345 348 347 346
f 349 350 351 352
f 345 346 350 349
f 346 347 351 350
f 347 348 352 351
f 348 345 349 352
f 353 356 355 354
f 357 358 359 360
f 353 354 358 357
f 354 355 359 358
f 355 356 360 359
f 356 353 357 360
f 361 364 363 362
f 365 366 367 368
f 361 362 366 365
f 362 363 367 366
f 363 364 368 367
f 364 361 365 368
f 369 372 371 370
f 373 374 375 376
f 369 370 374 373
f 370 371 375 374
f 371 372 376 375
f 372 369 373 376
f 377 380 379 378
f 381 382 383 384
f 377 378 382 381
f 378 379 383 382
f 379 380 384 383
f 380 377 381 384
f 385 388 387 386
f 389 390 391 392
f 385 386 390 389
f 386 387 391 390
f 387 388 392 391
f 388 385 389 392
f 393 396 395 394
f 397 398 399 400
f 393 394 398 397
f 394 395 399 398
f 395 396 400 399
f 396 393 397 400
f 401 404 403 402
f 405 406 407 408
f 401 402 406 405
f 402 403 407 406
f 403 404 408 407
f 404 401 405 408
f 409 412 411 410
f 413 414 415 416
f 409 410 414 413
f 410 411 415 414
f 411 412 416 415
f 412 409 413 416
f 417 420 419 418
f 421 422 423 424
f 417 418 422 421
f 418 419 423 422
f 419 420 424 423
f 420 417 421 424
f 425 428 427 426
f 429 430 431 432
f 425 426 430 429
f 426 427 431 430
f 427 428 432 431
f 428 425 429 432
f 433 436 435 434
f 437 438 439 440
f 433 434 438 437
f 434 435 439 438
f 435 436 440 439
f 436 433 437 440
f 441 444 443 442
f 445 446 447 448
f 441 442 446 445
f 442 443 447 446
f 443 444 448 447
f 444 441 445 448
f 449 452 451 450
f 453 454 455 456
f 449 450 454 453
f 450 451 455 454
f 451 452 456 455
f 452 449 453 456
f 457 460 459 458
f 461 462 463 464
f 457 458 462 461
f 458 459 463 462
f 459 460 464 463
f 460 457 461 464
f 465 468 467 466
f 469 470 471 472
f 465 466 470 469
f 466 467 471 470
f 467 468 472 471
f 468 465 469 472
f 473 476 475 474
f 477 478 479 480
f 473 474 478 477
f 474 475 479 478
f 475 476 480 479
f 476 473 477 480
f 481 484 483 482
f 485 486 487 488
f 481 482 486 485
f 482 483 487 486
f 483 484 488 487
f 484 481 485 488
usemtl steel
f 489 492 491 490
f 493 494 495 496
f 489 490 494 493
f 490 491 495 494
f 491 492 496 495
f 492 489 493 496
f 497 500 499 498
f 501 502 503 504
f 497 498 502 501
f 498 499 503 502
f 499 500 504 503
f 500 497 501 504
f 505 508 507 506
f 509 510 511 512
f 505 506 510 509
f 506 507 511 510
f 507 508 512 511
f 508 505 509 512
f 513 516 515 514
f 517 518 519 520
f 513 514 518 517
f 514 515 519 518
f 515 516 520 519
f 516 513 517 520
f 521 524 523 522
f 525 526 527 528
f 521 522 526 525
f 522 523 527 526
f 523 524 528 527
f 524 521 525 528
f 529 532 531 530
f 533 534 535 536
f 529 530 534 533
f 530 531 535 534
f 531 532 536 535
f 532 529 533 536
f 537 540 539 538
f 541 542 543 544
f 537 538 542 541
f 538 539 543 542
f 539 540 544 543
f 540 537 541 544
f 545 548 547 546
f 549 550 551 552
f 545 546 550 549
f 546 547 551 550
f 547 548 552 551
f 548 545 549 552
f 553 556 555 554
f 557 558 559 560
f 553 554 558 557
f 554 555 559 558
f 555 556 560 559
f 556 553 557 560
f 561 564 563 562
f 565 566 567 568
f 561 562 566 565
f 562 563 567 566
f 563 564 568 567
f 564 561 565 568
f 569 572 571 570
f 573 574 575 576
f 569 570 574 573
f 570 571 575 574
f 571 572 576 575
f 572 569 573 576
f 577 580 579 578
f 581 582 583 584
f 577 578 582 581
f 578 579 583 582
f 579 580 584 583
f 580 577 581 584
f 585 588 587 586
f 589 590 591 592
f 585 586 590 589
f 586 587 591 590
f 587 588 592 591
f 588 585 589 592
f 593 596 595 594
f 597 598 599 600
f 593 594 598 597
f 594 595 599 598
f 595 596 600 599
f 596 593 597 600
usemtl panel
f 601 604 603 602
f 605 606 607 608
f 601 602 606 605
f 602 603 607 606
f 603 604 608 607
f 604 601 605 608
f 609 612 611 610
f 613 614 615 616
f 609 610 614 613
f 610 611 615 614
f 611 612 616 615
f 612 609 613 616
f 617 620 619 618
f 621 622 623 624
f 617 618 622 621
f 618 619 623 622
f 619 620 624 623
f 620 617 621 624
f 625 628 627 626
f 629 630 631 632
f 625 626 630 629
f 626 627 631 630
f 627 628 632 631
f 628 625 629 632
f 633 636 635 634
f 637 638 639 640
f 633 634 638 637
f 634 635 639 638
f 635 636 640 639
f 636 633 637 640
f 641 644 643 642
f 645 646 647 648
f 641 642 646 645
f 642 643 647 646
f 643 644 648 647
f 644 641 645 648
f 649 652 651 650
f 653 654 655 656
f 649 650 654 653
f 650 651 655 654
f 651 652 656 655
f 652 649 653 656
f 657 660 659 658
f 661 662 663 664
f 657 658 662 661
f 658 659 663 662
f 659 660 664 663
f 660 657 661 664
f 665 668 667 666
f 669 670 671 672
f 665 666 670 669
f 666 667 671 670
f 667 668 672 671
f 668 665 669 672
f 673 676 675 674
f 677 678 679 680
f 673 674 678 677
f 674 675 679 678
f 675 676 680 679
f 676 673 677 680
f 681 684 683 682
f 685 686 687 688
f 681 682 686 685
f 682 683 687 686
f 683 684 688 687
f 684 681 685 688
f 689 692 691 690
f 693 694 695 696
f 689 690 694 693
f 690 691 695 694
f 691 692 696 695
f 692 689 693 696
f 697 700 699 698
f 701 702 703 704
f 697 698 702 701
f 698 699 703 702
f 699 700 704 703
f 700 697 701 704
f 705 708 707 706
f 709 710 711 712
f 705 706 710 709
f 706 707 711 710
f 707 708 712 711
f 708 705 709 712
f 713 716 715 714
f 717 718 719 720
f 713 714 718 717
f 714 715 719 718
f 715 716 720 719
f 716 713 717 720
f 721 724 723 722
f 725 726 727 728
f 721 722 726 725
f 722 723 727 726
f 723 724 728 727
f 724 721 725 728
f 729 732 731 730
f 733 734 735 736
f 729 730 734 733
f 730 731 735 734
f 731 732 736 735
f 732 729 733 736
f 737 740 739 738
f 741 742 743 744
f 737 738 742 741
f 738 739 743 742
f 739 740 744 743
f 740 737 741 744
f 745 748 747 746
f 749 750 751 752
f 745 746 750 749
f 746 747 751 750
f 747 748 752 751
f 748 745 749 752
f 753 756 755 754
f 757 758 759 760
f 753 754 758 757
f 754 755 759 758
f 755 756 760 759
f 756 753 757 760
f 761 764 763 762
f 765 766 767 768
f 761 762 766 765
f 762 763 767 766
f 763 764 768 767
f 764 761 765 768
f 769 772 771 770
f 773 774 775 776
f 769 770 774 773
f 770 771 775 774
f 771 772 776 775
f 772 769 773 776
f 777 780 779 778
f 781 782 783 784
f 777 778 782 781
f 778 779 783 782
f 779 780 784 783
f 780 777 781 784
f 785 788 787 786
f 789 790 791 792
f 785 786 790 789
f 786 787 791 790
f 787 788 792 791
f 788 785 789 792
f 793 796 795 794
f 797 798 799 800
f 793 794 798 797
f 794 795 799 798
f 795 796 800 799
f 796 793 797 800
f 801 804 803 802
f 805 806 807 808
f 801 802 806 805
f 802 803 807 806
f 803 804 808 807
f 804 801 805 808
f 809 812 811 810
f 813 814 815 816
f 809 810 814 813
f 810 811 815 814
f 811 812 816 815
f 812 809 813 816
f 817 820 819 818
f 821 822 823 824
f 817 818 822 821
f 818 819 823 822
f 819 820 824 823
f 820 817 821 824
f 825 828 827 826
f 829 830 831 832
f 825 826 830 829
f 826 827 831 830
f 827 828 832 831
f 828 825 829 832
f 833 836 835 834
f 837 838 839 840
f 833 834 838 837
f 834 835 839 838
f 835 836 840 839
f 836 833 837 840
f 841 844 843 842
f 845 846 847 848
f 841 842 846 845
f 842 843 847 846
f 843 844 848 847
f 844 841 845 848
f 849 852 851 850
f 853 854 855 856
f 849 850 854 853
f 850 851 855 854
f 851 852 856 855
f 852 849 853 856
f 857 860 859 858
f 861 862 863 864
f 857 858 862 861
f 858 859 863 862
f 859 860 864 863
f 860 857 861 864
f 865 868 867 866
f 869 870 871 872
f 865 866 870 869
f 866 867 871 870
f 867 868 872 871
f 868 865 869 872
f 873 876 875 874
f 877 878 879 880
f 873 874 878 877
f 874 875 879 878
f 875 876 880 879
f 876 873 877 880
f 881 884 883 882
f 885 886 887 888
f 881 882 886 885
f 882 883 887 886
f 883 884 888 887
f 884 881 885 888
f 889 892 891 890
f 893 894 895 896
f 889 890 894 893
f 890 891 895 894
f 891 892 896 895
f 892 889 893 896
f 897 900 899 898
f 901 902 903 904
f 897 898 902 901
f 898 899 903 902
f 899 900 904 903
f 900 897 901 904
f 905 908 907 906
f 909 910 911 912
f 905 906 910 909
f 906 907 911 910
f 907 908 912 911
f 908 905 909 912
f 913 916 915 914
f 917 918 919 920
f 913 914 918 917
f 914 915 919 918
f 915 916 920 919
f 916 913 917 920
f 921 924 923 922
f 925 926 927 928
f 921 922 926 925
f 922 923 927 926
f 923 924 928 927
f 924 921 925 928
f 929 932 931 930
f 933 934 935 936
f 929 930 934 933
f 930 931 935 934
f 931 932 936 935
f 932 929 933 936
f 937 940 939 938
f 941 942 943 944
f 937 938 942 941
f 938 939 943 942
f 939 940 944 943
f 940 937 941 944
f 945 948 947 946
f 949 950 951 952
f 945 946 950 949
f 946 947 951 950
f 947 948 952 951
f 948 945 949 952
f 953 956 955 954
f 957 958 959 960
f 953 954 958 957
f 954 955 959 958
f 955 956 960 959
f 956 953 957 960
f 961 964 963 962
f 965 966 967 968
f 961 962 966 965
f 962 963 967 966
f 963 964 968 967
f 964 961 965 968
f 969 972 971 970
f 973 974 975 976
f 969 970 974 973
f 970 971 975 974
f 971 972 976 975
f 972 969 973 976
f 977 980 979 978
f 981 982 983 984
f 977 978 982 981
f 978 979 983 982
f 979 980 984 983
f 980 977 981 984
f 985 988 987 986
f 989 990 991 992
f 985 986 990 989
f 986 987 991 990
f 987 988 992 991
f 988 985 989 992
f 993 996 995 994
f 997 998 999 1000
f 993 994 998 997
f 994 995 999 998
f 995 996 1000 999
f 996 993 997 1000
f 1001 1004 1003 1002
f 1005 1006 1007 1008
f 1001 1002 1006 1005
f 1002 1003 1007 1006
f 1003 1004 1008 1007
f 1004 1001 1005 1008
f 1009 1012 1011 1010
f 1013 1014 1015 1016
f 1009 1010 1014 1013
f 1010 1011 1015 1014
f 1011 1012 1016 1015
f 1012 1009 1013 1016
f 1017 1020 1019 1018
f 1021 1022 1023 1024
f 1017 1018 1022 1021
f 1018 1019 1023 1022
f 1019 1020 1024 1023
f 1020 1017 1021 1024
f 1025 1028 1027 1026
f 1029 1030 1031 1032
f 1025 1026 1030 1029
f 1026 1027 1031 1030
f 1027 1028 1032 1031
f 1028 1025 1029 1032
f 1033 1036 1035 1034
f 1037 1038 1039 1040
f 1033 1034 1038 1037
f 1034 1035 1039 1038
f 1035 1036 1040 1039
f 1036 1033 1037 1040
f 1041 1044 1043 1042
f 1045 1046 1047 1048
f 1041 1042 1046 1045
f 1042 1043 1047 1046
f 1043 1044 1048 1047
f 1044 1041 1045 1048
f 1049 1052 1051 1050
f 1053 1054 1055 1056
f 1049 1050 1054 1053
f 1050 1051 1055 1054
f 1051 1052 1056 1055
f 1052 1049 1053 1056
f 1057 1060 1059 1058
f 1061 1062 1063 1064
f 1057 1058 1062 1061
f 1058 1059 1063 1062
f 1059 1060 1064 1063
f 1060 1057 1061 1064
f 1065 1068 1067 1066
f 1069 1070 1071 1072
f 1065 1066 1070 1069
f 1066 1067 1071 1070
f 1067 1068 1072 1071
f 1068 1065 1069 1072
f 1073 1076 1075 1074
f 1077 1078 1079 1080
f 1073 1074 1078 1077
f 1074 1075 1079 1078
f 1075 1076 1080 1079
f 1076 1073 1077 1080
f 1081 1084 1083 1082
f 1085 1086 1087 1088
f 1081 1082 1086 1085
f 1082 1083 1087 1086
f 1083 1084 1088 1087
f 1084 1081 1085 1088
usemtl steel
f 1089 1092 1091 1090
f 1093 1094 1095 1096
f 1089 1090 1094 1093
f 1090 1091 1095 1094
f 1091 1092 1096 1095
f 1092 1089 1093 1096
f 1097 1100 1099 1098
f 1101 1102 1103 1104
f 1097 1098 1102 1101
f 1098 1099 1103 1102
f 1099 1100 1104 1103
f 1100 1097 1101 1104
f 1105 1108 1107 1106
f 1109 1110 1111 1112
f 1105 1106 1110 1109
f 1106 1107 1111 1110
f 1107 1108 1112 1111
f 1108 1105 1109 1112
f 1113 1116 1115 1114
f 1117 1118 1119 1120
f 1113 1114 1118 1117
f 1114 1115 1119 1118
f 1115 1116 1120 1119
f 1116 1113 1117 1120
f 1121 1124 1123 1122
f 1125 1126 1127 1128
f 1121 1122 1126 1125
f 1122 1123 1127 1126
f 1123 1124 1128 1127
f 1124 1121 1125 1128
f 1129 1132 1131 1130
f 1133 1134 1135 1136
f 1129 1130 1134 1133
f 1130 1131 1135 1134
f 1131 1132 1136 1135
f 1132 1129 1133 1136
f 1137 1140 1139 1138
f 1141 1142 1143 1144
f 1137 1138 1142 1141
f 1138 1139 1143 1142
f 1139 1140 1144 1143
f 1140 1137 1141 1144
f 1145 1148 1147 1146
f 1149 1150 1151 1152
f 1145 1146 1150 1149
f 1146 1147 1151 1150
f 1147 1148 1152 1151
f 1148 1145 1149 1152
f 1153 1156 1155 1154
f 1157 1158 1159 1160
f 1153 1154 1158 1157
f 1154 1155 1159 1158
f 1155 1156 1160 1159
f 1156 1153 1157 1160
f 1161 1164 1163 1162
f 1165 1166 1167 1168
f 1161 1162 1166 1165
f 1162 1163 1167 1166
f 1163 1164 1168 1167
f 1164 1161 1165 1168
f 1169 1172 1171 1170
f 1173 1174 1175 1176
f 1169 1170 1174 1173
f 1170 1171 1175 1174
f 1171 1172 1176 1175
f 1172 1169 1173 1176
f 1177 1180 1179 1178
f 1181 1182 1183 1184
f 1177 1178 1182 1181
f 1178 1179 1183 1182
f 1179 1180 1184 1183
f 1180 1177 1181 1184
f 1185 1188 1187 1186
f 1189 1190 1191 1192
f 1185 1186 1190 1189
f 1186 1187 1191 1190
f 1187 1188 1192 1191
f 1188 1185 1189 1192
f 1193 1196 1195 1194
f 1197 1198 1199 1200
f 1193 1194 1198 1197
f 1194 1195 1199 1198
f 1195 1196 1200 1199
f 1196 1193 1197 1200
usemtl galv
f 1201 1204 1203 1202
f 1205 1206 1207 1208
f 1201 1202 1206 1205
f 1202 1203 1207 1206
f 1203 1204 1208 1207
f 1204 1201 1205 1208
f 1209 1212 1211 1210
f 1213 1214 1215 1216
f 1209 1210 1214 1213
f 1210 1211 1215 1214
f 1211 1212 1216 1215
f 1212 1209 1213 1216
f 1217 1220 1219 1218
f 1221 1222 1223 1224
f 1217 1218 1222 1221
f 1218 1219 1223 1222
f 1219 1220 1224 1223
f 1220 1217 1221 1224
f 1225 1228 1227 1226
f 1229 1230 1231 1232
f 1225 1226 1230 1229
f 1226 1227 1231 1230
f 1227 1228 1232 1231
f 1228 1225 1229 1232
usemtl roof
f 1233 1234 1235 1236
f 1237 1238 1239 1240
f 1241 1242 1243 1244
f 1245 1246 1247 1248
usemtl panel
f 1249 1252 1251 1250
f 1253 1254 1255 1256
f 1249 1250 1254 1253
f 1250 1251 1255 1254
f 1251 1252 1256 1255
f 1252 1249 1253 1256
f 1257 1260 1259 1258
f 1261 1262 1263 1264
f 1257 1258 1262 1261
f 1258 1259 1263 1262
f 1259 1260 1264 1263
f 1260 1257 1261 1264
f 1265 1268 1267 1266
f 1269 1270 1271 1272
f 1265 1266 1270 1269
f 1266 1267 1271 1270
f 1267 1268 1272 1271
f 1268 1265 1269 1272
f 1273 1276 1275 1274
f 1277 1278 1279 1280
f 1273 1274 1278 1277
f 1274 1275 1279 1278
f 1275 1276 1280 1279
f 1276 1273 1277 1280
f 1281 1284 1283 1282
f 1285 1286 1287 1288
f 1281 1282 1286 1285
f 1282 1283 1287 1286
f 1283 1284 1288 1287
f 1284 1281 1285 1288
f 1289 1292 1291 1290
f 1293 1294 1295 1296
f 1289 1290 1294 1293
f 1290 1291 1295 1294
f 1291 1292 1296 1295
f 1292 1289 1293 1296
f 1297 1300 1299 1298
f 1301 1302 1303 1304
f 1297 1298 1302 1301
f 1298 1299 1303 1302
f 1299 1300 1304 1303
f 1300 1297 1301 1304
f 1305 1308 1307 1306
f 1309 1310 1311 1312
f 1305 1306 1310 1309
f 1306 1307 1311 1310
f 1307 1308 1312 1311
f 1308 1305 1309 1312
f 1313 1316 1315 1314
f 1317 1318 1319 1320
f 1313 1314 1318 1317
f 1314 1315 1319 1318
f 1315 1316 1320 1319
f 1316 1313 1317 1320
f 1321 1324 1323 1322
f 1325 1326 1327 1328
f 1321 1322 1326 1325
f 1322 1323 1327 1326
f 1323 1324 1328 1327
f 1324 1321 1325 1328
f 1329 1332 1331 1330
f 1333 1334 1335 1336
f 1329 1330 1334 1333
f 1330 1331 1335 1334
f 1331 1332 1336 1335
f 1332 1329 1333 1336
f 1337 1340 1339 1338
f 1341 1342 1343 1344
f 1337 1338 1342 1341
f 1338 1339 1343 1342
f 1339 1340 1344 1343
f 1340 1337 1341 1344
f 1345 1348 1347 1346
f 1349 1350 1351 1352
f 1345 1346 1350 1349
f 1346 1347 1351 1350
f 1347 1348 1352 1351
f 1348 1345 1349 1352
f 1353 1356 1355 1354
f 1357 1358 1359 1360
f 1353 1354 1358 1357
f 1354 1355 1359 1358
f 1355 1356 1360 1359
f 1356 1353 1357 1360
f 1361 1364 1363 1362
f 1365 1366 1367 1368
f 1361 1362 1366 1365
f 1362 1363 1367 1366
f 1363 1364 1368 1367
f 1364 1361 1365 1368
f 1369 1372 1371 1370
f 1373 1374 1375 1376
f 1369 1370 1374 1373
f 1370 1371 1375 1374
f 1371 1372 1376 1375
f 1372 1369 1373 1376
f 1377 1380 1379 1378
f 1381 1382 1383 1384
f 1377 1378 1382 1381
f 1378 1379 1383 1382
f 1379 1380 1384 1383
f 1380 1377 1381 1384
f 1385 1388 1387 1386
f 1389 1390 1391 1392
f 1385 1386 1390 1389
f 1386 1387 1391 1390
f 1387 1388 1392 1391
f 1388 1385 1389 1392
f 1393 1396 1395 1394
f 1397 1398 1399 1400
f 1393 1394 1398 1397
f 1394 1395 1399 1398
f 1395 1396 1400 1399
f 1396 1393 1397 1400
f 1401 1404 1403 1402
f 1405 1406 1407 1408
f 1401 1402 1406 1405
f 1402 1403 1407 1406
f 1403 1404 1408 1407
f 1404 1401 1405 1408
f 1409 1412 1411 1410
f 1413 1414 1415 1416
f 1409 1410 1414 1413
f 1410 1411 1415 1414
f 1411 1412 1416 1415
f 1412 1409 1413 1416
f 1417 1420 1419 1418
f 1421 1422 1423 1424
f 1417 1418 1422 1421
f 1418 1419 1423 1422
f 1419 1420 1424 1423
f 1420 1417 1421 1424
f 1425 1428 1427 1426
f 1429 1430 1431 1432
f 1425 1426 1430 1429
f 1426 1427 1431 1430
f 1427 1428 1432 1431
f 1428 1425 1429 1432
f 1433 1436 1435 1434
f 1437 1438 1439 1440
f 1433 1434 1438 1437
f 1434 1435 1439 1438
f 1435 1436 1440 1439
f 1436 1433 1437 1440
f 1441 1444 1443 1442
f 1445 1446 1447 1448
f 1441 1442 1446 1445
f 1442 1443 1447 1446
f 1443 1444 1448 1447
f 1444 1441 1445 1448
f 1449 1452 1451 1450
f 1453 1454 1455 1456
f 1449 1450 1454 1453
f 1450 1451 1455 1454
f 1451 1452 1456 1455
f 1452 1449 1453 1456
f 1457 1460 1459 1458
f 1461 1462 1463 1464
f 1457 1458 1462 1461
f 1458 1459 1463 1462
f 1459 1460 1464 1463
f 1460 1457 1461 1464
f 1465 1468 1467 1466
f 1469 1470 1471 1472
f 1465 1466 1470 1469
f 1466 1467 1471 1470
f 1467 1468 1472 1471
f 1468 1465 1469 1472
f 1473 1476 1475 1474
f 1477 1478 1479 1480
f 1473 1474 1478 1477
f 1474 1475 1479 1478
f 1475 1476 1480 1479
f 1476 1473 1477 1480
usemtl hay
f 1481 1484 1483 1482
f 1485 1486 1487 1488
f 1481 1482 1486 1485
f 1482 1483 1487 1486
f 1483 1484 1488 1487
f 1484 1481 1485 1488
usemtl panel
f 1489 1492 1491 1490
f 1493 1494 1495 1496
f 1489 1490 1494 1493
f 1490 1491 1495 1494
f 1491 1492 1496 1495
f 1492 1489 1493 1496
f 1497 1500 1499 1498
f 1501 1502 1503 1504
f 1497 1498 1502 1501
f 1498 1499 1503 1502
f 1499 1500 1504 1503
f 1500 1497 1501 1504
f 1505 1508 1507 1506
f 1509 1510 1511 1512
f 1505 1506 1510 1509
f 1506 1507 1511 1510
f 1507 1508 1512 1511
f 1508 1505 1509 1512
f 1513 1516 1515 1514
f 1517 1518 1519 1520
f 1513 1514 1518 1517
f 1514 1515 1519 1518
f 1515 1516 1520 1519
f 1516 1513 1517 1520
f 1521 1524 1523 1522
f 1525 1526 1527 1528
f 1521 1522 1526 1525
f 1522 1523 1527 1526
f 1523 1524 1528 1527
f 1524 1521 1525 1528
f 1529 1532 1531 1530
f 1533 1534 1535 1536
f 1529 1530 1534 1533
f 1530 1531 1535 1534
f 1531 1532 1536 1535
f 1532 1529 1533 1536
f 1537 1540 1539 1538
f 1541 1542 1543 1544
f 1537 1538 1542 1541
f 1538 1539 1543 1542
f 1539 1540 1544 1543
f 1540 1537 1541 1544
f 1545 1548 1547 1546
f 1549 1550 1551 1552
f 1545 1546 1550 1549
f 1546 1547 1551 1550
f 1547 1548 1552 1551
f 1548 1545 1549 1552
f 1553 1556 1555 1554
f 1557 1558 1559 1560
f 1553 1554 1558 1557
f 1554 1555 1559 1558
f 1555 1556 1560 1559
f 1556 1553 1557 1560
f 1561 1564 1563 1562
f 1565 1566 1567 1568
f 1561 1562 1566 1565
f 1562 1563 1567 1566
f 1563 1564 1568 1567
f 1564 1561 1565 1568
f 1569 1572 1571 1570
f 1573 1574 1575 1576
f 1569 1570 1574 1573
f 1570 1571 1575 1574
f 1571 1572 1576 1575
f 1572 1569 1573 1576
f 1577 1580 1579 1578
f 1581 1582 1583 1584
f 1577 1578 1582 1581
f 1578 1579 1583 1582
f 1579 1580 1584 1583
f 1580 1577 1581 1584
f 1585 1588 1587 1586
f 1589 1590 1591 1592
f 1585 1586 1590 1589
f 1586 1587 1591 1590
f 1587 1588 1592 1591
f 1588 1585 1589 1592
f 1593 1596 1595 1594
f 1597 1598 1599 1600
f 1593 1594 1598 1597
f 1594 1595 1599 1598
f 1595 1596 1600 1599
f 1596 1593 1597 1600
f 1601 1604 1603 1602
f 1605 1606 1607 1608
f 1601 1602 1606 1605
f 1602 1603 1607 1606
f 1603 1604 1608 1607
f 1604 1601 1605 1608
f 1609 1612 1611 1610
f 1613 1614 1615 1616
f 1609 1610 1614 1613
f 1610 1611 1615 1614
f 1611 1612 1616 1615
f 1612 1609 1613 1616
f 1617 1620 1619 1618
f 1621 1622 1623 1624
f 1617 1618 1622 1621
f 1618 1619 1623 1622
f 1619 1620 1624 1623
f 1620 1617 1621 1624
f 1625 1628 1627 1626
f 1629 1630 1631 1632
f 1625 1626 1630 1629
f 1626 1627 1631 1630
f 1627 1628 1632 1631
f 1628 1625 1629 1632
f 1633 1636 1635 1634
f 1637 1638 1639 1640
f 1633 1634 1638 1637
f 1634 1635 1639 1638
f 1635 1636 1640 1639
f 1636 1633 1637 1640
f 1641 1644 1643 1642
f 1645 1646 1647 1648
f 1641 1642 1646 1645
f 1642 1643 1647 1646
f 1643 1644 1648 1647
f 1644 1641 1645 1648
f 1649 1652 1651 1650
f 1653 1654 1655 1656
f 1649 1650 1654 1653
f 1650 1651 1655 1654
f 1651 1652 1656 1655
f 1652 1649 1653 1656
f 1657 1660 1659 1658
f 1661 1662 1663 1664
f 1657 1658 1662 1661
f 1658 1659 1663 1662
f 1659 1660 1664 1663
f 1660 1657 1661 1664
f 1665 1668 1667 1666
f 1669 1670 1671 1672
f 1665 1666 1670 1669
f 1666 1667 1671 1670
f 1667 1668 1672 1671
f 1668 1665 1669 1672
f 1673 1676 1675 1674
f 1677 1678 1679 1680
f 1673 1674 1678 1677
f 1674 1675 1679 1678
f 1675 1676 1680 1679
f 1676 1673 1677 1680
f 1681 1684 1683 1682
f 1685 1686 1687 1688
f 1681 1682 1686 1685
f 1682 1683 1687 1686
f 1683 1684 1688 1687
f 1684 1681 1685 1688
f 1689 1692 1691 1690
f 1693 1694 1695 1696
f 1689 1690 1694 1693
f 1690 1691 1695 1694
f 1691 1692 1696 1695
f 1692 1689 1693 1696
f 1697 1700 1699 1698
f 1701 1702 1703 1704
f 1697 1698 1702 1701
f 1698 1699 1703 1702
f 1699 1700 1704 1703
f 1700 1697 1701 1704
f 1705 1708 1707 1706
f 1709 1710 1711 1712
f 1705 1706 1710 1709
f 1706 1707 1711 1710
f 1707 1708 1712 1711
f 1708 1705 1709 1712
f 1713 1716 1715 1714
f 1717 1718 1719 1720
f 1713 1714 1718 1717
f 1714 1715 1719 1718
f 1715 1716 1720 1719
f 1716 1713 1717 1720
usemtl hay
f 1721 1724 1723 1722
f 1725 1726 1727 1728
f 1721 1722 1726 1725
f 1722 1723 1727 1726
f 1723 1724 1728 1727
f 1724 1721 1725 1728
usemtl steel
f 1729 1732 1731 1730
f 1733 1734 1735 1736
f 1729 1730 1734 1733
f 1730 1731 1735 1734
f 1731 1732 1736 1735
f 1732 1729 1733 1736
usemtl rock
f 1737 1738 1739 1740
f 1741 1742 1743 1744
f 1745 1746 1747 1748
f 1749 1750 1751 1752
f 1753 1754 1755 1756
f 1757 1758 1759 1760
f 1761 1762 1763 1764
f 1765 1766 1767 1768
f 1769 1770 1771 1772
f 1773 1774 1775 1776
f 1777 1778 1779 1780
f 1781 1782 1783 1784
f 1785 1786 1787 1788
f 1789 1790 1791 1792
f 1793 1794 1795 1796
f 1797 1798 1799 1800
f 1801 1802 1803 1804
f 1805 1806 1807 1808
f 1809 1810 1811 1812
f 1813 1814 1815 1816
f 1817 1818 1819 1820
f 1821 1822 1823 1824
f 1825 1826 1827 1828
f 1829 1830 1831 1832
f 1833 1834 1835 1836
f 1837 1838 1839 1840
f 1841 1842 1843 1844
f 1845 1846 1847 1848
f 1849 1850 1851 1852
f 1853 1854 1855 1856
f 1857 1858 1859 1860
f 1861 1862 1863 1864
f 1865 1866 1867 1868
f 1869 1870 1871 1872
f 1873 1874 1875 1876
f 1877 1878 1879 1880
f 1881 1882 1883 1884
f 1885 1886 1887 1888
f 1889 1890 1891 1892
f 1893 1894 1895 1896
f 1897 1898 1899 1900
f 1901 1902 1903 1904
f 1905 1906 1907 1908
f 1909 1910 1911 1912
f 1913 1914 1915 1916
f 1917 1918 1919 1920
f 1921 1922 1923 1924
f 1925 1926 1927 1928
f 1929 1930 1931 1932
f 1933 1934 1935 1936
f 1937 1938 1939 1940
f 1941 1942 1943 1944
f 1945 1946 1947 1948
f 1949 1950 1951 1952
f 1953 1954 1955 1956
f 1957 1958 1959 1960
f 1961 1962 1963 1964
f 1965 1966 1967 1968
f 1969 1970 1971 1972
f 1973 1974 1975 1976
f 1977 1978 1979 1980
f 1981 1982 1983 1984
f 1985 1986 1987 1988
f 1989 1990 1991 1992
f 1993 1994 1995 1996
f 1997 1998 1999 2000
f 2001 2002 2003 2004
f 2005 2006 2007 2008
f 2009 2010 2011 2012
f 2013 2014 2015 2016
f 2017 2018 2019 2020
f 2021 2022 2023 2024
usemtl water
f 2025 2026 2027 2028 2029 2030 2031 2032 2033 2034 2035 2036 2037 2038 2039 2040 2041 2042 2043 2044 2045 2046 2047 2048
usemtl steel
f 2049 2050 2051 2052
f 2053 2054 2055 2056
f 2057 2058 2059 2060
f 2061 2062 2063 2064
f 2065 2066 2067 2068
f 2069 2070 2071 2072
f 2073 2074 2075 2076
f 2077 2078 2079 2080
f 2081 2082 2083 2084
f 2085 2086 2087 2088
f 2089 2090 2091 2092
f 2093 2094 2095 2096
f 2097 2098 2099 2100
f 2101 2102 2103 2104
f 2105 2106 2107 2108
f 2109 2110 2111 2112
f 2113 2114 2115 2116
f 2117 2118 2119 2120
f 2121 2122 2123 2124
f 2125 2126 2127 2128
f 2129 2130 2131 2132
f 2133 2134 2135 2136
f 2137 2138 2139 2140
f 2141 2142 2143 2144
f 2145 2146 2147 2148
f 2149 2150 2151 2152
f 2153 2154 2155 2156
f 2157 2158 2159 2160
f 2161 2162 2163 2164
f 2165 2166 2167 2168
f 2169 2170 2171 2172
f 2173 2174 2175 2176
f 2177 2178 2179 2180
f 2181 2182 2183 2184
f 2185 2186 2187 2188
f 2189 2190 2191 2192
f 2193 2194 2195 2196
f 2197 2198 2199 2200
f 2201 2202 2203 2204
f 2205 2206 2207 2208
f 2209 2212 2211 2210
f 2213 2214 2215 2216
f 2209 2210 2214 2213
f 2210 2211 2215 2214
f 2211 2212 2216 2215
f 2212 2209 2213 2216
