# fieldstone trough 32 x 3.5 ft along the outside of the north-east run fence, 4 ft off the wall line, rim 2 ft, fed by the north gutter (Will, 4 Oct night)
# unit m
# name east trough
v 1.509 -4.668 0.422
v 2.483 -4.231 0.422
v -1.509 4.668 0.422
v -2.483 4.231 0.422
v -2.483 4.231 0.000
v -1.509 4.668 0.000
v 2.483 -4.231 0.000
v 1.509 -4.668 0.000
v 1.509 -4.668 0.000
v 2.483 -4.231 0.000
v 2.483 -4.231 0.422
v 1.509 -4.668 0.422
v 2.483 -4.231 0.000
v -1.509 4.668 0.000
v -1.509 4.668 0.422
v 2.483 -4.231 0.422
v -1.509 4.668 0.000
v -2.483 4.231 0.000
v -2.483 4.231 0.422
v -1.509 4.668 0.422
v -2.483 4.231 0.000
v 1.509 -4.668 0.000
v 1.509 -4.668 0.422
v -2.483 4.231 0.422
v 1.509 -4.668 0.910
v 1.704 -4.581 0.910
v -2.288 4.319 0.910
v -2.483 4.231 0.910
v -2.483 4.231 0.422
v -2.288 4.319 0.422
v 1.704 -4.581 0.422
v 1.509 -4.668 0.422
v 1.509 -4.668 0.422
v 1.704 -4.581 0.422
v 1.704 -4.581 0.910
v 1.509 -4.668 0.910
v 1.704 -4.581 0.422
v -2.288 4.319 0.422
v -2.288 4.319 0.910
v 1.704 -4.581 0.910
v -2.288 4.319 0.422
v -2.483 4.231 0.422
v -2.483 4.231 0.910
v -2.288 4.319 0.910
v -2.483 4.231 0.422
v 1.509 -4.668 0.422
v 1.509 -4.668 0.910
v -2.483 4.231 0.910
v 2.288 -4.319 0.910
v 2.483 -4.231 0.910
v -1.509 4.668 0.910
v -1.704 4.581 0.910
v -1.704 4.581 0.422
v -1.509 4.668 0.422
v 2.483 -4.231 0.422
v 2.288 -4.319 0.422
v 2.288 -4.319 0.422
v 2.483 -4.231 0.422
v 2.483 -4.231 0.910
v 2.288 -4.319 0.910
v 2.483 -4.231 0.422
v -1.509 4.668 0.422
v -1.509 4.668 0.910
v 2.483 -4.231 0.910
v -1.509 4.668 0.422
v -1.704 4.581 0.422
v -1.704 4.581 0.910
v -1.509 4.668 0.910
v -1.704 4.581 0.422
v 2.288 -4.319 0.422
v 2.288 -4.319 0.910
v -1.704 4.581 0.910
v 1.509 -4.668 0.910
v 2.483 -4.231 0.910
v 2.395 -4.037 0.910
v 1.422 -4.473 0.910
v 1.422 -4.473 0.422
v 2.395 -4.037 0.422
v 2.483 -4.231 0.422
v 1.509 -4.668 0.422
v 1.509 -4.668 0.422
v 2.483 -4.231 0.422
v 2.483 -4.231 0.910
v 1.509 -4.668 0.910
v 2.483 -4.231 0.422
v 2.395 -4.037 0.422
v 2.395 -4.037 0.910
v 2.483 -4.231 0.910
v 2.395 -4.037 0.422
v 1.422 -4.473 0.422
v 1.422 -4.473 0.910
v 2.395 -4.037 0.910
v 1.422 -4.473 0.422
v 1.509 -4.668 0.422
v 1.509 -4.668 0.910
v 1.422 -4.473 0.910
v -2.395 4.037 0.910
v -1.422 4.473 0.910
v -1.509 4.668 0.910
v -2.483 4.231 0.910
v -2.483 4.231 0.422
v -1.509 4.668 0.422
v -1.422 4.473 0.422
v -2.395 4.037 0.422
v -2.395 4.037 0.422
v -1.422 4.473 0.422
v -1.422 4.473 0.910
v -2.395 4.037 0.910
v -1.422 4.473 0.422
v -1.509 4.668 0.422
v -1.509 4.668 0.910
v -1.422 4.473 0.910
v -1.509 4.668 0.422
v -2.483 4.231 0.422
v -2.483 4.231 0.910
v -1.509 4.668 0.910
v -2.483 4.231 0.422
v -2.395 4.037 0.422
v -2.395 4.037 0.910
v -2.483 4.231 0.910
v 1.617 -4.386 0.803
v 2.201 -4.124 0.803
v -1.617 4.386 0.803
v -2.201 4.124 0.803
usemtl rock
f 1 2 3 4
f 5 6 7 8
f 9 10 11 12
f 13 14 15 16
f 17 18 19 20
f 21 22 23 24
f 25 26 27 28
f 29 30 31 32
f 33 34 35 36
f 37 38 39 40
f 41 42 43 44
f 45 46 47 48
f 49 50 51 52
f 53 54 55 56
f 57 58 59 60
f 61 62 63 64
f 65 66 67 68
f 69 70 71 72
f 73 74 75 76
f 77 78 79 80
f 81 82 83 84
f 85 86 87 88
f 89 90 91 92
f 93 94 95 96
f 97 98 99 100
f 101 102 103 104
f 105 106 107 108
f 109 110 111 112
f 113 114 115 116
f 117 118 119 120
usemtl water
f 121 122 123 124
