# electrical room 10 x 8 ft: main panel, solar inverter + battery, C1 pump control; stone base, cob walls, shed roof (Will, 4 Oct, sheet E-1)
# unit m
# name electrical room
v -1.325 -1.954 1.214
v 1.456 -0.707 1.214
v 1.331 -0.429 1.214
v -1.450 -1.676 1.214
v -1.450 -1.676 0.000
v 1.331 -0.429 0.000
v 1.456 -0.707 0.000
v -1.325 -1.954 0.000
v -1.325 -1.954 0.000
v 1.456 -0.707 0.000
v 1.456 -0.707 1.214
v -1.325 -1.954 1.214
v 1.456 -0.707 0.000
v 1.331 -0.429 0.000
v 1.331 -0.429 1.214
v 1.456 -0.707 1.214
v 1.331 -0.429 0.000
v -1.450 -1.676 0.000
v -1.450 -1.676 1.214
v 1.331 -0.429 1.214
v -1.450 -1.676 0.000
v -1.325 -1.954 0.000
v -1.325 -1.954 1.214
v -1.450 -1.676 1.214
v -1.325 -1.954 2.738
v 1.456 -0.707 2.738
v 1.331 -0.429 2.738
v -1.450 -1.676 2.738
v -1.450 -1.676 1.214
v 1.331 -0.429 1.214
v 1.456 -0.707 1.214
v -1.325 -1.954 1.214
v -1.325 -1.954 1.214
v 1.456 -0.707 1.214
v 1.456 -0.707 2.738
v -1.325 -1.954 2.738
v 1.456 -0.707 1.214
v 1.331 -0.429 1.214
v 1.331 -0.429 2.738
v 1.456 -0.707 2.738
v 1.331 -0.429 1.214
v -1.450 -1.676 1.214
v -1.450 -1.676 2.738
v 1.331 -0.429 2.738
v -1.450 -1.676 1.214
v -1.325 -1.954 1.214
v -1.325 -1.954 2.738
v -1.450 -1.676 2.738
v -2.198 -0.008 1.214
v 0.583 1.240 1.214
v 0.458 1.518 1.214
v -2.323 0.270 1.214
v -2.323 0.270 0.000
v 0.458 1.518 0.000
v 0.583 1.240 0.000
v -2.198 -0.008 0.000
v -2.198 -0.008 0.000
v 0.583 1.240 0.000
v 0.583 1.240 1.214
v -2.198 -0.008 1.214
v 0.583 1.240 0.000
v 0.458 1.518 0.000
v 0.458 1.518 1.214
v 0.583 1.240 1.214
v 0.458 1.518 0.000
v -2.323 0.270 0.000
v -2.323 0.270 1.214
v 0.458 1.518 1.214
v -2.323 0.270 0.000
v -2.198 -0.008 0.000
v -2.198 -0.008 1.214
v -2.323 0.270 1.214
v -2.198 -0.008 2.738
v 0.583 1.240 2.738
v 0.458 1.518 2.738
v -2.323 0.270 2.738
v -2.323 0.270 1.214
v 0.458 1.518 1.214
v 0.583 1.240 1.214
v -2.198 -0.008 1.214
v -2.198 -0.008 1.214
v 0.583 1.240 1.214
v 0.583 1.240 2.738
v -2.198 -0.008 2.738
v 0.583 1.240 1.214
v 0.458 1.518 1.214
v 0.458 1.518 2.738
v 0.583 1.240 2.738
v 0.458 1.518 1.214
v -2.323 0.270 1.214
v -2.323 0.270 2.738
v 0.458 1.518 2.738
v -2.323 0.270 1.214
v -2.198 -0.008 1.214
v -2.198 -0.008 2.738
v -2.323 0.270 2.738
v -1.450 -1.676 1.214
v -1.172 -1.551 1.214
v -1.920 0.117 1.214
v -2.198 -0.008 1.214
v -2.198 -0.008 0.000
v -1.920 0.117 0.000
v -1.172 -1.551 0.000
v -1.450 -1.676 0.000
v -1.450 -1.676 0.000
v -1.172 -1.551 0.000
v -1.172 -1.551 1.214
v -1.450 -1.676 1.214
v -1.172 -1.551 0.000
v -1.920 0.117 0.000
v -1.920 0.117 1.214
v -1.172 -1.551 1.214
v -1.920 0.117 0.000
v -2.198 -0.008 0.000
v -2.198 -0.008 1.214
v -1.920 0.117 1.214
v -2.198 -0.008 0.000
v -1.450 -1.676 0.000
v -1.450 -1.676 1.214
v -2.198 -0.008 1.214
v -1.450 -1.676 2.738
v -1.172 -1.551 2.738
v -1.920 0.117 2.738
v -2.198 -0.008 2.738
v -2.198 -0.008 1.214
v -1.920 0.117 1.214
v -1.172 -1.551 1.214
v -1.450 -1.676 1.214
v -1.450 -1.676 1.214
v -1.172 -1.551 1.214
v -1.172 -1.551 2.738
v -1.450 -1.676 2.738
v -1.172 -1.551 1.214
v -1.920 0.117 1.214
v -1.920 0.117 2.738
v -1.172 -1.551 2.738
v -1.920 0.117 1.214
v -2.198 -0.008 1.214
v -2.198 -0.008 2.738
v -1.920 0.117 2.738
v -2.198 -0.008 1.214
v -1.450 -1.676 1.214
v -1.450 -1.676 2.738
v -2.198 -0.008 2.738
v -2.198 -0.008 2.982
v 0.583 1.240 2.982
v 0.458 1.518 2.982
v -2.323 0.270 2.982
v -2.323 0.270 2.738
v 0.458 1.518 2.738
v 0.583 1.240 2.738
v -2.198 -0.008 2.738
v -2.198 -0.008 2.738
v 0.583 1.240 2.738
v 0.583 1.240 2.982
v -2.198 -0.008 2.982
v 0.583 1.240 2.738
v 0.458 1.518 2.738
v 0.458 1.518 2.982
v 0.583 1.240 2.982
v 0.458 1.518 2.738
v -2.323 0.270 2.738
v -2.323 0.270 2.982
v 0.458 1.518 2.982
v -2.323 0.270 2.738
v -2.198 -0.008 2.738
v -2.198 -0.008 2.982
v -2.323 0.270 2.982
v 1.053 -0.553 1.214
v 1.331 -0.429 1.214
v 1.144 -0.012 1.214
v 0.866 -0.136 1.214
v 0.866 -0.136 0.000
v 1.144 -0.012 0.000
v 1.331 -0.429 0.000
v 1.053 -0.553 0.000
v 1.053 -0.553 0.000
v 1.331 -0.429 0.000
v 1.331 -0.429 1.214
v 1.053 -0.553 1.214
v 1.331 -0.429 0.000
v 1.144 -0.012 0.000
v 1.144 -0.012 1.214
v 1.331 -0.429 1.214
v 1.144 -0.012 0.000
v 0.866 -0.136 0.000
v 0.866 -0.136 1.214
v 1.144 -0.012 1.214
v 0.866 -0.136 0.000
v 1.053 -0.553 0.000
v 1.053 -0.553 1.214
v 0.866 -0.136 1.214
v 1.053 -0.553 2.738
v 1.331 -0.429 2.738
v 1.144 -0.012 2.738
v 0.866 -0.136 2.738
v 0.866 -0.136 1.214
v 1.144 -0.012 1.214
v 1.331 -0.429 1.214
v 1.053 -0.553 1.214
v 1.053 -0.553 1.214
v 1.331 -0.429 1.214
v 1.331 -0.429 2.738
v 1.053 -0.553 2.738
v 1.331 -0.429 1.214
v 1.144 -0.012 1.214
v 1.144 -0.012 2.738
v 1.331 -0.429 2.738
v 1.144 -0.012 1.214
v 0.866 -0.136 1.214
v 0.866 -0.136 2.738
v 1.144 -0.012 2.738
v 0.866 -0.136 1.214
v 1.053 -0.553 1.214
v 1.053 -0.553 2.738
v 0.866 -0.136 2.738
v 0.492 0.698 1.214
v 0.770 0.823 1.214
v 0.583 1.240 1.214
v 0.305 1.115 1.214
v 0.305 1.115 0.000
v 0.583 1.240 0.000
v 0.770 0.823 0.000
v 0.492 0.698 0.000
v 0.492 0.698 0.000
v 0.770 0.823 0.000
v 0.770 0.823 1.214
v 0.492 0.698 1.214
v 0.770 0.823 0.000
v 0.583 1.240 0.000
v 0.583 1.240 1.214
v 0.770 0.823 1.214
v 0.583 1.240 0.000
v 0.305 1.115 0.000
v 0.305 1.115 1.214
v 0.583 1.240 1.214
v 0.305 1.115 0.000
v 0.492 0.698 0.000
v 0.492 0.698 1.214
v 0.305 1.115 1.214
v 0.492 0.698 2.738
v 0.770 0.823 2.738
v 0.583 1.240 2.738
v 0.305 1.115 2.738
v 0.305 1.115 1.214
v 0.583 1.240 1.214
v 0.770 0.823 1.214
v 0.492 0.698 1.214
v 0.492 0.698 1.214
v 0.770 0.823 1.214
v 0.770 0.823 2.738
v 0.492 0.698 2.738
v 0.770 0.823 1.214
v 0.583 1.240 1.214
v 0.583 1.240 2.738
v 0.770 0.823 2.738
v 0.583 1.240 1.214
v 0.305 1.115 1.214
v 0.305 1.115 2.738
v 0.583 1.240 2.738
v 0.305 1.115 1.214
v 0.492 0.698 1.214
v 0.492 0.698 2.738
v 0.305 1.115 2.738
v 0.866 -0.136 2.738
v 1.144 -0.012 2.738
v 0.770 0.823 2.738
v 0.492 0.698 2.738
v 0.492 0.698 2.434
v 0.770 0.823 2.434
v 1.144 -0.012 2.434
v 0.866 -0.136 2.434
v 0.866 -0.136 2.434
v 1.144 -0.012 2.434
v 1.144 -0.012 2.738
v 0.866 -0.136 2.738
v 1.144 -0.012 2.434
v 0.770 0.823 2.434
v 0.770 0.823 2.738
v 1.144 -0.012 2.738
v 0.770 0.823 2.434
v 0.492 0.698 2.434
v 0.492 0.698 2.738
v 0.770 0.823 2.738
v 0.492 0.698 2.434
v 0.866 -0.136 2.434
v 0.866 -0.136 2.738
v 0.492 0.698 2.738
v 0.985 -0.066 2.384
v 1.027 -0.048 2.384
v 0.665 0.759 2.384
v 0.623 0.740 2.384
v 0.623 0.740 0.300
v 0.665 0.759 0.300
v 1.027 -0.048 0.300
v 0.985 -0.066 0.300
v 0.985 -0.066 0.300
v 1.027 -0.048 0.300
v 1.027 -0.048 2.384
v 0.985 -0.066 2.384
v 1.027 -0.048 0.300
v 0.665 0.759 0.300
v 0.665 0.759 2.384
v 1.027 -0.048 2.384
v 0.665 0.759 0.300
v 0.623 0.740 0.300
v 0.623 0.740 2.384
v 0.665 0.759 2.384
v 0.623 0.740 0.300
v 0.985 -0.066 0.300
v 0.985 -0.066 2.384
v 0.623 0.740 2.384
v -1.325 -1.954 2.738
v -2.323 0.270 2.738
v -2.323 0.270 2.982
v 1.456 -0.707 2.738
v 0.458 1.518 2.738
v 0.458 1.518 2.982
v -1.478 -2.357 2.808
v 1.859 -0.860 2.808
v 0.611 1.921 3.113
v -2.726 0.424 3.113
v -1.478 -2.357 2.888
v 1.859 -0.860 2.888
v 0.611 1.921 3.193
v -2.726 0.424 3.193
v 1.381 -0.540 2.007
v 1.478 -0.496 2.007
v 1.329 -0.163 2.007
v 1.231 -0.206 2.007
v 1.231 -0.206 1.519
v 1.329 -0.163 1.519
v 1.478 -0.496 1.519
v 1.381 -0.540 1.519
v 1.381 -0.540 1.519
v 1.478 -0.496 1.519
v 1.478 -0.496 2.007
v 1.381 -0.540 2.007
v 1.478 -0.496 1.519
v 1.329 -0.163 1.519
v 1.329 -0.163 2.007
v 1.478 -0.496 2.007
v 1.329 -0.163 1.519
v 1.231 -0.206 1.519
v 1.231 -0.206 2.007
v 1.329 -0.163 2.007
v 1.231 -0.206 1.519
v 1.381 -0.540 1.519
v 1.381 -0.540 2.007
v 1.231 -0.206 2.007
usemtl rock
f 1 2 3 4
f 5 6 7 8
f 9 10 11 12
f 13 14 15 16
f 17 18 19 20
f 21 22 23 24
usemtl cob
f 25 26 27 28
f 29 30 31 32
f 33 34 35 36
f 37 38 39 40
f 41 42 43 44
f 45 46 47 48
usemtl rock
f 49 50 51 52
f 53 54 55 56
f 57 58 59 60
f 61 62 63 64
f 65 66 67 68
f 69 70 71 72
usemtl cob
f 73 74 75 76
f 77 78 79 80
f 81 82 83 84
f 85 86 87 88
f 89 90 91 92
f 93 94 95 96
usemtl rock
f 97 98 99 100
f 101 102 103 104
f 105 106 107 108
f 109 110 111 112
f 113 114 115 116
f 117 118 119 120
usemtl cob
f 121 122 123 124
f 125 126 127 128
f 129 130 131 132
f 133 134 135 136
f 137 138 139 140
f 141 142 143 144
f 145 146 147 148
f 149 150 151 152
f 153 154 155 156
f 157 158 159 160
f 161 162 163 164
f 165 166 167 168
usemtl rock
f 169 170 171 172
f 173 174 175 176
f 177 178 179 180
f 181 182 183 184
f 185 186 187 188
f 189 190 191 192
usemtl cob
f 193 194 195 196
f 197 198 199 200
f 201 202 203 204
f 205 206 207 208
f 209 210 211 212
f 213 214 215 216
usemtl rock
f 217 218 219 220
f 221 222 223 224
f 225 226 227 228
f 229 230 231 232
f 233 234 235 236
f 237 238 239 240
usemtl cob
f 241 242 243 244
f 245 246 247 248
f 249 250 251 252
f 253 254 255 256
f 257 258 259 260
f 261 262 263 264
f 265 266 267 268
f 269 270 271 272
f 273 274 275 276
f 277 278 279 280
f 281 282 283 284
f 285 286 287 288
usemtl wood
f 289 290 291 292
f 293 294 295 296
f 297 298 299 300
f 301 302 303 304
f 305 306 307 308
f 309 310 311 312
usemtl cob
f 313 314 315
f 316 317 318
usemtl roof
f 319 320 321 322
f 323 324 325 326
usemtl steel
f 327 328 329 330
f 331 332 333 334
f 335 336 337 338
f 339 340 341 342
f 343 344 345 346
f 347 348 349 350
