# native planting: 16 mixed sage/buckwheat/deer-grass mounds lining both sides of the 14 ft entry drive from the trough to the gable (Will, 4 Oct)
# unit m
# name native planting
v -5.036 -1.201 0.563
v -5.601 -0.923 0.563
v -5.595 -0.832 0.983
v -4.967 -1.141 0.983
v -4.967 -1.141 0.983
v -5.595 -0.832 0.983
v -5.624 -1.288 1.436
v -5.310 -1.443 1.436
v -5.601 -0.923 0.563
v -6.197 -1.127 0.563
v -6.257 -1.058 0.983
v -5.595 -0.832 0.983
v -5.595 -0.832 0.983
v -6.257 -1.058 0.983
v -5.955 -1.401 1.436
v -5.624 -1.288 1.436
v -6.197 -1.127 0.563
v -6.475 -1.692 0.563
v -6.566 -1.686 0.983
v -6.257 -1.058 0.983
v -6.257 -1.058 0.983
v -6.566 -1.686 0.983
v -6.110 -1.716 1.436
v -5.955 -1.401 1.436
v -6.475 -1.692 0.563
v -6.271 -2.288 0.563
v -6.340 -2.349 0.983
v -6.566 -1.686 0.983
v -6.566 -1.686 0.983
v -6.340 -2.349 0.983
v -5.997 -2.047 1.436
v -6.110 -1.716 1.436
v -6.271 -2.288 0.563
v -5.706 -2.566 0.563
v -5.712 -2.657 0.983
v -6.340 -2.349 0.983
v -6.340 -2.349 0.983
v -5.712 -2.657 0.983
v -5.683 -2.201 1.436
v -5.997 -2.047 1.436
v -5.706 -2.566 0.563
v -5.110 -2.362 0.563
v -5.049 -2.431 0.983
v -5.712 -2.657 0.983
v -5.712 -2.657 0.983
v -5.049 -2.431 0.983
v -5.351 -2.088 1.436
v -5.683 -2.201 1.436
v -5.110 -2.362 0.563
v -4.832 -1.797 0.563
v -4.741 -1.803 0.983
v -5.049 -2.431 0.983
v -5.049 -2.431 0.983
v -4.741 -1.803 0.983
v -5.197 -1.774 1.436
v -5.351 -2.088 1.436
v -4.832 -1.797 0.563
v -5.036 -1.201 0.563
v -4.967 -1.141 0.983
v -4.741 -1.803 0.983
v -4.741 -1.803 0.983
v -4.967 -1.141 0.983
v -5.310 -1.443 1.436
v -5.197 -1.774 1.436
v -5.310 -1.443 1.436
v -5.624 -1.288 1.436
v -5.955 -1.401 1.436
v -6.110 -1.716 1.436
v -5.997 -2.047 1.436
v -5.683 -2.201 1.436
v -5.351 -2.088 1.436
v -5.197 -1.774 1.436
v -3.104 -1.948 0.403
v -3.368 -1.819 0.403
v -3.365 -1.776 0.626
v -3.072 -1.920 0.626
v -3.072 -1.920 0.626
v -3.365 -1.776 0.626
v -3.379 -1.989 0.837
v -3.232 -2.061 0.837
v -3.368 -1.819 0.403
v -3.646 -1.914 0.403
v -3.674 -1.882 0.626
v -3.365 -1.776 0.626
v -3.365 -1.776 0.626
v -3.674 -1.882 0.626
v -3.534 -2.042 0.837
v -3.379 -1.989 0.837
v -3.646 -1.914 0.403
v -3.776 -2.178 0.403
v -3.818 -2.175 0.626
v -3.674 -1.882 0.626
v -3.674 -1.882 0.626
v -3.818 -2.175 0.626
v -3.606 -2.188 0.837
v -3.534 -2.042 0.837
v -3.776 -2.178 0.403
v -3.681 -2.456 0.403
v -3.713 -2.484 0.626
v -3.818 -2.175 0.626
v -3.818 -2.175 0.626
v -3.713 -2.484 0.626
v -3.553 -2.343 0.837
v -3.606 -2.188 0.837
v -3.681 -2.456 0.403
v -3.417 -2.585 0.403
v -3.420 -2.628 0.626
v -3.713 -2.484 0.626
v -3.713 -2.484 0.626
v -3.420 -2.628 0.626
v -3.406 -2.415 0.837
v -3.553 -2.343 0.837
v -3.417 -2.585 0.403
v -3.139 -2.490 0.403
v -3.111 -2.522 0.626
v -3.420 -2.628 0.626
v -3.420 -2.628 0.626
v -3.111 -2.522 0.626
v -3.252 -2.362 0.837
v -3.406 -2.415 0.837
v -3.139 -2.490 0.403
v -3.009 -2.227 0.403
v -2.967 -2.229 0.626
v -3.111 -2.522 0.626
v -3.111 -2.522 0.626
v -2.967 -2.229 0.626
v -3.180 -2.216 0.837
v -3.252 -2.362 0.837
v -3.009 -2.227 0.403
v -3.104 -1.948 0.403
v -3.072 -1.920 0.626
v -2.967 -2.229 0.626
v -2.967 -2.229 0.626
v -3.072 -1.920 0.626
v -3.232 -2.061 0.837
v -3.180 -2.216 0.837
v -3.232 -2.061 0.837
v -3.379 -1.989 0.837
v -3.534 -2.042 0.837
v -3.606 -2.188 0.837
v -3.553 -2.343 0.837
v -3.406 -2.415 0.837
v -3.252 -2.362 0.837
v -3.180 -2.216 0.837
v -1.372 -1.526 0.474
v -2.051 -1.193 0.474
v -2.044 -1.084 0.968
v -1.290 -1.454 0.968
v -1.290 -1.454 0.968
v -2.044 -1.084 0.968
v -2.079 -1.631 1.511
v -1.702 -1.816 1.511
v -2.051 -1.193 0.474
v -2.766 -1.437 0.474
v -2.838 -1.355 0.968
v -2.044 -1.084 0.968
v -2.044 -1.084 0.968
v -2.838 -1.355 0.968
v -2.476 -1.767 1.511
v -2.079 -1.631 1.511
v -2.766 -1.437 0.474
v -3.099 -2.116 0.474
v -3.209 -2.109 0.968
v -2.838 -1.355 0.968
v -2.838 -1.355 0.968
v -3.209 -2.109 0.968
v -2.661 -2.144 1.511
v -2.476 -1.767 1.511
v -3.099 -2.116 0.474
v -2.855 -2.831 0.474
v -2.937 -2.904 0.968
v -3.209 -2.109 0.968
v -3.209 -2.109 0.968
v -2.937 -2.904 0.968
v -2.525 -2.541 1.511
v -2.661 -2.144 1.511
v -2.855 -2.831 0.474
v -2.176 -3.164 0.474
v -2.183 -3.274 0.968
v -2.937 -2.904 0.968
v -2.937 -2.904 0.968
v -2.183 -3.274 0.968
v -2.148 -2.726 1.511
v -2.525 -2.541 1.511
v -2.176 -3.164 0.474
v -1.461 -2.920 0.474
v -1.389 -3.002 0.968
v -2.183 -3.274 0.968
v -2.183 -3.274 0.968
v -1.389 -3.002 0.968
v -1.751 -2.590 1.511
v -2.148 -2.726 1.511
v -1.461 -2.920 0.474
v -1.128 -2.241 0.474
v -1.018 -2.248 0.968
v -1.389 -3.002 0.968
v -1.389 -3.002 0.968
v -1.018 -2.248 0.968
v -1.566 -2.214 1.511
v -1.751 -2.590 1.511
v -1.128 -2.241 0.474
v -1.372 -1.526 0.474
v -1.290 -1.454 0.968
v -1.018 -2.248 0.968
v -1.018 -2.248 0.968
v -1.290 -1.454 0.968
v -1.702 -1.816 1.511
v -1.566 -2.214 1.511
v -1.702 -1.816 1.511
v -2.079 -1.631 1.511
v -2.476 -1.767 1.511
v -2.661 -2.144 1.511
v -2.525 -2.541 1.511
v -2.148 -2.726 1.511
v -1.751 -2.590 1.511
v -1.566 -2.214 1.511
v 0.339 -2.749 0.625
v 0.075 -2.620 0.625
v 0.078 -2.577 0.848
v 0.371 -2.721 0.848
v 0.371 -2.721 0.848
v 0.078 -2.577 0.848
v 0.064 -2.790 1.059
v 0.211 -2.862 1.059
v 0.075 -2.620 0.625
v -0.203 -2.715 0.625
v -0.231 -2.682 0.848
v 0.078 -2.577 0.848
v 0.078 -2.577 0.848
v -0.231 -2.682 0.848
v -0.090 -2.843 1.059
v 0.064 -2.790 1.059
v -0.203 -2.715 0.625
v -0.333 -2.978 0.625
v -0.375 -2.976 0.848
v -0.231 -2.682 0.848
v -0.231 -2.682 0.848
v -0.375 -2.976 0.848
v -0.162 -2.989 1.059
v -0.090 -2.843 1.059
v -0.333 -2.978 0.625
v -0.238 -3.257 0.625
v -0.270 -3.285 0.848
v -0.375 -2.976 0.848
v -0.375 -2.976 0.848
v -0.270 -3.285 0.848
v -0.110 -3.144 1.059
v -0.162 -2.989 1.059
v -0.238 -3.257 0.625
v 0.026 -3.386 0.625
v 0.023 -3.429 0.848
v -0.270 -3.285 0.848
v -0.270 -3.285 0.848
v 0.023 -3.429 0.848
v 0.037 -3.216 1.059
v -0.110 -3.144 1.059
v 0.026 -3.386 0.625
v 0.304 -3.291 0.625
v 0.332 -3.323 0.848
v 0.023 -3.429 0.848
v 0.023 -3.429 0.848
v 0.332 -3.323 0.848
v 0.191 -3.163 1.059
v 0.037 -3.216 1.059
v 0.304 -3.291 0.625
v 0.434 -3.027 0.625
v 0.476 -3.030 0.848
v 0.332 -3.323 0.848
v 0.332 -3.323 0.848
v 0.476 -3.030 0.848
v 0.263 -3.016 1.059
v 0.191 -3.163 1.059
v 0.434 -3.027 0.625
v 0.339 -2.749 0.625
v 0.371 -2.721 0.848
v 0.476 -3.030 0.848
v 0.476 -3.030 0.848
v 0.371 -2.721 0.848
v 0.211 -2.862 1.059
v 0.263 -3.016 1.059
v 0.211 -2.862 1.059
v 0.064 -2.790 1.059
v -0.090 -2.843 1.059
v -0.162 -2.989 1.059
v -0.110 -3.144 1.059
v 0.037 -3.216 1.059
v 0.191 -3.163 1.059
v 0.263 -3.016 1.059
v 1.493 -3.082 0.717
v 1.079 -2.878 0.717
v 1.083 -2.811 1.038
v 1.543 -3.037 1.038
v 1.543 -3.037 1.038
v 1.083 -2.811 1.038
v 1.061 -3.146 1.370
v 1.292 -3.259 1.370
v 1.079 -2.878 0.717
v 0.641 -3.027 0.717
v 0.597 -2.977 1.038
v 1.083 -2.811 1.038
v 1.083 -2.811 1.038
v 0.597 -2.977 1.038
v 0.819 -3.229 1.370
v 1.061 -3.146 1.370
v 0.641 -3.027 0.717
v 0.438 -3.442 0.717
v 0.371 -3.438 1.038
v 0.597 -2.977 1.038
v 0.597 -2.977 1.038
v 0.371 -3.438 1.038
v 0.705 -3.459 1.370
v 0.819 -3.229 1.370
v 0.438 -3.442 0.717
v 0.587 -3.879 0.717
v 0.537 -3.923 1.038
v 0.371 -3.438 1.038
v 0.371 -3.438 1.038
v 0.537 -3.923 1.038
v 0.788 -3.702 1.370
v 0.705 -3.459 1.370
v 0.587 -3.879 0.717
v 1.002 -4.083 0.717
v 0.997 -4.150 1.038
v 0.537 -3.923 1.038
v 0.537 -3.923 1.038
v 0.997 -4.150 1.038
v 1.019 -3.815 1.370
v 0.788 -3.702 1.370
v 1.002 -4.083 0.717
v 1.439 -3.934 0.717
v 1.483 -3.984 1.038
v 0.997 -4.150 1.038
v 0.997 -4.150 1.038
v 1.483 -3.984 1.038
v 1.262 -3.732 1.370
v 1.019 -3.815 1.370
v 1.439 -3.934 0.717
v 1.642 -3.519 0.717
v 1.709 -3.523 1.038
v 1.483 -3.984 1.038
v 1.483 -3.984 1.038
v 1.709 -3.523 1.038
v 1.375 -3.502 1.370
v 1.262 -3.732 1.370
v 1.642 -3.519 0.717
v 1.493 -3.082 0.717
v 1.543 -3.037 1.038
v 1.709 -3.523 1.038
v 1.709 -3.523 1.038
v 1.543 -3.037 1.038
v 1.292 -3.259 1.370
v 1.375 -3.502 1.370
v 1.292 -3.259 1.370
v 1.061 -3.146 1.370
v 0.819 -3.229 1.370
v 0.705 -3.459 1.370
v 0.788 -3.702 1.370
v 1.019 -3.815 1.370
v 1.262 -3.732 1.370
v 1.375 -3.502 1.370
v 1.123 -4.934 0.753
v 0.657 -4.705 0.753
v 0.662 -4.630 1.108
v 1.179 -4.884 1.108
v 1.179 -4.884 1.108
v 0.662 -4.630 1.108
v 0.638 -5.006 1.481
v 0.896 -5.133 1.481
v 0.657 -4.705 0.753
v 0.166 -4.873 0.753
v 0.116 -4.816 1.108
v 0.662 -4.630 1.108
v 0.662 -4.630 1.108
v 0.116 -4.816 1.108
v 0.365 -5.099 1.481
v 0.638 -5.006 1.481
v 0.166 -4.873 0.753
v -0.063 -5.338 0.753
v -0.138 -5.334 1.108
v 0.116 -4.816 1.108
v 0.116 -4.816 1.108
v -0.138 -5.334 1.108
v 0.238 -5.358 1.481
v 0.365 -5.099 1.481
v -0.063 -5.338 0.753
v 0.105 -5.829 0.753
v 0.049 -5.879 1.108
v -0.138 -5.334 1.108
v -0.138 -5.334 1.108
v 0.049 -5.879 1.108
v 0.331 -5.630 1.481
v 0.238 -5.358 1.481
v 0.105 -5.829 0.753
v 0.571 -6.058 0.753
v 0.566 -6.133 1.108
v 0.049 -5.879 1.108
v 0.049 -5.879 1.108
v 0.566 -6.133 1.108
v 0.590 -5.757 1.481
v 0.331 -5.630 1.481
v 0.571 -6.058 0.753
v 1.062 -5.890 0.753
v 1.111 -5.947 1.108
v 0.566 -6.133 1.108
v 0.566 -6.133 1.108
v 1.111 -5.947 1.108
v 0.863 -5.664 1.481
v 0.590 -5.757 1.481
v 1.062 -5.890 0.753
v 1.290 -5.425 0.753
v 1.365 -5.430 1.108
v 1.111 -5.947 1.108
v 1.111 -5.947 1.108
v 1.365 -5.430 1.108
v 0.990 -5.406 1.481
v 0.863 -5.664 1.481
v 1.290 -5.425 0.753
v 1.123 -4.934 0.753
v 1.179 -4.884 1.108
v 1.365 -5.430 1.108
v 1.365 -5.430 1.108
v 1.179 -4.884 1.108
v 0.896 -5.133 1.481
v 0.990 -5.406 1.481
v 0.896 -5.133 1.481
v 0.638 -5.006 1.481
v 0.365 -5.099 1.481
v 0.238 -5.358 1.481
v 0.331 -5.630 1.481
v 0.590 -5.757 1.481
v 0.863 -5.664 1.481
v 0.990 -5.406 1.481
v 2.830 -3.386 0.840
v 2.566 -3.257 0.840
v 2.569 -3.214 1.063
v 2.862 -3.358 1.063
v 2.862 -3.358 1.063
v 2.569 -3.214 1.063
v 2.555 -3.427 1.274
v 2.702 -3.499 1.274
v 2.566 -3.257 0.840
v 2.288 -3.352 0.840
v 2.260 -3.320 1.063
v 2.569 -3.214 1.063
v 2.569 -3.214 1.063
v 2.260 -3.320 1.063
v 2.400 -3.480 1.274
v 2.555 -3.427 1.274
v 2.288 -3.352 0.840
v 2.158 -3.615 0.840
v 2.116 -3.613 1.063
v 2.260 -3.320 1.063
v 2.260 -3.320 1.063
v 2.116 -3.613 1.063
v 2.328 -3.626 1.274
v 2.400 -3.480 1.274
v 2.158 -3.615 0.840
v 2.253 -3.894 0.840
v 2.221 -3.922 1.063
v 2.116 -3.613 1.063
v 2.116 -3.613 1.063
v 2.221 -3.922 1.063
v 2.381 -3.781 1.274
v 2.328 -3.626 1.274
v 2.253 -3.894 0.840
v 2.517 -4.023 0.840
v 2.514 -4.066 1.063
v 2.221 -3.922 1.063
v 2.221 -3.922 1.063
v 2.514 -4.066 1.063
v 2.528 -3.853 1.274
v 2.381 -3.781 1.274
v 2.517 -4.023 0.840
v 2.795 -3.928 0.840
v 2.823 -3.960 1.063
v 2.514 -4.066 1.063
v 2.514 -4.066 1.063
v 2.823 -3.960 1.063
v 2.682 -3.800 1.274
v 2.528 -3.853 1.274
v 2.795 -3.928 0.840
v 2.925 -3.664 0.840
v 2.967 -3.667 1.063
v 2.823 -3.960 1.063
v 2.823 -3.960 1.063
v 2.967 -3.667 1.063
v 2.754 -3.654 1.274
v 2.682 -3.800 1.274
v 2.925 -3.664 0.840
v 2.830 -3.386 0.840
v 2.862 -3.358 1.063
v 2.967 -3.667 1.063
v 2.967 -3.667 1.063
v 2.862 -3.358 1.063
v 2.702 -3.499 1.274
v 2.754 -3.654 1.274
v 2.702 -3.499 1.274
v 2.555 -3.427 1.274
v 2.400 -3.480 1.274
v 2.328 -3.626 1.274
v 2.381 -3.781 1.274
v 2.528 -3.853 1.274
v 2.682 -3.800 1.274
v 2.754 -3.654 1.274
v 4.258 -3.027 0.896
v 3.693 -2.750 0.896
v 3.699 -2.659 1.316
v 4.327 -2.967 1.316
v 4.327 -2.967 1.316
v 3.699 -2.659 1.316
v 3.670 -3.115 1.769
v 3.984 -3.269 1.769
v 3.693 -2.750 0.896
v 3.097 -2.953 0.896
v 3.036 -2.885 1.316
v 3.699 -2.659 1.316
v 3.699 -2.659 1.316
v 3.036 -2.885 1.316
v 3.339 -3.228 1.769
v 3.670 -3.115 1.769
v 3.097 -2.953 0.896
v 2.819 -3.519 0.896
v 2.728 -3.513 1.316
v 3.036 -2.885 1.316
v 3.036 -2.885 1.316
v 2.728 -3.513 1.316
v 3.184 -3.542 1.769
v 3.339 -3.228 1.769
v 2.819 -3.519 0.896
v 3.023 -4.115 0.896
v 2.954 -4.175 1.316
v 2.728 -3.513 1.316
v 2.728 -3.513 1.316
v 2.954 -4.175 1.316
v 3.297 -3.873 1.769
v 3.184 -3.542 1.769
v 3.023 -4.115 0.896
v 3.588 -4.392 0.896
v 3.582 -4.484 1.316
v 2.954 -4.175 1.316
v 2.954 -4.175 1.316
v 3.582 -4.484 1.316
v 3.611 -4.027 1.769
v 3.297 -3.873 1.769
v 3.588 -4.392 0.896
v 4.184 -4.189 0.896
v 4.245 -4.258 1.316
v 3.582 -4.484 1.316
v 3.582 -4.484 1.316
v 4.245 -4.258 1.316
v 3.943 -3.914 1.769
v 3.611 -4.027 1.769
v 4.184 -4.189 0.896
v 4.462 -3.624 0.896
v 4.553 -3.629 1.316
v 4.245 -4.258 1.316
v 4.245 -4.258 1.316
v 4.553 -3.629 1.316
v 4.097 -3.600 1.769
v 3.943 -3.914 1.769
v 4.462 -3.624 0.896
v 4.258 -3.027 0.896
v 4.327 -2.967 1.316
v 4.553 -3.629 1.316
v 4.553 -3.629 1.316
v 4.327 -2.967 1.316
v 3.984 -3.269 1.769
v 4.097 -3.600 1.769
v 3.984 -3.269 1.769
v 3.670 -3.115 1.769
v 3.339 -3.228 1.769
v 3.184 -3.542 1.769
v 3.297 -3.873 1.769
v 3.611 -4.027 1.769
v 3.943 -3.914 1.769
v 4.097 -3.600 1.769
v -5.498 4.904 0.000
v -5.988 5.145 0.000
v -5.983 5.224 0.371
v -5.439 4.956 0.371
v -5.439 4.956 0.371
v -5.983 5.224 0.371
v -6.008 4.828 0.763
v -5.736 4.695 0.763
v -5.988 5.145 0.000
v -6.505 4.968 0.000
v -6.557 5.028 0.371
v -5.983 5.224 0.371
v -5.983 5.224 0.371
v -6.557 5.028 0.371
v -6.295 4.730 0.763
v -6.008 4.828 0.763
v -6.505 4.968 0.000
v -6.745 4.478 0.000
v -6.824 4.483 0.371
v -6.557 5.028 0.371
v -6.557 5.028 0.371
v -6.824 4.483 0.371
v -6.429 4.458 0.763
v -6.295 4.730 0.763
v -6.745 4.478 0.000
v -6.569 3.962 0.000
v -6.628 3.909 0.371
v -6.824 4.483 0.371
v -6.824 4.483 0.371
v -6.628 3.909 0.371
v -6.331 4.171 0.763
v -6.429 4.458 0.763
v -6.569 3.962 0.000
v -6.079 3.721 0.000
v -6.084 3.642 0.371
v -6.628 3.909 0.371
v -6.628 3.909 0.371
v -6.084 3.642 0.371
v -6.059 4.037 0.763
v -6.331 4.171 0.763
v -6.079 3.721 0.000
v -5.562 3.897 0.000
v -5.510 3.838 0.371
v -6.084 3.642 0.371
v -6.084 3.642 0.371
v -5.510 3.838 0.371
v -5.772 4.135 0.763
v -6.059 4.037 0.763
v -5.562 3.897 0.000
v -5.322 4.387 0.000
v -5.243 4.382 0.371
v -5.510 3.838 0.371
v -5.510 3.838 0.371
v -5.243 4.382 0.371
v -5.638 4.408 0.763
v -5.772 4.135 0.763
v -5.322 4.387 0.000
v -5.498 4.904 0.000
v -5.439 4.956 0.371
v -5.243 4.382 0.371
v -5.243 4.382 0.371
v -5.439 4.956 0.371
v -5.736 4.695 0.763
v -5.638 4.408 0.763
v -5.736 4.695 0.763
v -6.008 4.828 0.763
v -6.295 4.730 0.763
v -6.429 4.458 0.763
v -6.331 4.171 0.763
v -6.059 4.037 0.763
v -5.772 4.135 0.763
v -5.638 4.408 0.763
v -3.201 4.234 0.153
v -3.766 4.512 0.153
v -3.761 4.603 0.574
v -3.132 4.294 0.574
v -3.132 4.294 0.574
v -3.761 4.603 0.574
v -3.790 4.147 1.026
v -3.476 3.992 1.026
v -3.766 4.512 0.153
v -4.363 4.308 0.153
v -4.423 4.377 0.574
v -3.761 4.603 0.574
v -3.761 4.603 0.574
v -4.423 4.377 0.574
v -4.121 4.034 1.026
v -3.790 4.147 1.026
v -4.363 4.308 0.153
v -4.640 3.743 0.153
v -4.731 3.749 0.574
v -4.423 4.377 0.574
v -4.423 4.377 0.574
v -4.731 3.749 0.574
v -4.275 3.720 1.026
v -4.121 4.034 1.026
v -4.640 3.743 0.153
v -4.437 3.147 0.153
v -4.505 3.086 0.574
v -4.731 3.749 0.574
v -4.731 3.749 0.574
v -4.505 3.086 0.574
v -4.162 3.388 1.026
v -4.275 3.720 1.026
v -4.437 3.147 0.153
v -3.871 2.869 0.153
v -3.877 2.778 0.574
v -4.505 3.086 0.574
v -4.505 3.086 0.574
v -3.877 2.778 0.574
v -3.848 3.234 1.026
v -4.162 3.388 1.026
v -3.871 2.869 0.153
v -3.275 3.073 0.153
v -3.215 3.004 0.574
v -3.877 2.778 0.574
v -3.877 2.778 0.574
v -3.215 3.004 0.574
v -3.517 3.347 1.026
v -3.848 3.234 1.026
v -3.275 3.073 0.153
v -2.998 3.638 0.153
v -2.906 3.632 0.574
v -3.215 3.004 0.574
v -3.215 3.004 0.574
v -2.906 3.632 0.574
v -3.363 3.661 1.026
v -3.517 3.347 1.026
v -2.998 3.638 0.153
v -3.201 4.234 0.153
v -3.132 4.294 0.574
v -2.906 3.632 0.574
v -2.906 3.632 0.574
v -3.132 4.294 0.574
v -3.476 3.992 1.026
v -3.363 3.661 1.026
v -3.476 3.992 1.026
v -3.790 4.147 1.026
v -4.121 4.034 1.026
v -4.275 3.720 1.026
v -4.162 3.388 1.026
v -3.848 3.234 1.026
v -3.517 3.347 1.026
v -3.363 3.661 1.026
v -1.123 3.448 0.309
v -1.462 3.615 0.309
v -1.459 3.670 0.581
v -1.082 3.485 0.581
v -1.082 3.485 0.581
v -1.459 3.670 0.581
v -1.476 3.396 0.852
v -1.288 3.303 0.852
v -1.462 3.615 0.309
v -1.820 3.493 0.309
v -1.856 3.534 0.581
v -1.459 3.670 0.581
v -1.459 3.670 0.581
v -1.856 3.534 0.581
v -1.675 3.328 0.852
v -1.476 3.396 0.852
v -1.820 3.493 0.309
v -1.986 3.154 0.309
v -2.041 3.157 0.581
v -1.856 3.534 0.581
v -1.856 3.534 0.581
v -2.041 3.157 0.581
v -1.767 3.140 0.852
v -1.675 3.328 0.852
v -1.986 3.154 0.309
v -1.864 2.796 0.309
v -1.906 2.760 0.581
v -2.041 3.157 0.581
v -2.041 3.157 0.581
v -1.906 2.760 0.581
v -1.700 2.941 0.852
v -1.767 3.140 0.852
v -1.864 2.796 0.309
v -1.525 2.629 0.309
v -1.529 2.575 0.581
v -1.906 2.760 0.581
v -1.906 2.760 0.581
v -1.529 2.575 0.581
v -1.511 2.848 0.852
v -1.700 2.941 0.852
v -1.525 2.629 0.309
v -1.167 2.751 0.309
v -1.131 2.710 0.581
v -1.529 2.575 0.581
v -1.529 2.575 0.581
v -1.131 2.710 0.581
v -1.312 2.916 0.852
v -1.511 2.848 0.852
v -1.167 2.751 0.309
v -1.001 3.091 0.309
v -0.946 3.087 0.581
v -1.131 2.710 0.581
v -1.131 2.710 0.581
v -0.946 3.087 0.581
v -1.220 3.105 0.852
v -1.312 2.916 0.852
v -1.001 3.091 0.309
v -1.123 3.448 0.309
v -1.082 3.485 0.581
v -0.946 3.087 0.581
v -0.946 3.087 0.581
v -1.082 3.485 0.581
v -1.288 3.303 0.852
v -1.220 3.105 0.852
v -1.288 3.303 0.852
v -1.476 3.396 0.852
v -1.675 3.328 0.852
v -1.767 3.140 0.852
v -1.700 2.941 0.852
v -1.511 2.848 0.852
v -1.312 2.916 0.852
v -1.220 3.105 0.852
v 0.668 3.626 0.436
v 0.103 3.903 0.436
v 0.109 3.994 0.856
v 0.737 3.686 0.856
v 0.737 3.686 0.856
v 0.109 3.994 0.856
v 0.080 3.538 1.309
v 0.394 3.384 1.309
v 0.103 3.903 0.436
v -0.493 3.700 0.436
v -0.553 3.768 0.856
v 0.109 3.994 0.856
v 0.109 3.994 0.856
v -0.553 3.768 0.856
v -0.251 3.425 1.309
v 0.080 3.538 1.309
v -0.493 3.700 0.436
v -0.771 3.134 0.436
v -0.862 3.140 0.856
v -0.553 3.768 0.856
v -0.553 3.768 0.856
v -0.862 3.140 0.856
v -0.406 3.111 1.309
v -0.251 3.425 1.309
v -0.771 3.134 0.436
v -0.567 2.538 0.436
v -0.636 2.478 0.856
v -0.862 3.140 0.856
v -0.862 3.140 0.856
v -0.636 2.478 0.856
v -0.293 2.780 1.309
v -0.406 3.111 1.309
v -0.567 2.538 0.436
v -0.002 2.261 0.436
v -0.008 2.169 0.856
v -0.636 2.478 0.856
v -0.636 2.478 0.856
v -0.008 2.169 0.856
v 0.022 2.626 1.309
v -0.293 2.780 1.309
v -0.002 2.261 0.436
v 0.594 2.464 0.436
v 0.655 2.395 0.856
v -0.008 2.169 0.856
v -0.008 2.169 0.856
v 0.655 2.395 0.856
v 0.353 2.739 1.309
v 0.022 2.626 1.309
v 0.594 2.464 0.436
v 0.872 3.029 0.436
v 0.963 3.024 0.856
v 0.655 2.395 0.856
v 0.655 2.395 0.856
v 0.963 3.024 0.856
v 0.507 3.053 1.309
v 0.353 2.739 1.309
v 0.872 3.029 0.436
v 0.668 3.626 0.436
v 0.737 3.686 0.856
v 0.963 3.024 0.856
v 0.963 3.024 0.856
v 0.737 3.686 0.856
v 0.394 3.384 1.309
v 0.507 3.053 1.309
v 0.394 3.384 1.309
v 0.080 3.538 1.309
v -0.251 3.425 1.309
v -0.406 3.111 1.309
v -0.293 2.780 1.309
v 0.022 2.626 1.309
v 0.353 2.739 1.309
v 0.507 3.053 1.309
v 2.634 3.067 0.666
v 2.069 3.345 0.666
v 2.075 3.436 1.086
v 2.703 3.128 1.086
v 2.703 3.128 1.086
v 2.075 3.436 1.086
v 2.046 2.980 1.539
v 2.360 2.826 1.539
v 2.069 3.345 0.666
v 1.473 3.141 0.666
v 1.413 3.210 1.086
v 2.075 3.436 1.086
v 2.075 3.436 1.086
v 1.413 3.210 1.086
v 1.715 2.867 1.539
v 2.046 2.980 1.539
v 1.473 3.141 0.666
v 1.195 2.576 0.666
v 1.104 2.582 1.086
v 1.413 3.210 1.086
v 1.413 3.210 1.086
v 1.104 2.582 1.086
v 1.560 2.553 1.539
v 1.715 2.867 1.539
v 1.195 2.576 0.666
v 1.399 1.980 0.666
v 1.330 1.919 1.086
v 1.104 2.582 1.086
v 1.104 2.582 1.086
v 1.330 1.919 1.086
v 1.673 2.221 1.539
v 1.560 2.553 1.539
v 1.399 1.980 0.666
v 1.964 1.702 0.666
v 1.958 1.611 1.086
v 1.330 1.919 1.086
v 1.330 1.919 1.086
v 1.958 1.611 1.086
v 1.988 2.067 1.539
v 1.673 2.221 1.539
v 1.964 1.702 0.666
v 2.560 1.906 0.666
v 2.621 1.837 1.086
v 1.958 1.611 1.086
v 1.958 1.611 1.086
v 2.621 1.837 1.086
v 2.319 2.180 1.539
v 1.988 2.067 1.539
v 2.560 1.906 0.666
v 2.838 2.471 0.666
v 2.929 2.465 1.086
v 2.621 1.837 1.086
v 2.621 1.837 1.086
v 2.929 2.465 1.086
v 2.473 2.494 1.539
v 2.319 2.180 1.539
v 2.838 2.471 0.666
v 2.634 3.067 0.666
v 2.703 3.128 1.086
v 2.929 2.465 1.086
v 2.929 2.465 1.086
v 2.703 3.128 1.086
v 2.360 2.826 1.539
v 2.473 2.494 1.539
v 2.360 2.826 1.539
v 2.046 2.980 1.539
v 1.715 2.867 1.539
v 1.560 2.553 1.539
v 1.673 2.221 1.539
v 1.988 2.067 1.539
v 2.319 2.180 1.539
v 2.473 2.494 1.539
v 4.079 2.543 0.770
v 3.664 2.746 0.770
v 3.669 2.813 1.092
v 4.129 2.587 1.092
v 4.129 2.587 1.092
v 3.669 2.813 1.092
v 3.647 2.479 1.423
v 3.878 2.366 1.423
v 3.664 2.746 0.770
v 3.227 2.597 0.770
v 3.183 2.648 1.092
v 3.669 2.813 1.092
v 3.669 2.813 1.092
v 3.183 2.648 1.092
v 3.404 2.396 1.423
v 3.647 2.479 1.423
v 3.227 2.597 0.770
v 3.024 2.183 0.770
v 2.957 2.187 1.092
v 3.183 2.648 1.092
v 3.183 2.648 1.092
v 2.957 2.187 1.092
v 3.291 2.166 1.423
v 3.404 2.396 1.423
v 3.024 2.183 0.770
v 3.173 1.745 0.770
v 3.122 1.701 1.092
v 2.957 2.187 1.092
v 2.957 2.187 1.092
v 3.122 1.701 1.092
v 3.374 1.923 1.423
v 3.291 2.166 1.423
v 3.173 1.745 0.770
v 3.587 1.542 0.770
v 3.583 1.475 1.092
v 3.122 1.701 1.092
v 3.122 1.701 1.092
v 3.583 1.475 1.092
v 3.604 1.810 1.423
v 3.374 1.923 1.423
v 3.587 1.542 0.770
v 4.025 1.691 0.770
v 4.069 1.641 1.092
v 3.583 1.475 1.092
v 3.583 1.475 1.092
v 4.069 1.641 1.092
v 3.847 1.893 1.423
v 3.604 1.810 1.423
v 4.025 1.691 0.770
v 4.228 2.106 0.770
v 4.295 2.101 1.092
v 4.069 1.641 1.092
v 4.069 1.641 1.092
v 4.295 2.101 1.092
v 3.960 2.123 1.423
v 3.847 1.893 1.423
v 4.228 2.106 0.770
v 4.079 2.543 0.770
v 4.129 2.587 1.092
v 4.295 2.101 1.092
v 4.295 2.101 1.092
v 4.129 2.587 1.092
v 3.878 2.366 1.423
v 3.960 2.123 1.423
v 3.878 2.366 1.423
v 3.647 2.479 1.423
v 3.404 2.396 1.423
v 3.291 2.166 1.423
v 3.374 1.923 1.423
v 3.604 1.810 1.423
v 3.847 1.893 1.423
v 3.960 2.123 1.423
v 4.348 4.279 0.860
v 4.052 4.424 0.860
v 4.055 4.471 1.103
v 4.384 4.310 1.103
v 4.384 4.310 1.103
v 4.055 4.471 1.103
v 4.040 4.233 1.340
v 4.204 4.153 1.340
v 4.052 4.424 0.860
v 3.741 4.317 0.860
v 3.710 4.353 1.103
v 4.055 4.471 1.103
v 4.055 4.471 1.103
v 3.710 4.353 1.103
v 3.867 4.174 1.340
v 4.040 4.233 1.340
v 3.741 4.317 0.860
v 3.596 4.022 0.860
v 3.548 4.025 1.103
v 3.710 4.353 1.103
v 3.710 4.353 1.103
v 3.548 4.025 1.103
v 3.787 4.010 1.340
v 3.867 4.174 1.340
v 3.596 4.022 0.860
v 3.702 3.711 0.860
v 3.667 3.679 1.103
v 3.548 4.025 1.103
v 3.548 4.025 1.103
v 3.667 3.679 1.103
v 3.846 3.837 1.340
v 3.787 4.010 1.340
v 3.702 3.711 0.860
v 3.998 3.566 0.860
v 3.995 3.518 1.103
v 3.667 3.679 1.103
v 3.667 3.679 1.103
v 3.995 3.518 1.103
v 4.010 3.757 1.340
v 3.846 3.837 1.340
v 3.998 3.566 0.860
v 4.309 3.672 0.860
v 4.341 3.636 1.103
v 3.995 3.518 1.103
v 3.995 3.518 1.103
v 4.341 3.636 1.103
v 4.183 3.816 1.340
v 4.010 3.757 1.340
v 4.309 3.672 0.860
v 4.454 3.967 0.860
v 4.502 3.964 1.103
v 4.341 3.636 1.103
v 4.341 3.636 1.103
v 4.502 3.964 1.103
v 4.263 3.980 1.340
v 4.183 3.816 1.340
v 4.454 3.967 0.860
v 4.348 4.279 0.860
v 4.384 4.310 1.103
v 4.502 3.964 1.103
v 4.502 3.964 1.103
v 4.384 4.310 1.103
v 4.204 4.153 1.340
v 4.263 3.980 1.340
v 4.204 4.153 1.340
v 4.040 4.233 1.340
v 3.867 4.174 1.340
v 3.787 4.010 1.340
v 3.846 3.837 1.340
v 4.010 3.757 1.340
v 4.183 3.816 1.340
v 4.263 3.980 1.340
v 5.519 2.755 0.905
v 4.953 3.033 0.905
v 4.959 3.124 1.325
v 5.587 2.816 1.325
v 5.587 2.816 1.325
v 4.959 3.124 1.325
v 4.930 2.668 1.778
v 5.244 2.513 1.778
v 4.953 3.033 0.905
v 4.357 2.829 0.905
v 4.297 2.898 1.325
v 4.959 3.124 1.325
v 4.959 3.124 1.325
v 4.297 2.898 1.325
v 4.599 2.555 1.778
v 4.930 2.668 1.778
v 4.357 2.829 0.905
v 4.079 2.264 0.905
v 3.988 2.270 1.325
v 4.297 2.898 1.325
v 4.297 2.898 1.325
v 3.988 2.270 1.325
v 4.445 2.241 1.778
v 4.599 2.555 1.778
v 4.079 2.264 0.905
v 4.283 1.668 0.905
v 4.214 1.607 1.325
v 3.988 2.270 1.325
v 3.988 2.270 1.325
v 4.214 1.607 1.325
v 4.558 1.909 1.778
v 4.445 2.241 1.778
v 4.283 1.668 0.905
v 4.848 1.390 0.905
v 4.843 1.299 1.325
v 4.214 1.607 1.325
v 4.214 1.607 1.325
v 4.843 1.299 1.325
v 4.872 1.755 1.778
v 4.558 1.909 1.778
v 4.848 1.390 0.905
v 5.444 1.594 0.905
v 5.505 1.525 1.325
v 4.843 1.299 1.325
v 4.843 1.299 1.325
v 5.505 1.525 1.325
v 5.203 1.868 1.778
v 4.872 1.755 1.778
v 5.444 1.594 0.905
v 5.722 2.159 0.905
v 5.813 2.153 1.325
v 5.505 1.525 1.325
v 5.505 1.525 1.325
v 5.813 2.153 1.325
v 5.357 2.182 1.778
v 5.203 1.868 1.778
v 5.722 2.159 0.905
v 5.519 2.755 0.905
v 5.587 2.816 1.325
v 5.813 2.153 1.325
v 5.813 2.153 1.325
v 5.587 2.816 1.325
v 5.244 2.513 1.778
v 5.357 2.182 1.778
v 5.244 2.513 1.778
v 4.930 2.668 1.778
v 4.599 2.555 1.778
v 4.445 2.241 1.778
v 4.558 1.909 1.778
v 4.872 1.755 1.778
v 5.203 1.868 1.778
v 5.357 2.182 1.778
usemtl sage
f 1 2 3 4
f 5 6 7 8
f 9 10 11 12
f 13 14 15 16
f 17 18 19 20
f 21 22 23 24
f 25 26 27 28
f 29 30 31 32
f 33 34 35 36
f 37 38 39 40
f 41 42 43 44
f 45 46 47 48
f 49 50 51 52
f 53 54 55 56
f 57 58 59 60
f 61 62 63 64
f 65 66 67 68 69 70 71 72
f 73 74 75 76
f 77 78 79 80
f 81 82 83 84
f 85 86 87 88
f 89 90 91 92
f 93 94 95 96
f 97 98 99 100
f 101 102 103 104
f 105 106 107 108
f 109 110 111 112
f 113 114 115 116
f 117 118 119 120
f 121 122 123 124
f 125 126 127 128
f 129 130 131 132
f 133 134 135 136
f 137 138 139 140 141 142 143 144
f 145 146 147 148
f 149 150 151 152
f 153 154 155 156
f 157 158 159 160
f 161 162 163 164
f 165 166 167 168
f 169 170 171 172
f 173 174 175 176
f 177 178 179 180
f 181 182 183 184
f 185 186 187 188
f 189 190 191 192
f 193 194 195 196
f 197 198 199 200
f 201 202 203 204
f 205 206 207 208
f 209 210 211 212 213 214 215 216
f 217 218 219 220
f 221 222 223 224
f 225 226 227 228
f 229 230 231 232
f 233 234 235 236
f 237 238 239 240
f 241 242 243 244
f 245 246 247 248
f 249 250 251 252
f 253 254 255 256
f 257 258 259 260
f 261 262 263 264
f 265 266 267 268
f 269 270 271 272
f 273 274 275 276
f 277 278 279 280
f 281 282 283 284 285 286 287 288
f 289 290 291 292
f 293 294 295 296
f 297 298 299 300
f 301 302 303 304
f 305 306 307 308
f 309 310 311 312
f 313 314 315 316
f 317 318 319 320
f 321 322 323 324
f 325 326 327 328
f 329 330 331 332
f 333 334 335 336
f 337 338 339 340
f 341 342 343 344
f 345 346 347 348
f 349 350 351 352
f 353 354 355 356 357 358 359 360
f 361 362 363 364
f 365 366 367 368
f 369 370 371 372
f 373 374 375 376
f 377 378 379 380
f 381 382 383 384
f 385 386 387 388
f 389 390 391 392
f 393 394 395 396
f 397 398 399 400
f 401 402 403 404
f 405 406 407 408
f 409 410 411 412
f 413 414 415 416
f 417 418 419 420
f 421 422 423 424
f 425 426 427 428 429 430 431 432
f 433 434 435 436
f 437 438 439 440
f 441 442 443 444
f 445 446 447 448
f 449 450 451 452
f 453 454 455 456
f 457 458 459 460
f 461 462 463 464
f 465 466 467 468
f 469 470 471 472
f 473 474 475 476
f 477 478 479 480
f 481 482 483 484
f 485 486 487 488
f 489 490 491 492
f 493 494 495 496
f 497 498 499 500 501 502 503 504
f 505 506 507 508
f 509 510 511 512
f 513 514 515 516
f 517 518 519 520
f 521 522 523 524
f 525 526 527 528
f 529 530 531 532
f 533 534 535 536
f 537 538 539 540
f 541 542 543 544
f 545 546 547 548
f 549 550 551 552
f 553 554 555 556
f 557 558 559 560
f 561 562 563 564
f 565 566 567 568
f 569 570 571 572 573 574 575 576
f 577 578 579 580
f 581 582 583 584
f 585 586 587 588
f 589 590 591 592
f 593 594 595 596
f 597 598 599 600
f 601 602 603 604
f 605 606 607 608
f 609 610 611 612
f 613 614 615 616
f 617 618 619 620
f 621 622 623 624
f 625 626 627 628
f 629 630 631 632
f 633 634 635 636
f 637 638 639 640
f 641 642 643 644 645 646 647 648
f 649 650 651 652
f 653 654 655 656
f 657 658 659 660
f 661 662 663 664
f 665 666 667 668
f 669 670 671 672
f 673 674 675 676
f 677 678 679 680
f 681 682 683 684
f 685 686 687 688
f 689 690 691 692
f 693 694 695 696
f 697 698 699 700
f 701 702 703 704
f 705 706 707 708
f 709 710 711 712
f 713 714 715 716 717 718 719 720
f 721 722 723 724
f 725 726 727 728
f 729 730 731 732
f 733 734 735 736
f 737 738 739 740
f 741 742 743 744
f 745 746 747 748
f 749 750 751 752
f 753 754 755 756
f 757 758 759 760
f 761 762 763 764
f 765 766 767 768
f 769 770 771 772
f 773 774 775 776
f 777 778 779 780
f 781 782 783 784
f 785 786 787 788 789 790 791 792
f 793 794 795 796
f 797 798 799 800
f 801 802 803 804
f 805 806 807 808
f 809 810 811 812
f 813 814 815 816
f 817 818 819 820
f 821 822 823 824
f 825 826 827 828
f 829 830 831 832
f 833 834 835 836
f 837 838 839 840
f 841 842 843 844
f 845 846 847 848
f 849 850 851 852
f 853 854 855 856
f 857 858 859 860 861 862 863 864
f 865 866 867 868
f 869 870 871 872
f 873 874 875 876
f 877 878 879 880
f 881 882 883 884
f 885 886 887 888
f 889 890 891 892
f 893 894 895 896
f 897 898 899 900
f 901 902 903 904
f 905 906 907 908
f 909 910 911 912
f 913 914 915 916
f 917 918 919 920
f 921 922 923 924
f 925 926 927 928
f 929 930 931 932 933 934 935 936
f 937 938 939 940
f 941 942 943 944
f 945 946 947 948
f 949 950 951 952
f 953 954 955 956
f 957 958 959 960
f 961 962 963 964
f 965 966 967 968
f 969 970 971 972
f 973 974 975 976
f 977 978 979 980
f 981 982 983 984
f 985 986 987 988
f 989 990 991 992
f 993 994 995 996
f 997 998 999 1000
f 1001 1002 1003 1004 1005 1006 1007 1008
f 1009 1010 1011 1012
f 1013 1014 1015 1016
f 1017 1018 1019 1020
f 1021 1022 1023 1024
f 1025 1026 1027 1028
f 1029 1030 1031 1032
f 1033 1034 1035 1036
f 1037 1038 1039 1040
f 1041 1042 1043 1044
f 1045 1046 1047 1048
f 1049 1050 1051 1052
f 1053 1054 1055 1056
f 1057 1058 1059 1060
f 1061 1062 1063 1064
f 1065 1066 1067 1068
f 1069 1070 1071 1072
f 1073 1074 1075 1076 1077 1078 1079 1080
f 1081 1082 1083 1084
f 1085 1086 1087 1088
f 1089 1090 1091 1092
f 1093 1094 1095 1096
f 1097 1098 1099 1100
f 1101 1102 1103 1104
f 1105 1106 1107 1108
f 1109 1110 1111 1112
f 1113 1114 1115 1116
f 1117 1118 1119 1120
f 1121 1122 1123 1124
f 1125 1126 1127 1128
f 1129 1130 1131 1132
f 1133 1134 1135 1136
f 1137 1138 1139 1140
f 1141 1142 1143 1144
f 1145 1146 1147 1148 1149 1150 1151 1152
