# four paddocks in the 270 x 75 ft rectangle: each 67.5 x 75 ft with one 12 x 16 ft covered stall, pipe fence at 5 ft
# geo 31.9989880 -116.7642460
# unit ft
# name four paddocks
v -78.023 -116.748 0.000
v -77.644 -116.422 0.000
v -77.969 -116.043 0.000
v -78.349 -116.368 0.000
v -78.023 -116.748 5.000
v -77.644 -116.422 5.000
v -77.969 -116.043 5.000
v -78.349 -116.368 5.000
v -70.436 -110.233 0.000
v -70.056 -109.908 0.000
v -70.382 -109.528 0.000
v -70.762 -109.854 0.000
v -70.436 -110.233 5.000
v -70.056 -109.908 5.000
v -70.382 -109.528 5.000
v -70.762 -109.854 5.000
v -62.849 -103.719 0.000
v -62.469 -103.393 0.000
v -62.795 -103.014 0.000
v -63.175 -103.340 0.000
v -62.849 -103.719 5.000
v -62.469 -103.393 5.000
v -62.795 -103.014 5.000
v -63.175 -103.340 5.000
v -55.262 -97.205 0.000
v -54.882 -96.879 0.000
v -55.208 -96.500 0.000
v -55.587 -96.825 0.000
v -55.262 -97.205 5.000
v -54.882 -96.879 5.000
v -55.208 -96.500 5.000
v -55.587 -96.825 5.000
v -47.675 -90.690 0.000
v -47.295 -90.365 0.000
v -47.621 -89.985 0.000
v -48.000 -90.311 0.000
v -47.675 -90.690 5.000
v -47.295 -90.365 5.000
v -47.621 -89.985 5.000
v -48.000 -90.311 5.000
v -40.088 -84.176 0.000
v -39.708 -83.850 0.000
v -40.034 -83.471 0.000
v -40.413 -83.797 0.000
v -40.088 -84.176 5.000
v -39.708 -83.850 5.000
v -40.034 -83.471 5.000
v -40.413 -83.797 5.000
v -32.501 -77.662 0.000
v -32.121 -77.336 0.000
v -32.447 -76.957 0.000
v -32.826 -77.282 0.000
v -32.501 -77.662 5.000
v -32.121 -77.336 5.000
v -32.447 -76.957 5.000
v -32.826 -77.282 5.000
v -24.914 -71.147 0.000
v -24.534 -70.822 0.000
v -24.860 -70.442 0.000
v -25.239 -70.768 0.000
v -24.914 -71.147 5.000
v -24.534 -70.822 5.000
v -24.860 -70.442 5.000
v -25.239 -70.768 5.000
v -17.327 -64.633 0.000
v -16.947 -64.307 0.000
v -17.273 -63.928 0.000
v -17.652 -64.254 0.000
v -17.327 -64.633 5.000
v -16.947 -64.307 5.000
v -17.273 -63.928 5.000
v -17.652 -64.254 5.000
v -9.740 -58.119 0.000
v -9.360 -57.793 0.000
v -9.686 -57.413 0.000
v -10.065 -57.739 0.000
v -9.740 -58.119 5.000
v -9.360 -57.793 5.000
v -9.686 -57.413 5.000
v -10.065 -57.739 5.000
v -2.153 -51.604 0.000
v -1.773 -51.278 0.000
v -2.099 -50.899 0.000
v -2.478 -51.225 0.000
v -2.153 -51.604 5.000
v -1.773 -51.278 5.000
v -2.099 -50.899 5.000
v -2.478 -51.225 5.000
v 5.434 -45.090 0.000
v 5.814 -44.764 0.000
v 5.488 -44.385 0.000
v 5.109 -44.710 0.000
v 5.434 -45.090 5.000
v 5.814 -44.764 5.000
v 5.488 -44.385 5.000
v 5.109 -44.710 5.000
v 13.022 -38.575 0.000
v 13.401 -38.250 0.000
v 13.075 -37.870 0.000
v 12.696 -38.196 0.000
v 13.022 -38.575 5.000
v 13.401 -38.250 5.000
v 13.075 -37.870 5.000
v 12.696 -38.196 5.000
v 20.609 -32.061 0.000
v 20.988 -31.735 0.000
v 20.662 -31.356 0.000
v 20.283 -31.682 0.000
v 20.609 -32.061 5.000
v 20.988 -31.735 5.000
v 20.662 -31.356 5.000
v 20.283 -31.682 5.000
v 28.196 -25.547 0.000
v 28.575 -25.221 0.000
v 28.249 -24.842 0.000
v 27.870 -25.167 0.000
v 28.196 -25.547 5.000
v 28.575 -25.221 5.000
v 28.249 -24.842 5.000
v 27.870 -25.167 5.000
v 35.783 -19.032 0.000
v 36.162 -18.707 0.000
v 35.836 -18.327 0.000
v 35.457 -18.653 0.000
v 35.783 -19.032 5.000
v 36.162 -18.707 5.000
v 35.836 -18.327 5.000
v 35.457 -18.653 5.000
v 43.370 -12.518 0.000
v 43.749 -12.192 0.000
v 43.423 -11.813 0.000
v 43.044 -12.139 0.000
v 43.370 -12.518 5.000
v 43.749 -12.192 5.000
v 43.423 -11.813 5.000
v 43.044 -12.139 5.000
v 50.957 -6.004 0.000
v 51.336 -5.678 0.000
v 51.010 -5.299 0.000
v 50.631 -5.624 0.000
v 50.957 -6.004 5.000
v 51.336 -5.678 5.000
v 51.010 -5.299 5.000
v 50.631 -5.624 5.000
v 58.544 0.511 0.000
v 58.923 0.836 0.000
v 58.597 1.216 0.000
v 58.218 0.890 0.000
v 58.544 0.511 5.000
v 58.923 0.836 5.000
v 58.597 1.216 5.000
v 58.218 0.890 5.000
v 66.131 7.025 0.000
v 66.510 7.351 0.000
v 66.184 7.730 0.000
v 65.805 7.404 0.000
v 66.131 7.025 5.000
v 66.510 7.351 5.000
v 66.184 7.730 5.000
v 65.805 7.404 5.000
v 73.718 13.539 0.000
v 74.097 13.865 0.000
v 73.771 14.245 0.000
v 73.392 13.919 0.000
v 73.718 13.539 5.000
v 74.097 13.865 5.000
v 73.771 14.245 5.000
v 73.392 13.919 5.000
v 81.305 20.054 0.000
v 81.684 20.380 0.000
v 81.358 20.759 0.000
v 80.979 20.433 0.000
v 81.305 20.054 5.000
v 81.684 20.380 5.000
v 81.358 20.759 5.000
v 80.979 20.433 5.000
v 88.892 26.568 0.000
v 89.271 26.894 0.000
v 88.945 27.273 0.000
v 88.566 26.948 0.000
v 88.892 26.568 5.000
v 89.271 26.894 5.000
v 88.945 27.273 5.000
v 88.566 26.948 5.000
v 96.479 33.083 0.000
v 96.858 33.408 0.000
v 96.532 33.788 0.000
v 96.153 33.462 0.000
v 96.479 33.083 5.000
v 96.858 33.408 5.000
v 96.532 33.788 5.000
v 96.153 33.462 5.000
v 104.066 39.597 0.000
v 104.445 39.923 0.000
v 104.120 40.302 0.000
v 103.740 39.976 0.000
v 104.066 39.597 5.000
v 104.445 39.923 5.000
v 104.120 40.302 5.000
v 103.740 39.976 5.000
v 111.653 46.111 0.000
v 112.032 46.437 0.000
v 111.707 46.816 0.000
v 111.327 46.491 0.000
v 111.653 46.111 5.000
v 112.032 46.437 5.000
v 111.707 46.816 5.000
v 111.327 46.491 5.000
v 119.240 52.626 0.000
v 119.619 52.951 0.000
v 119.294 53.331 0.000
v 118.914 53.005 0.000
v 119.240 52.626 5.000
v 119.619 52.951 5.000
v 119.294 53.331 5.000
v 118.914 53.005 5.000
v 126.827 59.140 0.000
v 127.206 59.466 0.000
v 126.881 59.845 0.000
v 126.501 59.519 0.000
v 126.827 59.140 5.000
v 127.206 59.466 5.000
v 126.881 59.845 5.000
v 126.501 59.519 5.000
v -77.931 -116.471 1.500
v 126.919 59.417 1.500
v 126.789 59.568 1.500
v -78.061 -116.319 1.500
v -77.931 -116.471 1.700
v 126.919 59.417 1.700
v 126.789 59.568 1.700
v -78.061 -116.319 1.700
v -77.931 -116.471 2.900
v 126.919 59.417 2.900
v 126.789 59.568 2.900
v -78.061 -116.319 2.900
v -77.931 -116.471 3.100
v 126.919 59.417 3.100
v 126.789 59.568 3.100
v -78.061 -116.319 3.100
v -77.931 -116.471 4.300
v 126.919 59.417 4.300
v 126.789 59.568 4.300
v -78.061 -116.319 4.300
v -77.931 -116.471 4.500
v 126.919 59.417 4.500
v 126.789 59.568 4.500
v -78.061 -116.319 4.500
v -126.881 -59.845 0.000
v -126.501 -59.519 0.000
v -126.827 -59.140 0.000
v -127.206 -59.466 0.000
v -126.881 -59.845 5.000
v -126.501 -59.519 5.000
v -126.827 -59.140 5.000
v -127.206 -59.466 5.000
v -119.294 -53.331 0.000
v -118.914 -53.005 0.000
v -119.240 -52.626 0.000
v -119.619 -52.951 0.000
v -119.294 -53.331 5.000
v -118.914 -53.005 5.000
v -119.240 -52.626 5.000
v -119.619 -52.951 5.000
v -111.707 -46.816 0.000
v -111.327 -46.491 0.000
v -111.653 -46.111 0.000
v -112.032 -46.437 0.000
v -111.707 -46.816 5.000
v -111.327 -46.491 5.000
v -111.653 -46.111 5.000
v -112.032 -46.437 5.000
v -104.120 -40.302 0.000
v -103.740 -39.976 0.000
v -104.066 -39.597 0.000
v -104.445 -39.923 0.000
v -104.120 -40.302 5.000
v -103.740 -39.976 5.000
v -104.066 -39.597 5.000
v -104.445 -39.923 5.000
v -96.532 -33.788 0.000
v -96.153 -33.462 0.000
v -96.479 -33.083 0.000
v -96.858 -33.408 0.000
v -96.532 -33.788 5.000
v -96.153 -33.462 5.000
v -96.479 -33.083 5.000
v -96.858 -33.408 5.000
v -88.945 -27.273 0.000
v -88.566 -26.948 0.000
v -88.892 -26.568 0.000
v -89.271 -26.894 0.000
v -88.945 -27.273 5.000
v -88.566 -26.948 5.000
v -88.892 -26.568 5.000
v -89.271 -26.894 5.000
v -81.358 -20.759 0.000
v -80.979 -20.433 0.000
v -81.305 -20.054 0.000
v -81.684 -20.380 0.000
v -81.358 -20.759 5.000
v -80.979 -20.433 5.000
v -81.305 -20.054 5.000
v -81.684 -20.380 5.000
v -73.771 -14.245 0.000
v -73.392 -13.919 0.000
v -73.718 -13.539 0.000
v -74.097 -13.865 0.000
v -73.771 -14.245 5.000
v -73.392 -13.919 5.000
v -73.718 -13.539 5.000
v -74.097 -13.865 5.000
v -66.184 -7.730 0.000
v -65.805 -7.404 0.000
v -66.131 -7.025 0.000
v -66.510 -7.351 0.000
v -66.184 -7.730 5.000
v -65.805 -7.404 5.000
v -66.131 -7.025 5.000
v -66.510 -7.351 5.000
v -58.597 -1.216 0.000
v -58.218 -0.890 0.000
v -58.544 -0.511 0.000
v -58.923 -0.836 0.000
v -58.597 -1.216 5.000
v -58.218 -0.890 5.000
v -58.544 -0.511 5.000
v -58.923 -0.836 5.000
v -51.010 5.299 0.000
v -50.631 5.624 0.000
v -50.957 6.004 0.000
v -51.336 5.678 0.000
v -51.010 5.299 5.000
v -50.631 5.624 5.000
v -50.957 6.004 5.000
v -51.336 5.678 5.000
v -43.423 11.813 0.000
v -43.044 12.139 0.000
v -43.370 12.518 0.000
v -43.749 12.192 0.000
v -43.423 11.813 5.000
v -43.044 12.139 5.000
v -43.370 12.518 5.000
v -43.749 12.192 5.000
v -35.836 18.327 0.000
v -35.457 18.653 0.000
v -35.783 19.032 0.000
v -36.162 18.707 0.000
v -35.836 18.327 5.000
v -35.457 18.653 5.000
v -35.783 19.032 5.000
v -36.162 18.707 5.000
v -28.249 24.842 0.000
v -27.870 25.167 0.000
v -28.196 25.547 0.000
v -28.575 25.221 0.000
v -28.249 24.842 5.000
v -27.870 25.167 5.000
v -28.196 25.547 5.000
v -28.575 25.221 5.000
v -20.662 31.356 0.000
v -20.283 31.682 0.000
v -20.609 32.061 0.000
v -20.988 31.735 0.000
v -20.662 31.356 5.000
v -20.283 31.682 5.000
v -20.609 32.061 5.000
v -20.988 31.735 5.000
v -13.075 37.870 0.000
v -12.696 38.196 0.000
v -13.022 38.575 0.000
v -13.401 38.250 0.000
v -13.075 37.870 5.000
v -12.696 38.196 5.000
v -13.022 38.575 5.000
v -13.401 38.250 5.000
v -5.488 44.385 0.000
v -5.109 44.710 0.000
v -5.434 45.090 0.000
v -5.814 44.764 0.000
v -5.488 44.385 5.000
v -5.109 44.710 5.000
v -5.434 45.090 5.000
v -5.814 44.764 5.000
v 2.099 50.899 0.000
v 2.478 51.225 0.000
v 2.153 51.604 0.000
v 1.773 51.278 0.000
v 2.099 50.899 5.000
v 2.478 51.225 5.000
v 2.153 51.604 5.000
v 1.773 51.278 5.000
v 9.686 57.413 0.000
v 10.065 57.739 0.000
v 9.740 58.119 0.000
v 9.360 57.793 0.000
v 9.686 57.413 5.000
v 10.065 57.739 5.000
v 9.740 58.119 5.000
v 9.360 57.793 5.000
v 17.273 63.928 0.000
v 17.652 64.254 0.000
v 17.327 64.633 0.000
v 16.947 64.307 0.000
v 17.273 63.928 5.000
v 17.652 64.254 5.000
v 17.327 64.633 5.000
v 16.947 64.307 5.000
v 24.860 70.442 0.000
v 25.239 70.768 0.000
v 24.914 71.147 0.000
v 24.534 70.822 0.000
v 24.860 70.442 5.000
v 25.239 70.768 5.000
v 24.914 71.147 5.000
v 24.534 70.822 5.000
v 32.447 76.957 0.000
v 32.826 77.282 0.000
v 32.501 77.662 0.000
v 32.121 77.336 0.000
v 32.447 76.957 5.000
v 32.826 77.282 5.000
v 32.501 77.662 5.000
v 32.121 77.336 5.000
v 40.034 83.471 0.000
v 40.413 83.797 0.000
v 40.088 84.176 0.000
v 39.708 83.850 0.000
v 40.034 83.471 5.000
v 40.413 83.797 5.000
v 40.088 84.176 5.000
v 39.708 83.850 5.000
v 47.621 89.985 0.000
v 48.000 90.311 0.000
v 47.675 90.690 0.000
v 47.295 90.365 0.000
v 47.621 89.985 5.000
v 48.000 90.311 5.000
v 47.675 90.690 5.000
v 47.295 90.365 5.000
v 55.208 96.500 0.000
v 55.587 96.825 0.000
v 55.262 97.205 0.000
v 54.882 96.879 0.000
v 55.208 96.500 5.000
v 55.587 96.825 5.000
v 55.262 97.205 5.000
v 54.882 96.879 5.000
v 62.795 103.014 0.000
v 63.175 103.340 0.000
v 62.849 103.719 0.000
v 62.469 103.393 0.000
v 62.795 103.014 5.000
v 63.175 103.340 5.000
v 62.849 103.719 5.000
v 62.469 103.393 5.000
v 70.382 109.528 0.000
v 70.762 109.854 0.000
v 70.436 110.233 0.000
v 70.056 109.908 0.000
v 70.382 109.528 5.000
v 70.762 109.854 5.000
v 70.436 110.233 5.000
v 70.056 109.908 5.000
v 77.969 116.043 0.000
v 78.349 116.368 0.000
v 78.023 116.748 0.000
v 77.644 116.422 0.000
v 77.969 116.043 5.000
v 78.349 116.368 5.000
v 78.023 116.748 5.000
v 77.644 116.422 5.000
v -126.789 -59.568 1.500
v 78.061 116.319 1.500
v 77.931 116.471 1.500
v -126.919 -59.417 1.500
v -126.789 -59.568 1.700
v 78.061 116.319 1.700
v 77.931 116.471 1.700
v -126.919 -59.417 1.700
v -126.789 -59.568 2.900
v 78.061 116.319 2.900
v 77.931 116.471 2.900
v -126.919 -59.417 2.900
v -126.789 -59.568 3.100
v 78.061 116.319 3.100
v 77.931 116.471 3.100
v -126.919 -59.417 3.100
v -126.789 -59.568 4.300
v 78.061 116.319 4.300
v 77.931 116.471 4.300
v -126.919 -59.417 4.300
v -126.789 -59.568 4.500
v 78.061 116.319 4.500
v 77.931 116.471 4.500
v -126.919 -59.417 4.500
v -78.023 -116.748 0.000
v -77.644 -116.422 0.000
v -77.969 -116.043 0.000
v -78.349 -116.368 0.000
v -78.023 -116.748 5.000
v -77.644 -116.422 5.000
v -77.969 -116.043 5.000
v -78.349 -116.368 5.000
v -84.130 -109.635 0.000
v -83.751 -109.309 0.000
v -84.076 -108.930 0.000
v -84.456 -109.256 0.000
v -84.130 -109.635 5.000
v -83.751 -109.309 5.000
v -84.076 -108.930 5.000
v -84.456 -109.256 5.000
v -90.237 -102.522 0.000
v -89.858 -102.196 0.000
v -90.184 -101.817 0.000
v -90.563 -102.143 0.000
v -90.237 -102.522 5.000
v -89.858 -102.196 5.000
v -90.184 -101.817 5.000
v -90.563 -102.143 5.000
v -96.345 -95.409 0.000
v -95.965 -95.084 0.000
v -96.291 -94.704 0.000
v -96.670 -95.030 0.000
v -96.345 -95.409 5.000
v -95.965 -95.084 5.000
v -96.291 -94.704 5.000
v -96.670 -95.030 5.000
v -102.452 -88.296 0.000
v -102.072 -87.971 0.000
v -102.398 -87.591 0.000
v -102.777 -87.917 0.000
v -102.452 -88.296 5.000
v -102.072 -87.971 5.000
v -102.398 -87.591 5.000
v -102.777 -87.917 5.000
v -108.559 -81.184 0.000
v -108.180 -80.858 0.000
v -108.505 -80.479 0.000
v -108.885 -80.804 0.000
v -108.559 -81.184 5.000
v -108.180 -80.858 5.000
v -108.505 -80.479 5.000
v -108.885 -80.804 5.000
v -114.666 -74.071 0.000
v -114.287 -73.745 0.000
v -114.613 -73.366 0.000
v -114.992 -73.691 0.000
v -114.666 -74.071 5.000
v -114.287 -73.745 5.000
v -114.613 -73.366 5.000
v -114.992 -73.691 5.000
v -120.773 -66.958 0.000
v -120.394 -66.632 0.000
v -120.720 -66.253 0.000
v -121.099 -66.579 0.000
v -120.773 -66.958 5.000
v -120.394 -66.632 5.000
v -120.720 -66.253 5.000
v -121.099 -66.579 5.000
v -126.881 -59.845 0.000
v -126.501 -59.519 0.000
v -126.827 -59.140 0.000
v -127.206 -59.466 0.000
v -126.881 -59.845 5.000
v -126.501 -59.519 5.000
v -126.827 -59.140 5.000
v -127.206 -59.466 5.000
v -78.072 -116.460 1.500
v -77.920 -116.330 1.500
v -126.778 -59.427 1.500
v -126.930 -59.558 1.500
v -78.072 -116.460 1.700
v -77.920 -116.330 1.700
v -126.778 -59.427 1.700
v -126.930 -59.558 1.700
v -78.072 -116.460 2.900
v -77.920 -116.330 2.900
v -126.778 -59.427 2.900
v -126.930 -59.558 2.900
v -78.072 -116.460 3.100
v -77.920 -116.330 3.100
v -126.778 -59.427 3.100
v -126.930 -59.558 3.100
v -78.072 -116.460 4.300
v -77.920 -116.330 4.300
v -126.778 -59.427 4.300
v -126.930 -59.558 4.300
v -78.072 -116.460 4.500
v -77.920 -116.330 4.500
v -126.778 -59.427 4.500
v -126.930 -59.558 4.500
v 126.827 59.140 0.000
v 127.206 59.466 0.000
v 126.881 59.845 0.000
v 126.501 59.519 0.000
v 126.827 59.140 5.000
v 127.206 59.466 5.000
v 126.881 59.845 5.000
v 126.501 59.519 5.000
v 120.720 66.253 0.000
v 121.099 66.579 0.000
v 120.773 66.958 0.000
v 120.394 66.632 0.000
v 120.720 66.253 5.000
v 121.099 66.579 5.000
v 120.773 66.958 5.000
v 120.394 66.632 5.000
v 114.613 73.366 0.000
v 114.992 73.691 0.000
v 114.666 74.071 0.000
v 114.287 73.745 0.000
v 114.613 73.366 5.000
v 114.992 73.691 5.000
v 114.666 74.071 5.000
v 114.287 73.745 5.000
v 108.505 80.479 0.000
v 108.885 80.804 0.000
v 108.559 81.184 0.000
v 108.180 80.858 0.000
v 108.505 80.479 5.000
v 108.885 80.804 5.000
v 108.559 81.184 5.000
v 108.180 80.858 5.000
v 102.398 87.591 0.000
v 102.777 87.917 0.000
v 102.452 88.296 0.000
v 102.072 87.971 0.000
v 102.398 87.591 5.000
v 102.777 87.917 5.000
v 102.452 88.296 5.000
v 102.072 87.971 5.000
v 96.291 94.704 0.000
v 96.670 95.030 0.000
v 96.345 95.409 0.000
v 95.965 95.084 0.000
v 96.291 94.704 5.000
v 96.670 95.030 5.000
v 96.345 95.409 5.000
v 95.965 95.084 5.000
v 90.184 101.817 0.000
v 90.563 102.143 0.000
v 90.237 102.522 0.000
v 89.858 102.196 0.000
v 90.184 101.817 5.000
v 90.563 102.143 5.000
v 90.237 102.522 5.000
v 89.858 102.196 5.000
v 84.076 108.930 0.000
v 84.456 109.256 0.000
v 84.130 109.635 0.000
v 83.751 109.309 0.000
v 84.076 108.930 5.000
v 84.456 109.256 5.000
v 84.130 109.635 5.000
v 83.751 109.309 5.000
v 77.969 116.043 0.000
v 78.349 116.368 0.000
v 78.023 116.748 0.000
v 77.644 116.422 0.000
v 77.969 116.043 5.000
v 78.349 116.368 5.000
v 78.023 116.748 5.000
v 77.644 116.422 5.000
v 126.778 59.427 1.500
v 126.930 59.558 1.500
v 78.072 116.460 1.500
v 77.920 116.330 1.500
v 126.778 59.427 1.700
v 126.930 59.558 1.700
v 78.072 116.460 1.700
v 77.920 116.330 1.700
v 126.778 59.427 2.900
v 126.930 59.558 2.900
v 78.072 116.460 2.900
v 77.920 116.330 2.900
v 126.778 59.427 3.100
v 126.930 59.558 3.100
v 78.072 116.460 3.100
v 77.920 116.330 3.100
v 126.778 59.427 4.300
v 126.930 59.558 4.300
v 78.072 116.460 4.300
v 77.920 116.330 4.300
v 126.778 59.427 4.500
v 126.930 59.558 4.500
v 78.072 116.460 4.500
v 77.920 116.330 4.500
v -26.810 -72.776 0.000
v -26.431 -72.450 0.000
v -26.757 -72.071 0.000
v -27.136 -72.397 0.000
v -26.810 -72.776 5.000
v -26.431 -72.450 5.000
v -26.757 -72.071 5.000
v -27.136 -72.397 5.000
v -32.918 -65.663 0.000
v -32.538 -65.337 0.000
v -32.864 -64.958 0.000
v -33.243 -65.284 0.000
v -32.918 -65.663 5.000
v -32.538 -65.337 5.000
v -32.864 -64.958 5.000
v -33.243 -65.284 5.000
v -39.025 -58.550 0.000
v -38.645 -58.224 0.000
v -38.971 -57.845 0.000
v -39.351 -58.171 0.000
v -39.025 -58.550 5.000
v -38.645 -58.224 5.000
v -38.971 -57.845 5.000
v -39.351 -58.171 5.000
v -45.132 -51.437 0.000
v -44.753 -51.112 0.000
v -45.078 -50.732 0.000
v -45.458 -51.058 0.000
v -45.132 -51.437 5.000
v -44.753 -51.112 5.000
v -45.078 -50.732 5.000
v -45.458 -51.058 5.000
v -51.239 -44.325 0.000
v -50.860 -43.999 0.000
v -51.186 -43.619 0.000
v -51.565 -43.945 0.000
v -51.239 -44.325 5.000
v -50.860 -43.999 5.000
v -51.186 -43.619 5.000
v -51.565 -43.945 5.000
v -57.346 -37.212 0.000
v -56.967 -36.886 0.000
v -57.293 -36.507 0.000
v -57.672 -36.832 0.000
v -57.346 -37.212 5.000
v -56.967 -36.886 5.000
v -57.293 -36.507 5.000
v -57.672 -36.832 5.000
v -63.454 -30.099 0.000
v -63.074 -29.773 0.000
v -63.400 -29.394 0.000
v -63.779 -29.719 0.000
v -63.454 -30.099 5.000
v -63.074 -29.773 5.000
v -63.400 -29.394 5.000
v -63.779 -29.719 5.000
v -69.561 -22.986 0.000
v -69.182 -22.660 0.000
v -69.507 -22.281 0.000
v -69.887 -22.607 0.000
v -69.561 -22.986 5.000
v -69.182 -22.660 5.000
v -69.507 -22.281 5.000
v -69.887 -22.607 5.000
v -75.668 -15.873 0.000
v -75.289 -15.547 0.000
v -75.615 -15.168 0.000
v -75.994 -15.494 0.000
v -75.668 -15.873 5.000
v -75.289 -15.547 5.000
v -75.615 -15.168 5.000
v -75.994 -15.494 5.000
v -26.859 -72.488 1.500
v -26.708 -72.358 1.500
v -75.565 -15.455 1.500
v -75.717 -15.586 1.500
v -26.859 -72.488 1.700
v -26.708 -72.358 1.700
v -75.565 -15.455 1.700
v -75.717 -15.586 1.700
v -26.859 -72.488 2.900
v -26.708 -72.358 2.900
v -75.565 -15.455 2.900
v -75.717 -15.586 2.900
v -26.859 -72.488 3.100
v -26.708 -72.358 3.100
v -75.565 -15.455 3.100
v -75.717 -15.586 3.100
v -26.859 -72.488 4.300
v -26.708 -72.358 4.300
v -75.565 -15.455 4.300
v -75.717 -15.586 4.300
v -26.859 -72.488 4.500
v -26.708 -72.358 4.500
v -75.565 -15.455 4.500
v -75.717 -15.586 4.500
v 24.402 -28.804 0.000
v 24.781 -28.478 0.000
v 24.456 -28.099 0.000
v 24.076 -28.425 0.000
v 24.402 -28.804 5.000
v 24.781 -28.478 5.000
v 24.456 -28.099 5.000
v 24.076 -28.425 5.000
v 18.295 -21.691 0.000
v 18.674 -21.365 0.000
v 18.348 -20.986 0.000
v 17.969 -21.312 0.000
v 18.295 -21.691 5.000
v 18.674 -21.365 5.000
v 18.348 -20.986 5.000
v 17.969 -21.312 5.000
v 12.188 -14.578 0.000
v 12.567 -14.252 0.000
v 12.241 -13.873 0.000
v 11.862 -14.199 0.000
v 12.188 -14.578 5.000
v 12.567 -14.252 5.000
v 12.241 -13.873 5.000
v 11.862 -14.199 5.000
v 6.080 -7.465 0.000
v 6.460 -7.140 0.000
v 6.134 -6.760 0.000
v 5.755 -7.086 0.000
v 6.080 -7.465 5.000
v 6.460 -7.140 5.000
v 6.134 -6.760 5.000
v 5.755 -7.086 5.000
v -0.027 -0.353 0.000
v 0.353 -0.027 0.000
v 0.027 0.353 0.000
v -0.353 0.027 0.000
v -0.027 -0.353 5.000
v 0.353 -0.027 5.000
v 0.027 0.353 5.000
v -0.353 0.027 5.000
v -6.134 6.760 0.000
v -5.755 7.086 0.000
v -6.080 7.465 0.000
v -6.460 7.140 0.000
v -6.134 6.760 5.000
v -5.755 7.086 5.000
v -6.080 7.465 5.000
v -6.460 7.140 5.000
v -12.241 13.873 0.000
v -11.862 14.199 0.000
v -12.188 14.578 0.000
v -12.567 14.252 0.000
v -12.241 13.873 5.000
v -11.862 14.199 5.000
v -12.188 14.578 5.000
v -12.567 14.252 5.000
v -18.348 20.986 0.000
v -17.969 21.312 0.000
v -18.295 21.691 0.000
v -18.674 21.365 0.000
v -18.348 20.986 5.000
v -17.969 21.312 5.000
v -18.295 21.691 5.000
v -18.674 21.365 5.000
v -24.456 28.099 0.000
v -24.076 28.425 0.000
v -24.402 28.804 0.000
v -24.781 28.478 0.000
v -24.456 28.099 5.000
v -24.076 28.425 5.000
v -24.402 28.804 5.000
v -24.781 28.478 5.000
v 24.353 -28.517 1.500
v 24.505 -28.386 1.500
v -24.353 28.517 1.500
v -24.505 28.386 1.500
v 24.353 -28.517 1.700
v 24.505 -28.386 1.700
v -24.353 28.517 1.700
v -24.505 28.386 1.700
v 24.353 -28.517 2.900
v 24.505 -28.386 2.900
v -24.353 28.517 2.900
v -24.505 28.386 2.900
v 24.353 -28.517 3.100
v 24.505 -28.386 3.100
v -24.353 28.517 3.100
v -24.505 28.386 3.100
v 24.353 -28.517 4.300
v 24.505 -28.386 4.300
v -24.353 28.517 4.300
v -24.505 28.386 4.300
v 24.353 -28.517 4.500
v 24.505 -28.386 4.500
v -24.353 28.517 4.500
v -24.505 28.386 4.500
v 75.615 15.168 0.000
v 75.994 15.494 0.000
v 75.668 15.873 0.000
v 75.289 15.547 0.000
v 75.615 15.168 5.000
v 75.994 15.494 5.000
v 75.668 15.873 5.000
v 75.289 15.547 5.000
v 69.507 22.281 0.000
v 69.887 22.607 0.000
v 69.561 22.986 0.000
v 69.182 22.660 0.000
v 69.507 22.281 5.000
v 69.887 22.607 5.000
v 69.561 22.986 5.000
v 69.182 22.660 5.000
v 63.400 29.394 0.000
v 63.779 29.719 0.000
v 63.454 30.099 0.000
v 63.074 29.773 0.000
v 63.400 29.394 5.000
v 63.779 29.719 5.000
v 63.454 30.099 5.000
v 63.074 29.773 5.000
v 57.293 36.507 0.000
v 57.672 36.832 0.000
v 57.346 37.212 0.000
v 56.967 36.886 0.000
v 57.293 36.507 5.000
v 57.672 36.832 5.000
v 57.346 37.212 5.000
v 56.967 36.886 5.000
v 51.186 43.619 0.000
v 51.565 43.945 0.000
v 51.239 44.325 0.000
v 50.860 43.999 0.000
v 51.186 43.619 5.000
v 51.565 43.945 5.000
v 51.239 44.325 5.000
v 50.860 43.999 5.000
v 45.078 50.732 0.000
v 45.458 51.058 0.000
v 45.132 51.437 0.000
v 44.753 51.112 0.000
v 45.078 50.732 5.000
v 45.458 51.058 5.000
v 45.132 51.437 5.000
v 44.753 51.112 5.000
v 38.971 57.845 0.000
v 39.351 58.171 0.000
v 39.025 58.550 0.000
v 38.645 58.224 0.000
v 38.971 57.845 5.000
v 39.351 58.171 5.000
v 39.025 58.550 5.000
v 38.645 58.224 5.000
v 32.864 64.958 0.000
v 33.243 65.284 0.000
v 32.918 65.663 0.000
v 32.538 65.337 0.000
v 32.864 64.958 5.000
v 33.243 65.284 5.000
v 32.918 65.663 5.000
v 32.538 65.337 5.000
v 26.757 72.071 0.000
v 27.136 72.397 0.000
v 26.810 72.776 0.000
v 26.431 72.450 0.000
v 26.757 72.071 5.000
v 27.136 72.397 5.000
v 26.810 72.776 5.000
v 26.431 72.450 5.000
v 75.565 15.455 1.500
v 75.717 15.586 1.500
v 26.859 72.488 1.500
v 26.708 72.358 1.500
v 75.565 15.455 1.700
v 75.717 15.586 1.700
v 26.859 72.488 1.700
v 26.708 72.358 1.700
v 75.565 15.455 2.900
v 75.717 15.586 2.900
v 26.859 72.488 2.900
v 26.708 72.358 2.900
v 75.565 15.455 3.100
v 75.717 15.586 3.100
v 26.859 72.488 3.100
v 26.708 72.358 3.100
v 75.565 15.455 4.300
v 75.717 15.586 4.300
v 26.859 72.488 4.300
v 26.708 72.358 4.300
v 75.565 15.455 4.500
v 75.717 15.586 4.500
v 26.859 72.488 4.500
v 26.708 72.358 4.500
v -94.725 -54.313 0.000
v -85.621 -46.496 0.000
v -96.044 -34.357 0.000
v -105.148 -42.174 0.000
v -94.725 -54.313 0.300
v -85.621 -46.496 0.300
v -96.044 -34.357 0.300
v -105.148 -42.174 0.300
v -104.888 -42.477 0.300
v -95.783 -34.660 0.300
v -96.044 -34.357 0.300
v -105.148 -42.174 0.300
v -104.888 -42.477 8.500
v -95.783 -34.660 8.500
v -96.044 -34.357 8.500
v -105.148 -42.174 8.500
v -94.725 -54.313 0.300
v -94.422 -54.053 0.300
v -104.845 -41.913 0.300
v -105.148 -42.174 0.300
v -94.725 -54.313 8.500
v -94.422 -54.053 8.500
v -104.845 -41.913 8.500
v -105.148 -42.174 8.500
v -85.924 -46.756 0.300
v -85.621 -46.496 0.300
v -96.044 -34.357 0.300
v -96.347 -34.617 0.300
v -85.924 -46.756 8.500
v -85.621 -46.496 8.500
v -96.044 -34.357 8.500
v -96.347 -34.617 8.500
v -94.763 -54.346 0.300
v -94.308 -53.955 0.300
v -94.634 -53.576 0.300
v -95.089 -53.966 0.300
v -94.763 -54.346 10.300
v -94.308 -53.955 10.300
v -94.634 -53.576 10.300
v -95.089 -53.966 10.300
v -86.038 -46.854 0.300
v -85.583 -46.463 0.300
v -85.909 -46.084 0.300
v -86.364 -46.475 0.300
v -86.038 -46.854 10.300
v -85.583 -46.463 10.300
v -85.909 -46.084 10.300
v -86.364 -46.475 10.300
v -94.833 -55.723 8.500
v -84.211 -46.603 8.500
v -95.937 -32.947 10.300
v -106.558 -42.067 10.300
v -94.833 -55.723 8.800
v -84.211 -46.603 8.800
v -95.937 -32.947 10.600
v -106.558 -42.067 10.600
v -43.513 -10.341 0.000
v -34.408 -2.524 0.000
v -44.831 9.615 0.000
v -53.936 1.798 0.000
v -43.513 -10.341 0.300
v -34.408 -2.524 0.300
v -44.831 9.615 0.300
v -53.936 1.798 0.300
v -53.675 1.495 0.300
v -44.571 9.312 0.300
v -44.831 9.615 0.300
v -53.936 1.798 0.300
v -53.675 1.495 8.500
v -44.571 9.312 8.500
v -44.831 9.615 8.500
v -53.936 1.798 8.500
v -43.513 -10.341 0.300
v -43.209 -10.081 0.300
v -53.632 2.059 0.300
v -53.936 1.798 0.300
v -43.513 -10.341 8.500
v -43.209 -10.081 8.500
v -53.632 2.059 8.500
v -53.936 1.798 8.500
v -34.712 -2.785 0.300
v -34.408 -2.524 0.300
v -44.831 9.615 0.300
v -45.135 9.355 0.300
v -34.712 -2.785 8.500
v -34.408 -2.524 8.500
v -44.831 9.615 8.500
v -45.135 9.355 8.500
v -43.551 -10.374 0.300
v -43.096 -9.983 0.300
v -43.421 -9.604 0.300
v -43.877 -9.994 0.300
v -43.551 -10.374 10.300
v -43.096 -9.983 10.300
v -43.421 -9.604 10.300
v -43.877 -9.994 10.300
v -34.826 -2.882 0.300
v -34.371 -2.491 0.300
v -34.696 -2.112 0.300
v -35.151 -2.503 0.300
v -34.826 -2.882 10.300
v -34.371 -2.491 10.300
v -34.696 -2.112 10.300
v -35.151 -2.503 10.300
v -43.620 -11.751 8.500
v -32.998 -2.631 8.500
v -44.724 11.025 10.300
v -55.346 1.905 10.300
v -43.620 -11.751 8.800
v -32.998 -2.631 8.800
v -44.724 11.025 10.600
v -55.346 1.905 10.600
v 7.700 33.631 0.000
v 16.804 41.448 0.000
v 6.381 53.587 0.000
v -2.723 45.770 0.000
v 7.700 33.631 0.300
v 16.804 41.448 0.300
v 6.381 53.587 0.300
v -2.723 45.770 0.300
v -2.463 45.467 0.300
v 6.642 53.284 0.300
v 6.381 53.587 0.300
v -2.723 45.770 0.300
v -2.463 45.467 8.500
v 6.642 53.284 8.500
v 6.381 53.587 8.500
v -2.723 45.770 8.500
v 7.700 33.631 0.300
v 8.003 33.891 0.300
v -2.420 46.031 0.300
v -2.723 45.770 0.300
v 7.700 33.631 8.500
v 8.003 33.891 8.500
v -2.420 46.031 8.500
v -2.723 45.770 8.500
v 16.501 41.187 0.300
v 16.804 41.448 0.300
v 6.381 53.587 0.300
v 6.078 53.327 0.300
v 16.501 41.187 8.500
v 16.804 41.448 8.500
v 6.381 53.587 8.500
v 6.078 53.327 8.500
v 7.662 33.598 0.300
v 8.117 33.989 0.300
v 7.791 34.368 0.300
v 7.336 33.978 0.300
v 7.662 33.598 10.300
v 8.117 33.989 10.300
v 7.791 34.368 10.300
v 7.336 33.978 10.300
v 16.387 41.090 0.300
v 16.842 41.481 0.300
v 16.516 41.860 0.300
v 16.061 41.469 0.300
v 16.387 41.090 10.300
v 16.842 41.481 10.300
v 16.516 41.860 10.300
v 16.061 41.469 10.300
v 7.592 32.221 8.500
v 18.214 41.341 8.500
v 6.488 54.997 10.300
v -4.134 45.877 10.300
v 7.592 32.221 8.800
v 18.214 41.341 8.800
v 6.488 54.997 10.600
v -4.134 45.877 10.600
v 58.912 77.603 0.000
v 68.016 85.420 0.000
v 57.593 97.559 0.000
v 48.489 89.742 0.000
v 58.912 77.603 0.300
v 68.016 85.420 0.300
v 57.593 97.559 0.300
v 48.489 89.742 0.300
v 48.750 89.439 0.300
v 57.854 97.256 0.300
v 57.593 97.559 0.300
v 48.489 89.742 0.300
v 48.750 89.439 8.500
v 57.854 97.256 8.500
v 57.593 97.559 8.500
v 48.489 89.742 8.500
v 58.912 77.603 0.300
v 59.216 77.863 0.300
v 48.793 90.003 0.300
v 48.489 89.742 0.300
v 58.912 77.603 8.500
v 59.216 77.863 8.500
v 48.793 90.003 8.500
v 48.489 89.742 8.500
v 67.713 85.159 0.300
v 68.016 85.420 0.300
v 57.593 97.559 0.300
v 57.290 97.299 0.300
v 67.713 85.159 8.500
v 68.016 85.420 8.500
v 57.593 97.559 8.500
v 57.290 97.299 8.500
v 58.874 77.570 0.300
v 59.329 77.961 0.300
v 59.004 78.340 0.300
v 58.548 77.950 0.300
v 58.874 77.570 10.300
v 59.329 77.961 10.300
v 59.004 78.340 10.300
v 58.548 77.950 10.300
v 67.599 85.062 0.300
v 68.054 85.453 0.300
v 67.729 85.832 0.300
v 67.273 85.441 0.300
v 67.599 85.062 10.300
v 68.054 85.453 10.300
v 67.729 85.832 10.300
v 67.273 85.441 10.300
v 58.805 76.193 8.500
v 69.427 85.313 8.500
v 57.701 98.969 10.300
v 47.079 89.849 10.300
v 58.805 76.193 8.800
v 69.427 85.313 8.800
v 57.701 98.969 10.600
v 47.079 89.849 10.600
f 1 4 3 2
f 5 6 7 8
f 1 2 6 5
f 2 3 7 6
f 3 4 8 7
f 4 1 5 8
f 9 12 11 10
f 13 14 15 16
f 9 10 14 13
f 10 11 15 14
f 11 12 16 15
f 12 9 13 16
f 17 20 19 18
f 21 22 23 24
f 17 18 22 21
f 18 19 23 22
f 19 20 24 23
f 20 17 21 24
f 25 28 27 26
f 29 30 31 32
f 25 26 30 29
f 26 27 31 30
f 27 28 32 31
f 28 25 29 32
f 33 36 35 34
f 37 38 39 40
f 33 34 38 37
f 34 35 39 38
f 35 36 40 39
f 36 33 37 40
f 41 44 43 42
f 45 46 47 48
f 41 42 46 45
f 42 43 47 46
f 43 44 48 47
f 44 41 45 48
f 49 52 51 50
f 53 54 55 56
f 49 50 54 53
f 50 51 55 54
f 51 52 56 55
f 52 49 53 56
f 57 60 59 58
f 61 62 63 64
f 57 58 62 61
f 58 59 63 62
f 59 60 64 63
f 60 57 61 64
f 65 68 67 66
f 69 70 71 72
f 65 66 70 69
f 66 67 71 70
f 67 68 72 71
f 68 65 69 72
f 73 76 75 74
f 77 78 79 80
f 73 74 78 77
f 74 75 79 78
f 75 76 80 79
f 76 73 77 80
f 81 84 83 82
f 85 86 87 88
f 81 82 86 85
f 82 83 87 86
f 83 84 88 87
f 84 81 85 88
f 89 92 91 90
f 93 94 95 96
f 89 90 94 93
f 90 91 95 94
f 91 92 96 95
f 92 89 93 96
f 97 100 99 98
f 101 102 103 104
f 97 98 102 101
f 98 99 103 102
f 99 100 104 103
f 100 97 101 104
f 105 108 107 106
f 109 110 111 112
f 105 106 110 109
f 106 107 111 110
f 107 108 112 111
f 108 105 109 112
f 113 116 115 114
f 117 118 119 120
f 113 114 118 117
f 114 115 119 118
f 115 116 120 119
f 116 113 117 120
f 121 124 123 122
f 125 126 127 128
f 121 122 126 125
f 122 123 127 126
f 123 124 128 127
f 124 121 125 128
f 129 132 131 130
f 133 134 135 136
f 129 130 134 133
f 130 131 135 134
f 131 132 136 135
f 132 129 133 136
f 137 140 139 138
f 141 142 143 144
f 137 138 142 141
f 138 139 143 142
f 139 140 144 143
f 140 137 141 144
f 145 148 147 146
f 149 150 151 152
f 145 146 150 149
f 146 147 151 150
f 147 148 152 151
f 148 145 149 152
f 153 156 155 154
f 157 158 159 160
f 153 154 158 157
f 154 155 159 158
f 155 156 160 159
f 156 153 157 160
f 161 164 163 162
f 165 166 167 168
f 161 162 166 165
f 162 163 167 166
f 163 164 168 167
f 164 161 165 168
f 169 172 171 170
f 173 174 175 176
f 169 170 174 173
f 170 171 175 174
f 171 172 176 175
f 172 169 173 176
f 177 180 179 178
f 181 182 183 184
f 177 178 182 181
f 178 179 183 182
f 179 180 184 183
f 180 177 181 184
f 185 188 187 186
f 189 190 191 192
f 185 186 190 189
f 186 187 191 190
f 187 188 192 191
f 188 185 189 192
f 193 196 195 194
f 197 198 199 200
f 193 194 198 197
f 194 195 199 198
f 195 196 200 199
f 196 193 197 200
f 201 204 203 202
f 205 206 207 208
f 201 202 206 205
f 202 203 207 206
f 203 204 208 207
f 204 201 205 208
f 209 212 211 210
f 213 214 215 216
f 209 210 214 213
f 210 211 215 214
f 211 212 216 215
f 212 209 213 216
f 217 220 219 218
f 221 222 223 224
f 217 218 222 221
f 218 219 223 222
f 219 220 224 223
f 220 217 221 224
f 225 228 227 226
f 229 230 231 232
f 225 226 230 229
f 226 227 231 230
f 227 228 232 231
f 228 225 229 232
f 233 236 235 234
f 237 238 239 240
f 233 234 238 237
f 234 235 239 238
f 235 236 240 239
f 236 233 237 240
f 241 244 243 242
f 245 246 247 248
f 241 242 246 245
f 242 243 247 246
f 243 244 248 247
f 244 241 245 248
f 249 252 251 250
f 253 254 255 256
f 249 250 254 253
f 250 251 255 254
f 251 252 256 255
f 252 249 253 256
f 257 260 259 258
f 261 262 263 264
f 257 258 262 261
f 258 259 263 262
f 259 260 264 263
f 260 257 261 264
f 265 268 267 266
f 269 270 271 272
f 265 266 270 269
f 266 267 271 270
f 267 268 272 271
f 268 265 269 272
f 273 276 275 274
f 277 278 279 280
f 273 274 278 277
f 274 275 279 278
f 275 276 280 279
f 276 273 277 280
f 281 284 283 282
f 285 286 287 288
f 281 282 286 285
f 282 283 287 286
f 283 284 288 287
f 284 281 285 288
f 289 292 291 290
f 293 294 295 296
f 289 290 294 293
f 290 291 295 294
f 291 292 296 295
f 292 289 293 296
f 297 300 299 298
f 301 302 303 304
f 297 298 302 301
f 298 299 303 302
f 299 300 304 303
f 300 297 301 304
f 305 308 307 306
f 309 310 311 312
f 305 306 310 309
f 306 307 311 310
f 307 308 312 311
f 308 305 309 312
f 313 316 315 314
f 317 318 319 320
f 313 314 318 317
f 314 315 319 318
f 315 316 320 319
f 316 313 317 320
f 321 324 323 322
f 325 326 327 328
f 321 322 326 325
f 322 323 327 326
f 323 324 328 327
f 324 321 325 328
f 329 332 331 330
f 333 334 335 336
f 329 330 334 333
f 330 331 335 334
f 331 332 336 335
f 332 329 333 336
f 337 340 339 338
f 341 342 343 344
f 337 338 342 341
f 338 339 343 342
f 339 340 344 343
f 340 337 341 344
f 345 348 347 346
f 349 350 351 352
f 345 346 350 349
f 346 347 351 350
f 347 348 352 351
f 348 345 349 352
f 353 356 355 354
f 357 358 359 360
f 353 354 358 357
f 354 355 359 358
f 355 356 360 359
f 356 353 357 360
f 361 364 363 362
f 365 366 367 368
f 361 362 366 365
f 362 363 367 366
f 363 364 368 367
f 364 361 365 368
f 369 372 371 370
f 373 374 375 376
f 369 370 374 373
f 370 371 375 374
f 371 372 376 375
f 372 369 373 376
f 377 380 379 378
f 381 382 383 384
f 377 378 382 381
f 378 379 383 382
f 379 380 384 383
f 380 377 381 384
f 385 388 387 386
f 389 390 391 392
f 385 386 390 389
f 386 387 391 390
f 387 388 392 391
f 388 385 389 392
f 393 396 395 394
f 397 398 399 400
f 393 394 398 397
f 394 395 399 398
f 395 396 400 399
f 396 393 397 400
f 401 404 403 402
f 405 406 407 408
f 401 402 406 405
f 402 403 407 406
f 403 404 408 407
f 404 401 405 408
f 409 412 411 410
f 413 414 415 416
f 409 410 414 413
f 410 411 415 414
f 411 412 416 415
f 412 409 413 416
f 417 420 419 418
f 421 422 423 424
f 417 418 422 421
f 418 419 423 422
f 419 420 424 423
f 420 417 421 424
f 425 428 427 426
f 429 430 431 432
f 425 426 430 429
f 426 427 431 430
f 427 428 432 431
f 428 425 429 432
f 433 436 435 434
f 437 438 439 440
f 433 434 438 437
f 434 435 439 438
f 435 436 440 439
f 436 433 437 440
f 441 444 443 442
f 445 446 447 448
f 441 442 446 445
f 442 443 447 446
f 443 444 448 447
f 444 441 445 448
f 449 452 451 450
f 453 454 455 456
f 449 450 454 453
f 450 451 455 454
f 451 452 456 455
f 452 449 453 456
f 457 460 459 458
f 461 462 463 464
f 457 458 462 461
f 458 459 463 462
f 459 460 464 463
f 460 457 461 464
f 465 468 467 466
f 469 470 471 472
f 465 466 470 469
f 466 467 471 470
f 467 468 472 471
f 468 465 469 472
f 473 476 475 474
f 477 478 479 480
f 473 474 478 477
f 474 475 479 478
f 475 476 480 479
f 476 473 477 480
f 481 484 483 482
f 485 486 487 488
f 481 482 486 485
f 482 483 487 486
f 483 484 488 487
f 484 481 485 488
f 489 492 491 490
f 493 494 495 496
f 489 490 494 493
f 490 491 495 494
f 491 492 496 495
f 492 489 493 496
f 497 500 499 498
f 501 502 503 504
f 497 498 502 501
f 498 499 503 502
f 499 500 504 503
f 500 497 501 504
f 505 508 507 506
f 509 510 511 512
f 505 506 510 509
f 506 507 511 510
f 507 508 512 511
f 508 505 509 512
f 513 516 515 514
f 517 518 519 520
f 513 514 518 517
f 514 515 519 518
f 515 516 520 519
f 516 513 517 520
f 521 524 523 522
f 525 526 527 528
f 521 522 526 525
f 522 523 527 526
f 523 524 528 527
f 524 521 525 528
f 529 532 531 530
f 533 534 535 536
f 529 530 534 533
f 530 531 535 534
f 531 532 536 535
f 532 529 533 536
f 537 540 539 538
f 541 542 543 544
f 537 538 542 541
f 538 539 543 542
f 539 540 544 543
f 540 537 541 544
f 545 548 547 546
f 549 550 551 552
f 545 546 550 549
f 546 547 551 550
f 547 548 552 551
f 548 545 549 552
f 553 556 555 554
f 557 558 559 560
f 553 554 558 557
f 554 555 559 558
f 555 556 560 559
f 556 553 557 560
f 561 564 563 562
f 565 566 567 568
f 561 562 566 565
f 562 563 567 566
f 563 564 568 567
f 564 561 565 568
f 569 572 571 570
f 573 574 575 576
f 569 570 574 573
f 570 571 575 574
f 571 572 576 575
f 572 569 573 576
f 577 580 579 578
f 581 582 583 584
f 577 578 582 581
f 578 579 583 582
f 579 580 584 583
f 580 577 581 584
f 585 588 587 586
f 589 590 591 592
f 585 586 590 589
f 586 587 591 590
f 587 588 592 591
f 588 585 589 592
f 593 596 595 594
f 597 598 599 600
f 593 594 598 597
f 594 595 599 598
f 595 596 600 599
f 596 593 597 600
f 601 604 603 602
f 605 606 607 608
f 601 602 606 605
f 602 603 607 606
f 603 604 608 607
f 604 601 605 608
f 609 612 611 610
f 613 614 615 616
f 609 610 614 613
f 610 611 615 614
f 611 612 616 615
f 612 609 613 616
f 617 620 619 618
f 621 622 623 624
f 617 618 622 621
f 618 619 623 622
f 619 620 624 623
f 620 617 621 624
f 625 628 627 626
f 629 630 631 632
f 625 626 630 629
f 626 627 631 630
f 627 628 632 631
f 628 625 629 632
f 633 636 635 634
f 637 638 639 640
f 633 634 638 637
f 634 635 639 638
f 635 636 640 639
f 636 633 637 640
f 641 644 643 642
f 645 646 647 648
f 641 642 646 645
f 642 643 647 646
f 643 644 648 647
f 644 641 645 648
f 649 652 651 650
f 653 654 655 656
f 649 650 654 653
f 650 651 655 654
f 651 652 656 655
f 652 649 653 656
f 657 660 659 658
f 661 662 663 664
f 657 658 662 661
f 658 659 663 662
f 659 660 664 663
f 660 657 661 664
f 665 668 667 666
f 669 670 671 672
f 665 666 670 669
f 666 667 671 670
f 667 668 672 671
f 668 665 669 672
f 673 676 675 674
f 677 678 679 680
f 673 674 678 677
f 674 675 679 678
f 675 676 680 679
f 676 673 677 680
f 681 684 683 682
f 685 686 687 688
f 681 682 686 685
f 682 683 687 686
f 683 684 688 687
f 684 681 685 688
f 689 692 691 690
f 693 694 695 696
f 689 690 694 693
f 690 691 695 694
f 691 692 696 695
f 692 689 693 696
f 697 700 699 698
f 701 702 703 704
f 697 698 702 701
f 698 699 703 702
f 699 700 704 703
f 700 697 701 704
f 705 708 707 706
f 709 710 711 712
f 705 706 710 709
f 706 707 711 710
f 707 708 712 711
f 708 705 709 712
f 713 716 715 714
f 717 718 719 720
f 713 714 718 717
f 714 715 719 718
f 715 716 720 719
f 716 713 717 720
f 721 724 723 722
f 725 726 727 728
f 721 722 726 725
f 722 723 727 726
f 723 724 728 727
f 724 721 725 728
f 729 732 731 730
f 733 734 735 736
f 729 730 734 733
f 730 731 735 734
f 731 732 736 735
f 732 729 733 736
f 737 740 739 738
f 741 742 743 744
f 737 738 742 741
f 738 739 743 742
f 739 740 744 743
f 740 737 741 744
f 745 748 747 746
f 749 750 751 752
f 745 746 750 749
f 746 747 751 750
f 747 748 752 751
f 748 745 749 752
f 753 756 755 754
f 757 758 759 760
f 753 754 758 757
f 754 755 759 758
f 755 756 760 759
f 756 753 757 760
f 761 764 763 762
f 765 766 767 768
f 761 762 766 765
f 762 763 767 766
f 763 764 768 767
f 764 761 765 768
f 769 772 771 770
f 773 774 775 776
f 769 770 774 773
f 770 771 775 774
f 771 772 776 775
f 772 769 773 776
f 777 780 779 778
f 781 782 783 784
f 777 778 782 781
f 778 779 783 782
f 779 780 784 783
f 780 777 781 784
f 785 788 787 786
f 789 790 791 792
f 785 786 790 789
f 786 787 791 790
f 787 788 792 791
f 788 785 789 792
f 793 796 795 794
f 797 798 799 800
f 793 794 798 797
f 794 795 799 798
f 795 796 800 799
f 796 793 797 800
f 801 804 803 802
f 805 806 807 808
f 801 802 806 805
f 802 803 807 806
f 803 804 808 807
f 804 801 805 808
f 809 812 811 810
f 813 814 815 816
f 809 810 814 813
f 810 811 815 814
f 811 812 816 815
f 812 809 813 816
f 817 820 819 818
f 821 822 823 824
f 817 818 822 821
f 818 819 823 822
f 819 820 824 823
f 820 817 821 824
f 825 828 827 826
f 829 830 831 832
f 825 826 830 829
f 826 827 831 830
f 827 828 832 831
f 828 825 829 832
f 833 836 835 834
f 837 838 839 840
f 833 834 838 837
f 834 835 839 838
f 835 836 840 839
f 836 833 837 840
f 841 844 843 842
f 845 846 847 848
f 841 842 846 845
f 842 843 847 846
f 843 844 848 847
f 844 841 845 848
f 849 852 851 850
f 853 854 855 856
f 849 850 854 853
f 850 851 855 854
f 851 852 856 855
f 852 849 853 856
f 857 860 859 858
f 861 862 863 864
f 857 858 862 861
f 858 859 863 862
f 859 860 864 863
f 860 857 861 864
f 865 868 867 866
f 869 870 871 872
f 865 866 870 869
f 866 867 871 870
f 867 868 872 871
f 868 865 869 872
f 873 876 875 874
f 877 878 879 880
f 873 874 878 877
f 874 875 879 878
f 875 876 880 879
f 876 873 877 880
f 881 884 883 882
f 885 886 887 888
f 881 882 886 885
f 882 883 887 886
f 883 884 888 887
f 884 881 885 888
f 889 892 891 890
f 893 894 895 896
f 889 890 894 893
f 890 891 895 894
f 891 892 896 895
f 892 889 893 896
f 897 900 899 898
f 901 902 903 904
f 897 898 902 901
f 898 899 903 902
f 899 900 904 903
f 900 897 901 904
f 905 908 907 906
f 909 910 911 912
f 905 906 910 909
f 906 907 911 910
f 907 908 912 911
f 908 905 909 912
f 913 916 915 914
f 917 918 919 920
f 913 914 918 917
f 914 915 919 918
f 915 916 920 919
f 916 913 917 920
f 921 924 923 922
f 925 926 927 928
f 921 922 926 925
f 922 923 927 926
f 923 924 928 927
f 924 921 925 928
f 929 932 931 930
f 933 934 935 936
f 929 930 934 933
f 930 931 935 934
f 931 932 936 935
f 932 929 933 936
f 937 940 939 938
f 941 942 943 944
f 937 938 942 941
f 938 939 943 942
f 939 940 944 943
f 940 937 941 944
f 945 948 947 946
f 949 950 951 952
f 945 946 950 949
f 946 947 951 950
f 947 948 952 951
f 948 945 949 952
f 953 956 955 954
f 957 958 959 960
f 953 954 958 957
f 954 955 959 958
f 955 956 960 959
f 956 953 957 960
f 961 964 963 962
f 965 966 967 968
f 961 962 966 965
f 962 963 967 966
f 963 964 968 967
f 964 961 965 968
f 969 972 971 970
f 973 974 975 976
f 969 970 974 973
f 970 971 975 974
f 971 972 976 975
f 972 969 973 976
f 977 980 979 978
f 981 982 983 984
f 977 978 982 981
f 978 979 983 982
f 979 980 984 983
f 980 977 981 984
f 985 988 987 986
f 989 990 991 992
f 985 986 990 989
f 986 987 991 990
f 987 988 992 991
f 988 985 989 992
f 993 996 995 994
f 997 998 999 1000
f 993 994 998 997
f 994 995 999 998
f 995 996 1000 999
f 996 993 997 1000
f 1001 1004 1003 1002
f 1005 1006 1007 1008
f 1001 1002 1006 1005
f 1002 1003 1007 1006
f 1003 1004 1008 1007
f 1004 1001 1005 1008
f 1009 1012 1011 1010
f 1013 1014 1015 1016
f 1009 1010 1014 1013
f 1010 1011 1015 1014
f 1011 1012 1016 1015
f 1012 1009 1013 1016
f 1017 1020 1019 1018
f 1021 1022 1023 1024
f 1017 1018 1022 1021
f 1018 1019 1023 1022
f 1019 1020 1024 1023
f 1020 1017 1021 1024
f 1025 1026 1027 1028
f 1029 1030 1031 1032
f 1033 1036 1035 1034
f 1037 1038 1039 1040
f 1033 1034 1038 1037
f 1034 1035 1039 1038
f 1035 1036 1040 1039
f 1036 1033 1037 1040
f 1041 1044 1043 1042
f 1045 1046 1047 1048
f 1041 1042 1046 1045
f 1042 1043 1047 1046
f 1043 1044 1048 1047
f 1044 1041 1045 1048
f 1049 1052 1051 1050
f 1053 1054 1055 1056
f 1049 1050 1054 1053
f 1050 1051 1055 1054
f 1051 1052 1056 1055
f 1052 1049 1053 1056
f 1057 1060 1059 1058
f 1061 1062 1063 1064
f 1057 1058 1062 1061
f 1058 1059 1063 1062
f 1059 1060 1064 1063
f 1060 1057 1061 1064
f 1065 1068 1067 1066
f 1069 1070 1071 1072
f 1065 1066 1070 1069
f 1066 1067 1071 1070
f 1067 1068 1072 1071
f 1068 1065 1069 1072
f 1073 1076 1075 1074
f 1077 1078 1079 1080
f 1073 1074 1078 1077
f 1074 1075 1079 1078
f 1075 1076 1080 1079
f 1076 1073 1077 1080
f 1081 1082 1083 1084
f 1085 1086 1087 1088
f 1089 1092 1091 1090
f 1093 1094 1095 1096
f 1089 1090 1094 1093
f 1090 1091 1095 1094
f 1091 1092 1096 1095
f 1092 1089 1093 1096
f 1097 1100 1099 1098
f 1101 1102 1103 1104
f 1097 1098 1102 1101
f 1098 1099 1103 1102
f 1099 1100 1104 1103
f 1100 1097 1101 1104
f 1105 1108 1107 1106
f 1109 1110 1111 1112
f 1105 1106 1110 1109
f 1106 1107 1111 1110
f 1107 1108 1112 1111
f 1108 1105 1109 1112
f 1113 1116 1115 1114
f 1117 1118 1119 1120
f 1113 1114 1118 1117
f 1114 1115 1119 1118
f 1115 1116 1120 1119
f 1116 1113 1117 1120
f 1121 1124 1123 1122
f 1125 1126 1127 1128
f 1121 1122 1126 1125
f 1122 1123 1127 1126
f 1123 1124 1128 1127
f 1124 1121 1125 1128
f 1129 1132 1131 1130
f 1133 1134 1135 1136
f 1129 1130 1134 1133
f 1130 1131 1135 1134
f 1131 1132 1136 1135
f 1132 1129 1133 1136
f 1137 1138 1139 1140
f 1141 1142 1143 1144
f 1145 1148 1147 1146
f 1149 1150 1151 1152
f 1145 1146 1150 1149
f 1146 1147 1151 1150
f 1147 1148 1152 1151
f 1148 1145 1149 1152
f 1153 1156 1155 1154
f 1157 1158 1159 1160
f 1153 1154 1158 1157
f 1154 1155 1159 1158
f 1155 1156 1160 1159
f 1156 1153 1157 1160
f 1161 1164 1163 1162
f 1165 1166 1167 1168
f 1161 1162 1166 1165
f 1162 1163 1167 1166
f 1163 1164 1168 1167
f 1164 1161 1165 1168
f 1169 1172 1171 1170
f 1173 1174 1175 1176
f 1169 1170 1174 1173
f 1170 1171 1175 1174
f 1171 1172 1176 1175
f 1172 1169 1173 1176
f 1177 1180 1179 1178
f 1181 1182 1183 1184
f 1177 1178 1182 1181
f 1178 1179 1183 1182
f 1179 1180 1184 1183
f 1180 1177 1181 1184
f 1185 1188 1187 1186
f 1189 1190 1191 1192
f 1185 1186 1190 1189
f 1186 1187 1191 1190
f 1187 1188 1192 1191
f 1188 1185 1189 1192
f 1193 1194 1195 1196
f 1197 1198 1199 1200
