# long stone water trough along the west road, 40 ft, one level on a levelled strip, rim 2 ft, ~650 gal (Will markup, 28 Sep)
# unit m
# name stone trough (long)
v -2.982 5.344 0.610
v 2.008 -5.780 0.610
v 2.982 -5.344 0.610
v -2.008 5.780 0.610
v -2.008 5.780 0.000
v 2.982 -5.344 0.000
v 2.008 -5.780 0.000
v -2.982 5.344 0.000
v -2.982 5.344 0.000
v 2.008 -5.780 0.000
v 2.008 -5.780 0.610
v -2.982 5.344 0.610
v 2.008 -5.780 0.000
v 2.982 -5.344 0.000
v 2.982 -5.344 0.610
v 2.008 -5.780 0.610
v 2.982 -5.344 0.000
v -2.008 5.780 0.000
v -2.008 5.780 0.610
v 2.982 -5.344 0.610
v -2.008 5.780 0.000
v -2.982 5.344 0.000
v -2.982 5.344 0.610
v -2.008 5.780 0.610
v -2.982 5.344 1.067
v 2.008 -5.780 1.067
v 2.231 -5.681 1.067
v -2.759 5.444 1.067
v -2.759 5.444 0.610
v 2.231 -5.681 0.610
v 2.008 -5.780 0.610
v -2.982 5.344 0.610
v -2.982 5.344 0.610
v 2.008 -5.780 0.610
v 2.008 -5.780 1.067
v -2.982 5.344 1.067
v 2.008 -5.780 0.610
v 2.231 -5.681 0.610
v 2.231 -5.681 1.067
v 2.008 -5.780 1.067
v 2.231 -5.681 0.610
v -2.759 5.444 0.610
v -2.759 5.444 1.067
v 2.231 -5.681 1.067
v -2.759 5.444 0.610
v -2.982 5.344 0.610
v -2.982 5.344 1.067
v -2.759 5.444 1.067
v -2.231 5.681 1.067
v 2.759 -5.444 1.067
v 2.982 -5.344 1.067
v -2.008 5.780 1.067
v -2.008 5.780 0.610
v 2.982 -5.344 0.610
v 2.759 -5.444 0.610
v -2.231 5.681 0.610
v -2.231 5.681 0.610
v 2.759 -5.444 0.610
v 2.759 -5.444 1.067
v -2.231 5.681 1.067
v 2.759 -5.444 0.610
v 2.982 -5.344 0.610
v 2.982 -5.344 1.067
v 2.759 -5.444 1.067
v 2.982 -5.344 0.610
v -2.008 5.780 0.610
v -2.008 5.780 1.067
v 2.982 -5.344 1.067
v -2.008 5.780 0.610
v -2.231 5.681 0.610
v -2.231 5.681 1.067
v -2.008 5.780 1.067
v -2.759 5.444 1.067
v -2.659 5.221 1.067
v -2.131 5.458 1.067
v -2.231 5.681 1.067
v -2.231 5.681 0.610
v -2.131 5.458 0.610
v -2.659 5.221 0.610
v -2.759 5.444 0.610
v -2.759 5.444 0.610
v -2.659 5.221 0.610
v -2.659 5.221 1.067
v -2.759 5.444 1.067
v -2.659 5.221 0.610
v -2.131 5.458 0.610
v -2.131 5.458 1.067
v -2.659 5.221 1.067
v -2.131 5.458 0.610
v -2.231 5.681 0.610
v -2.231 5.681 1.067
v -2.131 5.458 1.067
v -2.231 5.681 0.610
v -2.759 5.444 0.610
v -2.759 5.444 1.067
v -2.231 5.681 1.067
v 2.131 -5.458 1.067
v 2.231 -5.681 1.067
v 2.759 -5.444 1.067
v 2.659 -5.221 1.067
v 2.659 -5.221 0.610
v 2.759 -5.444 0.610
v 2.231 -5.681 0.610
v 2.131 -5.458 0.610
v 2.131 -5.458 0.610
v 2.231 -5.681 0.610
v 2.231 -5.681 1.067
v 2.131 -5.458 1.067
v 2.231 -5.681 0.610
v 2.759 -5.444 0.610
v 2.759 -5.444 1.067
v 2.231 -5.681 1.067
v 2.759 -5.444 0.610
v 2.659 -5.221 0.610
v 2.659 -5.221 1.067
v 2.759 -5.444 1.067
v 2.659 -5.221 0.610
v 2.131 -5.458 0.610
v 2.131 -5.458 1.067
v 2.659 -5.221 1.067
v -2.659 5.221 0.960
v 2.131 -5.458 0.960
v 2.659 -5.221 0.960
v -2.131 5.458 0.960
usemtl rock
f 1 2 3 4
f 5 6 7 8
f 9 10 11 12
f 13 14 15 16
f 17 18 19 20
f 21 22 23 24
f 25 26 27 28
f 29 30 31 32
f 33 34 35 36
f 37 38 39 40
f 41 42 43 44
f 45 46 47 48
f 49 50 51 52
f 53 54 55 56
f 57 58 59 60
f 61 62 63 64
f 65 66 67 68
f 69 70 71 72
f 73 74 75 76
f 77 78 79 80
f 81 82 83 84
f 85 86 87 88
f 89 90 91 92
f 93 94 95 96
f 97 98 99 100
f 101 102 103 104
f 105 106 107 108
f 109 110 111 112
f 113 114 115 116
f 117 118 119 120
usemtl water
f 121 122 123 124
