# tractor trailer, 40 x 8 ft box, deck 4 ft off the ground, roof at 13 ft
# unit ft
# name trailer 8 x 40
v -20.000 -4.000 4.000
v 20.000 -4.000 4.000
v 20.000 4.000 4.000
v -20.000 4.000 4.000
v -20.000 -4.000 13.000
v 20.000 -4.000 13.000
v 20.000 4.000 13.000
v -20.000 4.000 13.000
v -20.000 -3.900 3.500
v 20.000 -3.900 3.500
v 20.000 3.900 3.500
v -20.000 3.900 3.500
v -20.000 -3.900 4.000
v 20.000 -3.900 4.000
v 20.000 3.900 4.000
v -20.000 3.900 4.000
v -19.000 -0.350 2.950
v 19.000 -0.350 2.950
v 19.000 0.350 2.950
v -19.000 0.350 2.950
v -19.000 -0.350 3.500
v 19.000 -0.350 3.500
v 19.000 0.350 3.500
v -19.000 0.350 3.500
v -10.300 -3.325 1.700
v -10.528 -3.325 2.550
v -11.150 -3.325 3.172
v -12.000 -3.325 3.400
v -12.850 -3.325 3.172
v -13.472 -3.325 2.550
v -13.700 -3.325 1.700
v -13.472 -3.325 0.850
v -12.850 -3.325 0.228
v -12.000 -3.325 0.000
v -11.150 -3.325 0.228
v -10.528 -3.325 0.850
v -10.300 -2.475 1.700
v -10.528 -2.475 2.550
v -11.150 -2.475 3.172
v -12.000 -2.475 3.400
v -12.850 -2.475 3.172
v -13.472 -2.475 2.550
v -13.700 -2.475 1.700
v -13.472 -2.475 0.850
v -12.850 -2.475 0.228
v -12.000 -2.475 0.000
v -11.150 -2.475 0.228
v -10.528 -2.475 0.850
v -10.300 2.475 1.700
v -10.528 2.475 2.550
v -11.150 2.475 3.172
v -12.000 2.475 3.400
v -12.850 2.475 3.172
v -13.472 2.475 2.550
v -13.700 2.475 1.700
v -13.472 2.475 0.850
v -12.850 2.475 0.228
v -12.000 2.475 0.000
v -11.150 2.475 0.228
v -10.528 2.475 0.850
v -10.300 3.325 1.700
v -10.528 3.325 2.550
v -11.150 3.325 3.172
v -12.000 3.325 3.400
v -12.850 3.325 3.172
v -13.472 3.325 2.550
v -13.700 3.325 1.700
v -13.472 3.325 0.850
v -12.850 3.325 0.228
v -12.000 3.325 0.000
v -11.150 3.325 0.228
v -10.528 3.325 0.850
v -12.300 -3.200 1.450
v -11.700 -3.200 1.450
v -11.700 3.200 1.450
v -12.300 3.200 1.450
v -12.300 -3.200 1.950
v -11.700 -3.200 1.950
v -11.700 3.200 1.950
v -12.300 3.200 1.950
v -15.900 -3.325 1.700
v -16.128 -3.325 2.550
v -16.750 -3.325 3.172
v -17.600 -3.325 3.400
v -18.450 -3.325 3.172
v -19.072 -3.325 2.550
v -19.300 -3.325 1.700
v -19.072 -3.325 0.850
v -18.450 -3.325 0.228
v -17.600 -3.325 0.000
v -16.750 -3.325 0.228
v -16.128 -3.325 0.850
v -15.900 -2.475 1.700
v -16.128 -2.475 2.550
v -16.750 -2.475 3.172
v -17.600 -2.475 3.400
v -18.450 -2.475 3.172
v -19.072 -2.475 2.550
v -19.300 -2.475 1.700
v -19.072 -2.475 0.850
v -18.450 -2.475 0.228
v -17.600 -2.475 0.000
v -16.750 -2.475 0.228
v -16.128 -2.475 0.850
v -15.900 2.475 1.700
v -16.128 2.475 2.550
v -16.750 2.475 3.172
v -17.600 2.475 3.400
v -18.450 2.475 3.172
v -19.072 2.475 2.550
v -19.300 2.475 1.700
v -19.072 2.475 0.850
v -18.450 2.475 0.228
v -17.600 2.475 0.000
v -16.750 2.475 0.228
v -16.128 2.475 0.850
v -15.900 3.325 1.700
v -16.128 3.325 2.550
v -16.750 3.325 3.172
v -17.600 3.325 3.400
v -18.450 3.325 3.172
v -19.072 3.325 2.550
v -19.300 3.325 1.700
v -19.072 3.325 0.850
v -18.450 3.325 0.228
v -17.600 3.325 0.000
v -16.750 3.325 0.228
v -16.128 3.325 0.850
v -17.900 -3.200 1.450
v -17.300 -3.200 1.450
v -17.300 3.200 1.450
v -17.900 3.200 1.450
v -17.900 -3.200 1.950
v -17.300 -3.200 1.950
v -17.300 3.200 1.950
v -17.900 3.200 1.950
v 11.750 -2.050 0.000
v 12.250 -2.050 0.000
v 12.250 -1.550 0.000
v 11.750 -1.550 0.000
v 11.750 -2.050 3.500
v 12.250 -2.050 3.500
v 12.250 -1.550 3.500
v 11.750 -1.550 3.500
v 11.200 -2.500 0.000
v 12.800 -2.500 0.000
v 12.800 -1.100 0.000
v 11.200 -1.100 0.000
v 11.200 -2.500 0.250
v 12.800 -2.500 0.250
v 12.800 -1.100 0.250
v 11.200 -1.100 0.250
v 11.750 1.550 0.000
v 12.250 1.550 0.000
v 12.250 2.050 0.000
v 11.750 2.050 0.000
v 11.750 1.550 3.500
v 12.250 1.550 3.500
v 12.250 2.050 3.500
v 11.750 2.050 3.500
v 11.200 1.100 0.000
v 12.800 1.100 0.000
v 12.800 2.500 0.000
v 11.200 2.500 0.000
v 11.200 1.100 0.250
v 12.800 1.100 0.250
v 12.800 2.500 0.250
v 11.200 2.500 0.250
f 1 4 3 2
f 5 6 7 8
f 1 2 6 5
f 2 3 7 6
f 3 4 8 7
f 4 1 5 8
f 9 12 11 10
f 13 14 15 16
f 9 10 14 13
f 10 11 15 14
f 11 12 16 15
f 12 9 13 16
f 17 20 19 18
f 21 22 23 24
f 17 18 22 21
f 18 19 23 22
f 19 20 24 23
f 20 17 21 24
f 25 26 38 37
f 26 27 39 38
f 27 28 40 39
f 28 29 41 40
f 29 30 42 41
f 30 31 43 42
f 31 32 44 43
f 32 33 45 44
f 33 34 46 45
f 34 35 47 46
f 35 36 48 47
f 36 25 37 48
f 25 26 27 28 29 30 31 32 33 34 35 36
f 48 47 46 45 44 43 42 41 40 39 38 37
f 49 50 62 61
f 50 51 63 62
f 51 52 64 63
f 52 53 65 64
f 53 54 66 65
f 54 55 67 66
f 55 56 68 67
f 56 57 69 68
f 57 58 70 69
f 58 59 71 70
f 59 60 72 71
f 60 49 61 72
f 49 50 51 52 53 54 55 56 57 58 59 60
f 72 71 70 69 68 67 66 65 64 63 62 61
f 73 76 75 74
f 77 78 79 80
f 73 74 78 77
f 74 75 79 78
f 75 76 80 79
f 76 73 77 80
f 81 82 94 93
f 82 83 95 94
f 83 84 96 95
f 84 85 97 96
f 85 86 98 97
f 86 87 99 98
f 87 88 100 99
f 88 89 101 100
f 89 90 102 101
f 90 91 103 102
f 91 92 104 103
f 92 81 93 104
f 81 82 83 84 85 86 87 88 89 90 91 92
f 104 103 102 101 100 99 98 97 96 95 94 93
f 105 106 118 117
f 106 107 119 118
f 107 108 120 119
f 108 109 121 120
f 109 110 122 121
f 110 111 123 122
f 111 112 124 123
f 112 113 125 124
f 113 114 126 125
f 114 115 127 126
f 115 116 128 127
f 116 105 117 128
f 105 106 107 108 109 110 111 112 113 114 115 116
f 128 127 126 125 124 123 122 121 120 119 118 117
f 129 132 131 130
f 133 134 135 136
f 129 130 134 133
f 130 131 135 134
f 131 132 136 135
f 132 129 133 136
f 137 140 139 138
f 141 142 143 144
f 137 138 142 141
f 138 139 143 142
f 139 140 144 143
f 140 137 141 144
f 145 148 147 146
f 149 150 151 152
f 145 146 150 149
f 146 147 151 150
f 147 148 152 151
f 148 145 149 152
f 153 156 155 154
f 157 158 159 160
f 153 154 158 157
f 154 155 159 158
f 155 156 160 159
f 156 153 157 160
f 161 164 163 162
f 165 166 167 168
f 161 162 166 165
f 162 163 167 166
f 163 164 168 167
f 164 161 165 168
