# fieldstone trough 14 x 3 ft along the west edge of the wash pad, out from the SW corner, rim 2 ft (Will, 3 Oct)
# unit m
# name wash pad trough
v -0.101 -0.892 0.422
v 0.733 -0.518 0.422
v -0.951 3.236 0.422
v -1.785 2.862 0.422
v -1.785 2.862 0.000
v -0.951 3.236 0.000
v 0.733 -0.518 0.000
v -0.101 -0.892 0.000
v -0.101 -0.892 0.000
v 0.733 -0.518 0.000
v 0.733 -0.518 0.422
v -0.101 -0.892 0.422
v 0.733 -0.518 0.000
v -0.951 3.236 0.000
v -0.951 3.236 0.422
v 0.733 -0.518 0.422
v -0.951 3.236 0.000
v -1.785 2.862 0.000
v -1.785 2.862 0.422
v -0.951 3.236 0.422
v -1.785 2.862 0.000
v -0.101 -0.892 0.000
v -0.101 -0.892 0.422
v -1.785 2.862 0.422
v -0.101 -0.892 0.910
v 0.094 -0.805 0.910
v -1.590 2.949 0.910
v -1.785 2.862 0.910
v -1.785 2.862 0.422
v -1.590 2.949 0.422
v 0.094 -0.805 0.422
v -0.101 -0.892 0.422
v -0.101 -0.892 0.422
v 0.094 -0.805 0.422
v 0.094 -0.805 0.910
v -0.101 -0.892 0.910
v 0.094 -0.805 0.422
v -1.590 2.949 0.422
v -1.590 2.949 0.910
v 0.094 -0.805 0.910
v -1.590 2.949 0.422
v -1.785 2.862 0.422
v -1.785 2.862 0.910
v -1.590 2.949 0.910
v -1.785 2.862 0.422
v -0.101 -0.892 0.422
v -0.101 -0.892 0.910
v -1.785 2.862 0.910
v 0.539 -0.605 0.910
v 0.733 -0.518 0.910
v -0.951 3.236 0.910
v -1.145 3.149 0.910
v -1.145 3.149 0.422
v -0.951 3.236 0.422
v 0.733 -0.518 0.422
v 0.539 -0.605 0.422
v 0.539 -0.605 0.422
v 0.733 -0.518 0.422
v 0.733 -0.518 0.910
v 0.539 -0.605 0.910
v 0.733 -0.518 0.422
v -0.951 3.236 0.422
v -0.951 3.236 0.910
v 0.733 -0.518 0.910
v -0.951 3.236 0.422
v -1.145 3.149 0.422
v -1.145 3.149 0.910
v -0.951 3.236 0.910
v -1.145 3.149 0.422
v 0.539 -0.605 0.422
v 0.539 -0.605 0.910
v -1.145 3.149 0.910
v -0.101 -0.892 0.910
v 0.733 -0.518 0.910
v 0.646 -0.323 0.910
v -0.188 -0.698 0.910
v -0.188 -0.698 0.422
v 0.646 -0.323 0.422
v 0.733 -0.518 0.422
v -0.101 -0.892 0.422
v -0.101 -0.892 0.422
v 0.733 -0.518 0.422
v 0.733 -0.518 0.910
v -0.101 -0.892 0.910
v 0.733 -0.518 0.422
v 0.646 -0.323 0.422
v 0.646 -0.323 0.910
v 0.733 -0.518 0.910
v 0.646 -0.323 0.422
v -0.188 -0.698 0.422
v -0.188 -0.698 0.910
v 0.646 -0.323 0.910
v -0.188 -0.698 0.422
v -0.101 -0.892 0.422
v -0.101 -0.892 0.910
v -0.188 -0.698 0.910
v -1.698 2.667 0.910
v -0.863 3.042 0.910
v -0.951 3.236 0.910
v -1.785 2.862 0.910
v -1.785 2.862 0.422
v -0.951 3.236 0.422
v -0.863 3.042 0.422
v -1.698 2.667 0.422
v -1.698 2.667 0.422
v -0.863 3.042 0.422
v -0.863 3.042 0.910
v -1.698 2.667 0.910
v -0.863 3.042 0.422
v -0.951 3.236 0.422
v -0.951 3.236 0.910
v -0.863 3.042 0.910
v -0.951 3.236 0.422
v -1.785 2.862 0.422
v -1.785 2.862 0.910
v -0.951 3.236 0.910
v -1.785 2.862 0.422
v -1.698 2.667 0.422
v -1.698 2.667 0.910
v -1.785 2.862 0.910
v 0.007 -0.610 0.803
v 0.451 -0.411 0.803
v -1.058 2.954 0.803
v -1.503 2.755 0.803
v 0.319 -1.773 0.346
v 1.112 -1.417 0.346
v 0.713 -0.527 0.346
v -0.080 -0.883 0.346
v -0.080 -0.883 0.046
v 0.713 -0.527 0.046
v 1.112 -1.417 0.046
v 0.319 -1.773 0.046
v 0.319 -1.773 0.046
v 1.112 -1.417 0.046
v 1.112 -1.417 0.346
v 0.319 -1.773 0.346
v 1.112 -1.417 0.046
v 0.713 -0.527 0.046
v 0.713 -0.527 0.346
v 1.112 -1.417 0.346
v 0.713 -0.527 0.046
v -0.080 -0.883 0.046
v -0.080 -0.883 0.346
v 0.713 -0.527 0.346
v -0.080 -0.883 0.046
v 0.319 -1.773 0.046
v 0.319 -1.773 0.346
v -0.080 -0.883 0.346
v 0.319 -1.773 0.635
v 0.472 -1.704 0.635
v 0.073 -0.814 0.635
v -0.080 -0.883 0.635
v -0.080 -0.883 0.346
v 0.073 -0.814 0.346
v 0.472 -1.704 0.346
v 0.319 -1.773 0.346
v 0.319 -1.773 0.346
v 0.472 -1.704 0.346
v 0.472 -1.704 0.635
v 0.319 -1.773 0.635
v 0.472 -1.704 0.346
v 0.073 -0.814 0.346
v 0.073 -0.814 0.635
v 0.472 -1.704 0.635
v 0.073 -0.814 0.346
v -0.080 -0.883 0.346
v -0.080 -0.883 0.635
v 0.073 -0.814 0.635
v -0.080 -0.883 0.346
v 0.319 -1.773 0.346
v 0.319 -1.773 0.635
v -0.080 -0.883 0.635
v 0.959 -1.486 0.635
v 1.112 -1.417 0.635
v 0.713 -0.527 0.635
v 0.560 -0.596 0.635
v 0.560 -0.596 0.346
v 0.713 -0.527 0.346
v 1.112 -1.417 0.346
v 0.959 -1.486 0.346
v 0.959 -1.486 0.346
v 1.112 -1.417 0.346
v 1.112 -1.417 0.635
v 0.959 -1.486 0.635
v 1.112 -1.417 0.346
v 0.713 -0.527 0.346
v 0.713 -0.527 0.635
v 1.112 -1.417 0.635
v 0.713 -0.527 0.346
v 0.560 -0.596 0.346
v 0.560 -0.596 0.635
v 0.713 -0.527 0.635
v 0.560 -0.596 0.346
v 0.959 -1.486 0.346
v 0.959 -1.486 0.635
v 0.560 -0.596 0.635
v 0.319 -1.773 0.635
v 1.112 -1.417 0.635
v 1.043 -1.264 0.635
v 0.251 -1.620 0.635
v 0.251 -1.620 0.346
v 1.043 -1.264 0.346
v 1.112 -1.417 0.346
v 0.319 -1.773 0.346
v 0.319 -1.773 0.346
v 1.112 -1.417 0.346
v 1.112 -1.417 0.635
v 0.319 -1.773 0.635
v 1.112 -1.417 0.346
v 1.043 -1.264 0.346
v 1.043 -1.264 0.635
v 1.112 -1.417 0.635
v 1.043 -1.264 0.346
v 0.251 -1.620 0.346
v 0.251 -1.620 0.635
v 1.043 -1.264 0.635
v 0.251 -1.620 0.346
v 0.319 -1.773 0.346
v 0.319 -1.773 0.635
v 0.251 -1.620 0.635
v 0.404 -1.551 0.544
v 0.890 -1.333 0.544
v 0.560 -0.596 0.544
v 0.073 -0.814 0.544
v 0.313 -0.957 0.894
v 0.507 -0.870 0.894
v 0.358 -0.536 0.894
v 0.163 -0.624 0.894
v 0.163 -0.624 0.849
v 0.358 -0.536 0.849
v 0.507 -0.870 0.849
v 0.313 -0.957 0.849
v 0.313 -0.957 0.849
v 0.507 -0.870 0.849
v 0.507 -0.870 0.894
v 0.313 -0.957 0.894
v 0.507 -0.870 0.849
v 0.358 -0.536 0.849
v 0.358 -0.536 0.894
v 0.507 -0.870 0.894
v 0.358 -0.536 0.849
v 0.163 -0.624 0.849
v 0.163 -0.624 0.894
v 0.358 -0.536 0.894
v 0.163 -0.624 0.849
v 0.313 -0.957 0.849
v 0.313 -0.957 0.894
v 0.163 -0.624 0.894
v 0.349 -0.941 0.873
v 0.471 -0.886 0.873
v 0.515 -0.984 0.544
v 0.392 -1.039 0.544
usemtl rock
f 1 2 3 4
f 5 6 7 8
f 9 10 11 12
f 13 14 15 16
f 17 18 19 20
f 21 22 23 24
f 25 26 27 28
f 29 30 31 32
f 33 34 35 36
f 37 38 39 40
f 41 42 43 44
f 45 46 47 48
f 49 50 51 52
f 53 54 55 56
f 57 58 59 60
f 61 62 63 64
f 65 66 67 68
f 69 70 71 72
f 73 74 75 76
f 77 78 79 80
f 81 82 83 84
f 85 86 87 88
f 89 90 91 92
f 93 94 95 96
f 97 98 99 100
f 101 102 103 104
f 105 106 107 108
f 109 110 111 112
f 113 114 115 116
f 117 118 119 120
usemtl water
f 121 122 123 124
usemtl rock
f 125 126 127 128
f 129 130 131 132
f 133 134 135 136
f 137 138 139 140
f 141 142 143 144
f 145 146 147 148
f 149 150 151 152
f 153 154 155 156
f 157 158 159 160
f 161 162 163 164
f 165 166 167 168
f 169 170 171 172
f 173 174 175 176
f 177 178 179 180
f 181 182 183 184
f 185 186 187 188
f 189 190 191 192
f 193 194 195 196
f 197 198 199 200
f 201 202 203 204
f 205 206 207 208
f 209 210 211 212
f 213 214 215 216
f 217 218 219 220
usemtl water
f 221 222 223 224
usemtl rock
f 225 226 227 228
f 229 230 231 232
f 233 234 235 236
f 237 238 239 240
f 241 242 243 244
f 245 246 247 248
usemtl water
f 249 250 251 252
