<svg xmlns="http://www.w3.org/2000/svg" width="32.0in" height="18.0in" viewBox="0 0 32.0 18.0"><rect x="0" y="0" width="32.0" height="18.0" fill="none" stroke="#cccccc" stroke-width="0.01"/><path d="M0.3636,15.6045 L7.4206,15.5972 L13.2303,12.4787 L23.1835,11.4818 L27.9250,10.1654 L27.9250,8.5932 L22.3733,8.5106 L22.3443,8.4924 L22.5828,0.3100 L20.4797,0.3865 L19.8817,0.5499 L19.7413,0.6344 L19.7379,0.6962 L19.7769,0.7775 L19.7477,0.8432 L19.1781,1.1010 L18.3145,1.8713 L17.9432,2.1373 L17.6496,2.3010 L17.2456,2.4802 L16.8789,2.5986 L16.2176,2.7487 L15.9608,2.7799 L14.6406,3.1078 L12.7315,3.3529 L11.9605,3.6745 L11.5205,3.7721 L10.0529,3.8571 L8.9542,3.9793 L8.6583,3.8752 L8.3624,4.0285 L7.1171,4.0164 L6.4566,4.0468 L5.6859,4.1792 L4.6216,4.4405 L3.8877,4.4832 L3.5942,4.5357 L2.9705,4.8542 L2.8603,4.9426 L2.1908,6.0181 L2.0275,6.2388 L1.9072,6.3422 L1.5756,6.4157 L1.3490,6.6359 L1.2810,6.6131 L1.1355,6.4216 L1.0618,6.3941 L0.6578,6.4095 L0.3100,6.4713 L0.3636,15.6045 Z M1.9053,8.1099 L1.9577,8.0558 L2.0045,7.9967 L2.0759,7.8964 L2.1105,7.8430 L2.1406,7.7869 L2.1657,7.7284 L2.1789,7.6938 L2.1906,7.6890 L2.2587,7.6519 L2.3227,7.6081 L2.3817,7.5579 L2.8518,7.1145 L2.9145,7.0477 L2.9685,6.9737 L3.7433,5.7656 L4.0908,5.5845 L4.3156,5.5479 L4.9164,5.5470 L5.0191,5.5398 L5.8003,5.4307 L6.0991,5.4101 L7.3045,5.4625 L7.3567,5.4629 L7.7604,5.4524 L7.8151,5.4489 L8.4411,5.3866 L8.5172,5.3750 L8.5918,5.3557 L8.6639,5.3289 L8.7329,5.2948 L8.7518,5.2843 L8.7745,5.2898 L8.8442,5.3000 L8.9145,5.3037 L8.9848,5.3007 L9.0545,5.2912 L9.2734,5.2507 L9.8705,5.1988 L11.4216,5.1773 L11.4900,5.1732 L11.5577,5.1629 L11.6243,5.1464 L12.0630,5.0164 L12.1262,4.9945 L12.1873,4.9671 L12.2456,4.9344 L12.5044,4.7737 L12.5670,4.7303 L12.9309,4.4494 L13.2402,4.3181 L14.3637,4.2360 L14.4473,4.2251 L14.5292,4.2049 L14.8045,4.1204 L16.0599,3.9386 L16.6752,3.9253 L16.7584,3.9188 L17.1246,3.8698 L17.1983,3.8562 L17.2703,3.8352 L17.8580,3.6320 L17.9540,3.5911 L18.5409,3.2914 L18.5934,3.2618 L18.6434,3.2282 L20.0384,2.2049 L20.6484,1.8619 L20.7478,1.8282 L21.0319,1.7753 L21.2660,1.7691 L21.3409,1.7633 L21.4148,1.7501 L21.4870,1.7295 L21.5568,1.7019 L21.7241,1.6256 L21.7601,1.6389 L21.7935,1.6476 L21.5946,8.4706 L21.5959,8.5414 L21.6039,8.6119 L21.6185,8.6812 L21.6395,8.7489 L21.6669,8.8143 L21.7003,8.8768 L21.7395,8.9359 L21.7841,8.9910 L21.8336,9.0417 L21.8878,9.0874 L21.9460,9.1279 L21.9750,9.1461 L22.0343,9.1796 L22.0964,9.2076 L22.1607,9.2298 L22.2269,9.2462 L22.2942,9.2564 L22.3622,9.2605 L27.1750,9.3321 L27.1750,9.5953 L23.0448,10.7420 L13.1555,11.7324 L13.0827,11.7434 L13.0113,11.7614 L12.9420,11.7863 L12.8755,11.8179 L7.2317,14.8474 L1.1092,14.8537 L1.0922,11.9474 L1.1608,11.8612 L1.3204,11.7281 L1.3858,11.6666 L1.4434,11.5977 L1.5206,11.4932 L1.5886,11.4445 L1.6479,11.3973 L1.7022,11.3443 L1.7509,11.2861 L1.7935,11.2232 L1.8294,11.1564 L1.8585,11.0863 L1.8803,11.0136 L1.8946,10.9391 L1.9014,10.8636 L1.9005,10.7877 L1.8919,10.7123 L1.8757,10.6381 L1.8522,10.5660 L1.8214,10.4966 L1.7838,10.4307 L1.7398,10.3689 L1.7046,10.3246 L1.6713,10.1408 L1.6496,10.0526 L1.6175,9.9676 L1.4390,9.5702 L1.4306,9.5267 L1.4423,9.4512 L1.6353,8.9842 L1.6597,8.9161 L1.6774,8.8460 L1.7563,8.4545 L1.8552,8.1694 L1.8618,8.1466 L1.9053,8.1099 Z" fill="none" stroke="#ff0000" stroke-width="0.001"/><path d="M0.3168,7.6311 L0.5495,7.6476 L0.8716,7.8164 L1.0929,7.8165 L1.1354,7.8566 L1.1465,7.9237 L1.0311,8.2566 L0.9422,8.6978 L0.7148,9.2479 L0.6696,9.5408 L0.7191,9.7978 L0.9333,10.2749 L1.0002,10.6432 L1.1519,10.8347 L0.9877,10.9523 L0.8401,11.1521 L0.6217,11.3341 L0.3406,11.6872 L0.3636,15.6045 L7.4206,15.5972 L13.2303,12.4787 L23.1835,11.4818 L27.9250,10.1654 L27.9250,8.5932 L22.3733,8.5106 L22.3443,8.4924 L22.5826,0.3165 L22.3726,0.4034 L22.1588,0.6235 L22.1161,0.8402 L22.0518,0.9117 L21.9849,0.9234 L21.9436,0.8957 L21.8697,0.6930 L21.7219,0.6664 L21.6135,0.7215 L21.5027,0.9023 L21.2459,1.0193 L20.9526,1.0272 L20.5580,1.1007 L20.3418,1.1738 L19.6313,1.5733 L18.1998,2.6234 L17.6129,2.9232 L17.0252,3.1264 L16.6590,3.1754 L15.9978,3.1898 L14.6398,3.3864 L14.3090,3.4880 L13.0616,3.5792 L12.5491,3.7966 L12.1087,4.1365 L11.8499,4.2973 L11.4111,4.4273 L9.8328,4.4493 L9.1724,4.5066 L8.9181,4.5537 L8.6583,4.4772 L8.3668,4.6403 L7.7407,4.7026 L7.3371,4.7132 L6.0895,4.6590 L5.7226,4.6843 L4.9153,4.7970 L4.2544,4.7980 L3.8512,4.8637 L3.3008,5.1505 L3.1900,5.2391 L2.3372,6.5689 L1.8671,7.0123 L1.6123,7.0744 L1.4649,7.4614 L1.3935,7.5617 L1.3269,7.5649 L1.2838,7.5185 L0.9869,6.9354 L0.9150,6.8423 L0.8416,6.8022 L0.6577,6.8015 L0.5047,6.8616 L0.4377,6.9551 L0.3147,7.2689 L0.3168,7.6311 M1.9069,8.1115 L1.9593,8.0573 L1.9595,8.0572 L2.0062,7.9981 L2.0063,7.9980 L2.0776,7.8977 L2.0777,7.8976 L2.1124,7.8442 L2.1125,7.8441 L2.1425,7.7879 L2.1426,7.7878 L2.1678,7.7293 L2.1678,7.7292 L2.1806,7.6955 L2.1914,7.6910 L2.1916,7.6909 L2.2598,7.6539 L2.2600,7.6538 L2.3239,7.6099 L2.3241,7.6098 L2.3832,7.5596 L2.3832,7.5595 L2.8533,7.1161 L2.8534,7.1160 L2.9161,7.0492 L2.9163,7.0490 L2.9703,6.9750 L2.9704,6.9749 L3.7448,5.7673 L4.0915,5.5866 L4.3158,5.5501 L4.9164,5.5492 L4.9166,5.5492 L5.0192,5.5420 L5.0194,5.5420 L5.8005,5.4329 L6.0991,5.4123 L7.3044,5.4647 L7.3045,5.4647 L7.3567,5.4651 L7.3568,5.4651 L7.7604,5.4546 L7.7605,5.4546 L7.8152,5.4511 L7.8153,5.4511 L8.4413,5.3888 L8.4415,5.3887 L8.5176,5.3772 L8.5178,5.3772 L8.5923,5.3579 L8.5925,5.3578 L8.6647,5.3310 L8.6649,5.3309 L8.7339,5.2968 L8.7340,5.2967 L8.7521,5.2866 L8.7740,5.2920 L8.7742,5.2920 L8.8439,5.3022 L8.8441,5.3022 L8.9144,5.3059 L8.9146,5.3059 L8.9849,5.3029 L8.9851,5.3029 L9.0548,5.2934 L9.0549,5.2933 L9.2737,5.2529 L9.8706,5.2010 L11.4216,5.1795 L11.4217,5.1795 L11.4901,5.1754 L11.4903,5.1754 L11.5581,5.1651 L11.5583,5.1650 L11.6248,5.1486 L11.6249,5.1485 L12.0636,5.0185 L12.0637,5.0185 L12.1270,4.9966 L12.1271,4.9965 L12.1882,4.9691 L12.1883,4.9691 L12.2467,4.9363 L12.2468,4.9363 L12.5056,4.7755 L12.5057,4.7755 L12.5682,4.7321 L12.5683,4.7320 L12.9320,4.4513 L13.2407,4.3203 L14.3639,4.2382 L14.3640,4.2382 L14.4476,4.2273 L14.4478,4.2272 L14.5297,4.2071 L14.5298,4.2070 L14.8050,4.1225 L16.0601,3.9408 L16.6753,3.9275 L16.6754,3.9274 L16.7586,3.9210 L16.7587,3.9210 L17.1249,3.8720 L17.1250,3.8720 L17.1987,3.8583 L17.1989,3.8583 L17.2709,3.8374 L17.2710,3.8373 L17.8587,3.6341 L17.8589,3.6340 L17.9549,3.5931 L17.9550,3.5931 L18.5419,3.2933 L18.5420,3.2933 L18.5945,3.2637 L18.5946,3.2637 L18.6446,3.2300 L18.6447,3.2300 L20.0395,2.2067 L20.6493,1.8639 L20.7484,1.8304 L21.0321,1.7775 L21.2661,1.7713 L21.2662,1.7713 L21.3410,1.7655 L21.3412,1.7655 L21.4151,1.7522 L21.4154,1.7522 L21.4876,1.7316 L21.4878,1.7316 L21.5576,1.7039 L21.5577,1.7039 L21.7242,1.6280 L21.7594,1.6410 L21.7596,1.6410 L21.7912,1.6493 L21.5924,8.4705 L21.5924,8.4706 L21.5937,8.5415 L21.5937,8.5417 L21.6017,8.6121 L21.6017,8.6123 L21.6163,8.6817 L21.6164,8.6819 L21.6374,8.7496 L21.6375,8.7498 L21.6649,8.8152 L21.6650,8.8153 L21.6984,8.8779 L21.6985,8.8780 L21.7377,8.9371 L21.7378,8.9373 L21.7823,8.9924 L21.7825,8.9926 L21.8321,9.0432 L21.8322,9.0434 L21.8863,9.0891 L21.8865,9.0893 L21.9447,9.1297 L21.9448,9.1298 L21.9738,9.1479 L21.9739,9.1480 L22.0332,9.1815 L22.0334,9.1816 L22.0955,9.2096 L22.0957,9.2097 L22.1600,9.2319 L22.1602,9.2320 L22.2263,9.2483 L22.2265,9.2483 L22.2939,9.2586 L22.2941,9.2586 L22.3620,9.2627 L22.3621,9.2627 L27.1728,9.3343 L27.1728,9.5936 L23.0444,10.7398 L13.1553,11.7303 L13.1552,11.7303 L13.0824,11.7412 L13.0822,11.7412 L13.0108,11.7592 L13.0106,11.7593 L12.9413,11.7842 L12.9411,11.7843 L12.8746,11.8159 L12.8745,11.8160 L7.2311,14.8452 L1.1114,14.8515 L1.0944,11.9481 L1.1624,11.8627 L1.3218,11.7298 L1.3219,11.7297 L1.3873,11.6682 L1.3875,11.6680 L1.4451,11.5991 L1.4451,11.5990 L1.5221,11.4948 L1.5898,11.4463 L1.5899,11.4462 L1.6493,11.3990 L1.6495,11.3989 L1.7038,11.3459 L1.7039,11.3457 L1.7526,11.2875 L1.7527,11.2873 L1.7953,11.2245 L1.7954,11.2243 L1.8314,11.1575 L1.8315,11.1573 L1.8605,11.0872 L1.8606,11.0870 L1.8824,11.0143 L1.8824,11.0141 L1.8968,10.9395 L1.8968,10.9393 L1.9036,10.8637 L1.9036,10.8635 L1.9027,10.7877 L1.9027,10.7874 L1.8941,10.7120 L1.8940,10.7118 L1.8779,10.6377 L1.8778,10.6375 L1.8543,10.5653 L1.8542,10.5651 L1.8234,10.4957 L1.8233,10.4955 L1.7858,10.4296 L1.7856,10.4294 L1.7416,10.3677 L1.7415,10.3676 L1.7067,10.3236 L1.6734,10.1404 L1.6734,10.1403 L1.6518,10.0521 L1.6517,10.0518 L1.6196,9.9668 L1.6195,9.9667 L1.4411,9.5695 L1.4329,9.5267 L1.4444,9.4518 L1.6374,8.9851 L1.6374,8.9850 L1.6618,8.9169 L1.6618,8.9167 L1.6795,8.8465 L1.6796,8.8464 L1.7585,8.4550 L1.8572,8.1701 L1.8573,8.1700 L1.8637,8.1479 L1.9067,8.1116 L1.9069,8.1115" fill="none" stroke="#0000ff" stroke-width="0.001"/><path d="M19.7566,0.7097 L20.9310,0.6639 L22.1819,0.5840" fill="none" stroke="#0000ff" stroke-width="0.001"/><path d="M8.5882,3.9239 L8.6010,4.4966 M1.2702,7.4676 L1.2702,6.6171" fill="none" stroke="#0000ff" stroke-width="0.001"/><path d="M1.2702,6.6171 L1.2702,7.4676" fill="none" stroke="#0000ff" stroke-width="0.001"/><path d="M19.6078,0.9186 L21.5226,0.8489 M21.9328,0.8339 L22.0672,0.8290 L22.0657,0.8798 M0.8374,11.1373 L0.8311,10.0741 M0.8245,8.9536 L0.8178,7.8006 M0.8118,6.7911 L0.8096,6.4147" fill="none" stroke="#0000ff" stroke-width="0.001"/><path d="M0.5581,6.4384 L0.5581,6.8288 M0.5581,7.6645 L0.5581,11.3963" fill="none" stroke="#00a000" stroke-width="0.001"/><path d="M1.8081,6.3755 L1.8081,7.0153" fill="none" stroke="#00a000" stroke-width="0.001"/><path d="M3.0581,4.8218 L3.0581,5.4243" fill="none" stroke="#00a000" stroke-width="0.001"/><path d="M4.3081,4.4697 L4.3081,4.7869" fill="none" stroke="#00a000" stroke-width="0.001"/><path d="M5.5581,4.2219 L5.5581,4.6961" fill="none" stroke="#00a000" stroke-width="0.001"/><path d="M6.8081,4.0416 L6.8081,4.6792" fill="none" stroke="#00a000" stroke-width="0.001"/><path d="M8.0581,4.0365 L8.0581,4.6599" fill="none" stroke="#00a000" stroke-width="0.001"/><path d="M9.3081,3.9510 L9.3081,4.4838" fill="none" stroke="#00a000" stroke-width="0.001"/><path d="M10.5581,3.8389 L10.5581,4.4282" fill="none" stroke="#00a000" stroke-width="0.001"/><path d="M11.8081,3.7196 L11.8081,4.2982" fill="none" stroke="#00a000" stroke-width="0.001"/><path d="M13.0581,3.3221 L13.0581,3.5687" fill="none" stroke="#00a000" stroke-width="0.001"/><path d="M14.3081,3.1616 L14.3081,3.4767" fill="none" stroke="#00a000" stroke-width="0.001"/><path d="M15.5581,2.8912 L15.5581,3.2423" fill="none" stroke="#00a000" stroke-width="0.001"/><path d="M16.8081,2.6259 L16.8081,3.1444" fill="none" stroke="#00a000" stroke-width="0.001"/><path d="M18.0581,2.0685 L18.0581,2.6834" fill="none" stroke="#00a000" stroke-width="0.001"/><path d="M19.3081,1.0542 L19.3081,1.7967" fill="none" stroke="#00a000" stroke-width="0.001"/><path d="M20.5581,0.3947 L20.5581,1.0895" fill="none" stroke="#00a000" stroke-width="0.001"/><path d="M21.8081,0.3492 L21.8081,0.6707" fill="none" stroke="#00a000" stroke-width="0.001"/><path d="M19.7878,0.7782 L21.5659,0.7782 M21.9125,0.7782 L22.1171,0.7782" fill="none" stroke="#00a000" stroke-width="0.001"/><path d="M18.1144,2.0282 L18.9926,2.0282" fill="none" stroke="#00a000" stroke-width="0.001"/><path d="M13.3999,3.2782 L15.3103,3.2782" fill="none" stroke="#00a000" stroke-width="0.001"/><path d="M3.6985,4.5282 L8.5446,4.5282 M8.8705,4.5282 L8.9953,4.5282" fill="none" stroke="#00a000" stroke-width="0.001"/><path d="M2.3531,5.7782 L2.8312,5.7782" fill="none" stroke="#00a000" stroke-width="0.001"/><path d="M0.3243,7.0282 L0.3973,7.0282 M1.0465,7.0282 L1.7554,7.0282" fill="none" stroke="#00a000" stroke-width="0.001"/><path d="M0.3316,8.2782 L1.0156,8.2782" fill="none" stroke="#00a000" stroke-width="0.001"/><path d="M0.3390,9.5282 L0.6604,9.5282" fill="none" stroke="#00a000" stroke-width="0.001"/><path d="M0.3463,10.7782 L1.0931,10.7782" fill="none" stroke="#00a000" stroke-width="0.001"/><text x="20.136" y="0.944" font-family="Arial" font-size="0.220" text-anchor="middle" fill="#000">9 · 1070</text><path d="M28.3144,10.3134 L22.5016,13.4327 L12.5514,14.4288 L7.8108,15.7450 L7.8100,17.3174 L13.3616,17.4000 L13.3937,17.4275 L13.3888,17.6176 L13.7928,17.3535 L14.0491,17.2416 L14.4523,17.0038 L15.1341,16.6634 L15.7368,16.4653 L15.7799,16.3694 L15.7339,16.1512 L15.9286,15.8915 L16.0677,15.4090 L16.1997,15.2684 L16.2678,15.0819 L16.3956,15.0040 L16.5092,15.0000 L16.7285,15.0720 L17.1838,15.1215 L17.4622,15.2349 L17.8293,15.3107 L18.1556,15.4152 L18.4888,15.4767 L18.8567,15.4901 L19.5150,15.3517 L19.7743,15.3662 L20.0327,15.2278 L20.9846,15.0769 L22.5626,14.9131 L23.7740,14.7028 L24.8016,14.7019 L24.9844,14.6575 L25.2798,14.5195 L25.6675,14.4976 L25.7617,14.4251 L25.8062,14.2410 L25.9206,14.0574 L25.8390,13.9844 L25.6455,13.9054 L25.5401,13.6530 L25.4394,13.5786 L25.4287,13.5309 L25.5014,13.4884 L25.6831,13.5129 L25.7555,13.4746 L25.7211,13.2479 L25.8290,13.0136 L25.9024,12.6932 L25.9797,12.6336 L26.2326,12.6116 L26.5264,12.3836 L26.7098,12.1402 L26.9380,11.6713 L27.0966,11.4159 L27.4080,11.1580 L27.5913,11.0730 L28.2512,10.9476 L30.0368,10.8280 L30.4901,10.7695 L31.1133,10.8031 L31.3372,10.7911 L31.5538,10.7116 L31.6720,10.4609 L31.6459,10.3100 L28.3144,10.3134 Z M15.4089,14.8970 L15.3715,14.9533 L15.3394,15.0127 L15.1973,15.3058 L15.1626,15.3900 L15.1439,15.4579 L14.9955,15.5906 L14.9457,15.6395 L14.9006,15.6929 L14.8607,15.7502 L14.8595,15.7523 L14.8588,15.7525 L14.7840,15.7792 L14.3260,15.9711 L14.2477,16.0093 L13.6805,16.3287 L13.4985,16.4056 L13.4389,16.4339 L13.3821,16.4674 L13.3284,16.5057 L13.1599,16.6374 L13.1427,16.6467 L8.5604,16.5785 L8.5605,16.3152 L12.6901,15.1687 L15.4094,14.8964 L15.4089,14.8970 Z M24.5132,13.2487 L24.4906,13.3207 L24.4754,13.3947 L24.4677,13.4698 L24.4621,13.5781 L24.4617,13.6468 L24.4650,13.6853 L24.4389,13.7235 L24.4231,13.7360 L24.2208,13.7653 L23.5283,13.7889 L23.4404,13.7971 L23.3961,13.8038 L24.5378,13.1912 L24.5132,13.2487 Z" fill="none" stroke="#ff0000" stroke-width="0.001"/><path d="M31.1536,10.3105 L28.3144,10.3134 L22.5016,13.4327 L12.5514,14.4288 L7.8108,15.7450 L7.8100,17.3174 L13.3259,17.3995 L13.5712,17.2679 L13.7904,17.0964 L14.0115,17.0030 L14.6156,16.6629 L15.0737,16.4710 L15.3341,16.4782 L15.5240,16.4061 L15.5474,16.3686 L15.4886,16.2212 L15.4955,16.1496 L15.7827,15.8927 L15.8404,15.7831 L15.8722,15.6330 L16.0142,15.3399 L16.1412,15.2195 L16.2375,15.0460 L16.3620,14.9751 L16.5429,14.9641 L16.7640,15.0198 L17.2416,15.0714 L18.3426,15.2630 L18.6731,15.2914 L19.1864,15.2078 L19.5145,15.1229 L19.7728,15.1473 L20.0660,15.0000 L21.0947,14.8241 L22.5627,14.6900 L23.5538,14.5384 L24.2874,14.5135 L24.6499,14.4610 L24.8081,14.3878 L24.9941,14.2406 L25.2446,13.8732 L25.2745,13.7647 L25.2111,13.6170 L25.2167,13.5087 L25.2794,13.4423 L25.4879,13.3240 L25.5500,13.2509 L25.7553,12.8632 L25.7904,12.5053 L26.0877,12.4795 L26.4277,12.2226 L26.6731,11.9291 L26.8516,11.5973 L27.1291,11.2678 L27.5185,11.0331 L28.0667,10.8688 L28.9598,10.7913 L30.2325,10.5812 L30.8570,10.5668 L31.0844,10.4972 L31.1504,10.4520 L31.1817,10.3876 L31.1536,10.3105 M15.3697,14.9521 L15.3696,14.9523 L15.3374,15.0117 L15.3374,15.0118 L15.1953,15.3049 L15.1952,15.3050 L15.1606,15.3892 L15.1605,15.3894 L15.1419,15.4567 L14.9941,15.5889 L14.9940,15.5890 L14.9441,15.6379 L14.9440,15.6381 L14.8989,15.6915 L14.8988,15.6916 L14.8589,15.7490 L14.8588,15.7492 L14.8581,15.7504 L14.7833,15.7772 L14.7832,15.7772 L14.3251,15.9690 L14.3250,15.9691 L14.2467,16.0073 L14.2466,16.0074 L13.6795,16.3267 L13.4976,16.4036 L13.4975,16.4036 L13.4380,16.4319 L13.4378,16.4320 L13.3809,16.4655 L13.3808,16.4656 L13.3271,16.5039 L13.3270,16.5039 L13.1587,16.6356 L13.1422,16.6444 L8.5626,16.5763 L8.5627,16.3169 L12.6905,15.1708 L15.4049,14.8991 L15.3697,14.9521 M24.5111,13.2480 L24.4885,13.3201 L24.4885,13.3203 L24.4733,13.3943 L24.4732,13.3945 L24.4655,13.4696 L24.4655,13.4697 L24.4599,13.5780 L24.4599,13.5781 L24.4595,13.6467 L24.4595,13.6469 L24.4627,13.6847 L24.4373,13.7220 L24.4222,13.7339 L24.2206,13.7631 L23.5282,13.7867 L23.5281,13.7867 L23.4402,13.7949 L23.4401,13.7949 L23.4084,13.7997 L24.5333,13.1961 L24.5112,13.2478 L24.5111,13.2480" fill="none" stroke="#0000ff" stroke-width="0.001"/><path d="M31.1247,10.4830 L31.6495,10.4830" fill="none" stroke="#0000ff" stroke-width="0.001"/><path d="M19.8993,15.2867 L19.8661,15.1554 L19.8540,15.1189" fill="none" stroke="#0000ff" stroke-width="0.001"/><path d="M15.4217,16.4567 L15.4293,16.4589 L15.5350,16.4788 L15.6185,16.4926" fill="none" stroke="#0000ff" stroke-width="0.001"/><path d="M13.8985,17.2953 L13.9055,17.0598 M26.8170,11.6848 L26.9665,11.6046 M28.1890,10.9482 L28.3645,10.8540 M28.8385,10.8128 L30.0778,10.8116" fill="none" stroke="#0000ff" stroke-width="0.001"/><path d="M31.4269,10.7465 L31.4269,10.3212" fill="none" stroke="#00a000" stroke-width="0.001"/><path d="M30.1769,10.7988 L30.1769,10.6015" fill="none" stroke="#00a000" stroke-width="0.001"/><path d="M28.9269,10.8913 L28.9269,10.8052" fill="none" stroke="#00a000" stroke-width="0.001"/><path d="M27.6769,11.0455 L27.6769,10.9971" fill="none" stroke="#00a000" stroke-width="0.001"/><path d="M26.4269,12.4469 L26.4269,12.2370" fill="none" stroke="#00a000" stroke-width="0.001"/><path d="M25.1769,14.5554 L25.1769,13.9921" fill="none" stroke="#00a000" stroke-width="0.001"/><path d="M23.9269,14.6916 L23.9269,14.5368" fill="none" stroke="#00a000" stroke-width="0.001"/><path d="M22.6769,14.8821 L22.6769,14.6837" fill="none" stroke="#00a000" stroke-width="0.001"/><path d="M21.4269,15.0199 L21.4269,14.8048" fill="none" stroke="#00a000" stroke-width="0.001"/><path d="M20.1769,15.1938 L20.1769,14.9922" fill="none" stroke="#00a000" stroke-width="0.001"/><path d="M18.9269,15.4641 L18.9269,15.2613" fill="none" stroke="#00a000" stroke-width="0.001"/><path d="M17.6769,15.2680 L17.6769,15.1583" fill="none" stroke="#00a000" stroke-width="0.001"/><path d="M16.4269,14.9919 L16.4269,14.9822" fill="none" stroke="#00a000" stroke-width="0.001"/><path d="M15.1769,16.6377 L15.1769,16.4849" fill="none" stroke="#00a000" stroke-width="0.001"/><path d="M13.9269,17.2829 L13.9269,17.0507" fill="none" stroke="#00a000" stroke-width="0.001"/><path d="M15.7620,16.3824 L15.5517,16.3824" fill="none" stroke="#00a000" stroke-width="0.001"/><path d="M20.5641,15.1324 L19.8270,15.1324 M17.5280,15.1324 L17.2399,15.1324 M16.2376,15.1324 L16.2021,15.1324" fill="none" stroke="#00a000" stroke-width="0.001"/><path d="M25.6240,13.8824 L25.2516,13.8824" fill="none" stroke="#00a000" stroke-width="0.001"/><path d="M25.9632,12.6324 L25.7890,12.6324" fill="none" stroke="#00a000" stroke-width="0.001"/><path d="M27.1197,11.3824 L27.0469,11.3824" fill="none" stroke="#00a000" stroke-width="0.001"/><text x="25.450" y="14.251" font-family="Arial" font-size="0.220" text-anchor="middle" fill="#000">29 · 1090</text><path d="M6.5775,7.7438 L16.5276,6.7477 L21.2683,5.4315 L21.2690,3.8591 L17.9667,3.8100 L17.5626,4.0222 L16.9753,4.2701 L16.4195,4.4769 L15.5666,4.7333 L15.4983,4.8078 L15.4195,5.1379 L15.3239,5.2728 L15.0315,5.4197 L14.7219,5.5046 L14.3704,5.6552 L14.0395,5.7061 L13.9312,5.8083 L13.7821,5.8824 L13.6724,6.0373 L13.5424,6.1288 L13.4522,6.2749 L13.2329,6.4658 L12.9030,6.6571 L12.4618,6.7342 L11.8010,6.7039 L11.3972,6.7198 L10.2958,6.8464 L10.1869,6.8927 L10.1562,6.9348 L10.1096,7.2315 L10.0604,7.3042 L9.9683,7.3494 L9.8203,7.3490 L9.7108,7.3149 L9.5252,7.1433 L9.2687,7.0382 L8.6567,7.1191 L7.9839,7.2814 L7.3238,7.3348 L6.7003,7.4701 L5.6721,7.4780 L5.4149,7.5103 L5.0816,7.7066 L4.7537,7.7601 L4.6814,7.7942 L4.6529,7.8898 L4.7195,8.0390 L4.7134,8.1439 L4.6643,8.1840 L4.4612,8.2358 L4.2774,8.5321 L3.8616,8.9898 L3.8100,9.2280 L6.5775,7.7438 Z M16.2579,5.9977 L16.3105,5.9470 L16.3826,5.8706 L16.4312,5.8135 L16.4739,5.7519 L16.5102,5.6863 L16.5398,5.6174 L16.5624,5.5459 L16.5777,5.4725 L16.5917,5.3836 L16.5997,5.3648 L17.9579,4.8916 L18.0380,4.8583 L18.3295,4.7172 L18.4040,4.6757 L18.5724,4.5691 L20.5187,4.5980 L20.5185,4.8613 L16.3889,6.0079 L16.2242,6.0244 L16.2579,5.9977 Z" fill="none" stroke="#ff0000" stroke-width="0.001"/><path d="M16.5276,6.7477 L21.2683,5.4315 L21.2690,3.8591 L18.3600,3.8158 L18.0026,4.0422 L17.7112,4.1833 L16.0270,4.7701 L15.9575,4.8446 L15.9426,4.9937 L15.8652,5.1752 L15.8368,5.3562 L15.7647,5.4326 L15.5817,5.5155 L15.2500,5.5494 L14.6346,5.7614 L14.2223,5.8698 L13.9294,6.0236 L13.8182,6.1691 L13.5267,6.3785 L12.9398,6.7005 L12.4623,6.8076 L11.7273,6.7550 L10.3375,6.9355 L10.2380,7.0097 L10.1860,7.3024 L10.0769,7.3934 L16.5276,6.7477 M16.2594,5.9993 L16.3120,5.9486 L16.3121,5.9486 L16.3842,5.8721 L16.3842,5.8720 L16.4329,5.8150 L16.4330,5.8148 L16.4757,5.7531 L16.4758,5.7529 L16.5122,5.6873 L16.5123,5.6871 L16.5419,5.6182 L16.5419,5.6180 L16.5645,5.5465 L16.5646,5.5463 L16.5799,5.4729 L16.5799,5.4728 L16.5938,5.3842 L16.6013,5.3665 L17.9587,4.8936 L17.9588,4.8936 L18.0389,4.8604 L18.0390,4.8603 L18.3305,4.7192 L18.3306,4.7191 L18.4051,4.6777 L18.4052,4.6776 L18.5730,4.5713 L20.5165,4.6002 L20.5163,4.8596 L16.3885,6.0057 L16.2314,6.0214 L16.2593,5.9994 L16.2594,5.9993 M4.2043,8.9328 L4.2892,8.9707 L6.5743,7.7446 L9.8323,7.4179 L9.5874,7.3759 L9.4153,7.1922 L9.2325,7.1533 L8.7914,7.1924 L8.2406,7.3700 L7.5075,7.3979 L6.9930,7.5271 L6.4427,7.5658 L6.0387,7.6417 L5.5996,7.6730 L5.3059,7.8442 L4.8649,7.9448 L4.8353,8.0738 L4.8844,8.3010 L4.6803,8.3050 L4.5721,8.3531 L4.3502,8.6354 L4.2082,8.7706 L4.1768,8.8807 L4.2043,8.9328" fill="none" stroke="#0000ff" stroke-width="0.001"/><path d="M12.4724,6.7940 L12.4529,6.7959 M10.2205,7.0457 L10.1482,7.0566 M9.5171,7.1518 L9.3935,7.1705 L9.3783,7.1730 M4.1855,8.8100 L3.8781,8.9880" fill="none" stroke="#0000ff" stroke-width="0.001"/><path d="M16.9406,4.2947 L17.3408,4.3007 M13.1261,6.5857 L13.0318,6.5952 M11.8242,6.7160 L10.2630,6.8723 M5.9967,7.4865 L5.6806,7.6562 M4.8322,8.1117 L4.4108,8.3380" fill="none" stroke="#0000ff" stroke-width="0.001"/><path d="M3.9022,8.9615 L3.9022,9.1661" fill="none" stroke="#00a000" stroke-width="0.001"/><path d="M5.1522,7.6778 L5.1522,7.8680" fill="none" stroke="#00a000" stroke-width="0.001"/><path d="M6.4022,7.4834 L6.4022,7.5622" fill="none" stroke="#00a000" stroke-width="0.001"/><path d="M7.6522,7.3193 L7.6522,7.3814" fill="none" stroke="#00a000" stroke-width="0.001"/><path d="M8.9022,7.0978 L8.9022,7.1715" fill="none" stroke="#00a000" stroke-width="0.001"/><path d="M10.1522,7.0315 L10.1522,7.3163" fill="none" stroke="#00a000" stroke-width="0.001"/><path d="M11.4022,6.7306 L11.4022,6.7862" fill="none" stroke="#00a000" stroke-width="0.001"/><path d="M12.6522,6.7121 L12.6522,6.7537" fill="none" stroke="#00a000" stroke-width="0.001"/><path d="M13.9022,5.8350 L13.9022,6.0411" fill="none" stroke="#00a000" stroke-width="0.001"/><path d="M15.1522,5.3714 L15.1522,5.5715" fill="none" stroke="#00a000" stroke-width="0.001"/><path d="M16.4022,4.4936 L16.4022,4.6277" fill="none" stroke="#00a000" stroke-width="0.001"/><path d="M17.6522,3.9876 L17.6522,4.1922" fill="none" stroke="#00a000" stroke-width="0.001"/><path d="M15.5258,4.7941 L15.9896,4.7941" fill="none" stroke="#00a000" stroke-width="0.001"/><path d="M13.6811,6.0441 L13.8999,6.0441" fill="none" stroke="#00a000" stroke-width="0.001"/><path d="M7.9636,7.2941 L8.4402,7.2941 M9.5258,7.2941 L9.6721,7.2941 M10.0805,7.2941 L10.1763,7.2941" fill="none" stroke="#00a000" stroke-width="0.001"/><path d="M4.2815,8.5441 L4.4080,8.5441" fill="none" stroke="#00a000" stroke-width="0.001"/><text x="15.710" y="5.008" font-family="Arial" font-size="0.211" text-anchor="middle" fill="#000">35 · 1096</text><path d="M12.6608,3.2419 L17.4015,1.9257 L17.4022,0.3533 L14.4932,0.3100 L14.1358,0.5363 L13.8444,0.6775 L12.1602,1.2642 L12.0907,1.3388 L12.0758,1.4879 L11.9984,1.6694 L11.9700,1.8504 L11.8979,1.9268 L11.7149,2.0097 L11.3832,2.0436 L10.7678,2.2555 L10.3555,2.3640 L10.0626,2.5177 L9.9514,2.6633 L9.6599,2.8726 L9.0730,3.1946 L8.5955,3.3018 L7.8605,3.2492 L6.4707,3.4297 L6.3712,3.5039 L6.3192,3.7966 L6.2101,3.8875 L12.6608,3.2419 Z M12.9872,2.3334 L13.1794,2.0395 L13.2111,1.9864 L13.2382,1.9309 L13.2608,1.8734 L13.2670,1.8554 L14.1876,1.5510 L14.2826,1.5121 L14.6127,1.3501 L14.6727,1.3172 L14.7295,1.2789 L15.0135,1.0678 L16.6519,1.0922 L16.6518,1.3555 L12.9514,2.3829 L12.9872,2.3334 Z M0.3375,5.4269 L0.4224,5.4649 L2.7075,4.2388 L5.9655,3.9120 L5.7206,3.8701 L5.5485,3.6863 L5.3657,3.6474 L4.9246,3.6866 L4.3738,3.8642 L3.6407,3.8921 L3.1262,4.0212 L2.5759,4.0600 L2.1719,4.1358 L1.7328,4.1672 L1.4391,4.3383 L0.9981,4.4389 L0.9685,4.5680 L1.0176,4.7952 L0.8135,4.7992 L0.7053,4.8472 L0.4834,5.1296 L0.3414,5.2647 L0.3100,5.3748 L0.3375,5.4269 Z" fill="none" stroke="#ff0000" stroke-width="0.001"/><path d="M12.6608,3.2419 L17.4015,1.9257 L17.4022,0.3533 L14.7704,0.3141 L14.2822,0.6769 L13.9521,0.8389 L12.6634,1.2650 L12.5683,1.3747 L12.5771,1.5552 L12.5517,1.6290 L12.3595,1.9229 L12.2997,1.9738 L10.3926,2.5418 L10.2514,2.6228 L10.0819,2.7701 L9.7326,2.9638 L9.1469,3.2574 L8.9634,3.3198 L8.9156,3.3564 L8.8913,3.4568 L8.8505,3.4843 L8.4108,3.5642 L7.8967,3.7162 L7.0534,3.7684 L6.6636,3.8422 L12.6608,3.2419 M12.9891,2.3346 L13.1812,2.0407 L13.1813,2.0407 L13.2129,1.9876 L13.2130,1.9874 L13.2402,1.9319 L13.2403,1.9317 L13.2628,1.8742 L13.2629,1.8741 L13.2687,1.8571 L14.1883,1.5531 L14.1884,1.5530 L14.2835,1.5142 L14.2836,1.5141 L14.6137,1.3521 L14.6137,1.3520 L14.6738,1.3191 L14.6739,1.3190 L14.7307,1.2807 L14.7308,1.2806 L15.0143,1.0700 L16.6497,1.0943 L16.6496,1.3538 L12.9568,2.3791 L12.9890,2.3347 L12.9891,2.3346 M1.3276,4.8446 L1.4423,4.9173 L2.7045,4.2399 L2.9618,4.2005 L2.8701,4.1578 L2.6865,4.1506 L2.2816,4.2593 L1.8839,4.2738 L1.6563,4.4386 L1.2672,4.5310 L1.1780,4.5675 L1.1634,4.6042 L1.3276,4.8446 M1.0189,5.1447 L1.2266,5.0331 L1.0718,5.0144 L0.8785,5.0445 L1.0189,5.1447" fill="none" stroke="#0000ff" stroke-width="0.001"/><path d="M9.1566,3.2403 L9.0497,3.2463 L8.7792,3.2718 M8.4530,3.3026 L7.8827,3.3564 L6.6937,3.4885 L6.3766,3.5364 M5.4522,3.6771 L4.4954,3.8366 M4.2421,3.8802 L3.3688,4.0390 L2.8853,4.1528 M1.2254,4.7144 L1.0348,4.8097 L0.7045,5.0299 L0.3742,5.2721 L0.3461,5.2883" fill="none" stroke="#0000ff" stroke-width="0.001"/><path d="M13.5382,0.7958 L14.0009,0.8027 M9.5307,3.0527 L9.3153,3.0743 M1.7664,4.1758 L0.9856,4.5950" fill="none" stroke="#0000ff" stroke-width="0.001"/><path d="M1.2854,4.3847 L1.2854,4.5154 M1.2854,4.8023 L1.2854,4.9894" fill="none" stroke="#00a000" stroke-width="0.001"/><path d="M2.5354,4.0788 L2.5354,4.1798" fill="none" stroke="#00a000" stroke-width="0.001"/><path d="M3.7854,3.8976 L3.7854,4.1196" fill="none" stroke="#00a000" stroke-width="0.001"/><path d="M5.0354,3.6878 L5.0354,3.9942" fill="none" stroke="#00a000" stroke-width="0.001"/><path d="M6.2854,3.8391 L6.2854,3.8689" fill="none" stroke="#00a000" stroke-width="0.001"/><path d="M7.5354,3.3025 L7.5354,3.7275" fill="none" stroke="#00a000" stroke-width="0.001"/><path d="M8.7854,3.2704 L8.7854,3.4849" fill="none" stroke="#00a000" stroke-width="0.001"/><path d="M10.0354,2.5715 L10.0354,2.7833" fill="none" stroke="#00a000" stroke-width="0.001"/><path d="M11.2854,2.0889 L11.2854,2.2644" fill="none" stroke="#00a000" stroke-width="0.001"/><path d="M12.5354,1.1452 L12.5354,1.6339" fill="none" stroke="#00a000" stroke-width="0.001"/><path d="M13.7854,0.7097 L13.7854,0.8824" fill="none" stroke="#00a000" stroke-width="0.001"/><path d="M12.1529,1.2883 L12.6287,1.2883" fill="none" stroke="#00a000" stroke-width="0.001"/><path d="M10.0608,2.5383 L10.3766,2.5383" fill="none" stroke="#00a000" stroke-width="0.001"/><path d="M4.6451,3.7883 L5.6289,3.7883 M6.3319,3.7883 L6.8892,3.7883" fill="none" stroke="#00a000" stroke-width="0.001"/><path d="M0.5692,5.0383 L0.8695,5.0383" fill="none" stroke="#00a000" stroke-width="0.001"/><text x="12.313" y="1.624" font-family="Arial" font-size="0.220" text-anchor="middle" fill="#000">36 · 1097</text></svg>